G75*
%MOIN*%
%OFA0B0*%
%FSLAX24Y24*%
%IPPOS*%
%LPD*%
%AMOC8*
5,1,8,0,0,1.08239X$1,22.5*
%
%ADD10R,0.0867X0.0513*%
%ADD11R,0.0789X0.0513*%
%ADD12R,0.0513X0.0867*%
%ADD13R,0.0513X0.0789*%
%ADD14R,0.0356X0.0434*%
%ADD15C,0.0720*%
D10*
G36*
X003558Y004236D02*
X002946Y004848D01*
X003308Y005210D01*
X003920Y004598D01*
X003558Y004236D01*
G37*
G36*
X005773Y002547D02*
X004973Y002879D01*
X005169Y003351D01*
X005969Y003019D01*
X005773Y002547D01*
G37*
X008034Y002095D03*
G36*
X011227Y002216D02*
X010427Y001884D01*
X010231Y002356D01*
X011031Y002688D01*
X011227Y002216D01*
G37*
G36*
X013629Y003623D02*
X013017Y003011D01*
X012655Y003373D01*
X013267Y003985D01*
X013629Y003623D01*
G37*
G36*
X015319Y005838D02*
X014987Y005038D01*
X014515Y005234D01*
X014847Y006034D01*
X015319Y005838D01*
G37*
G36*
X015649Y011292D02*
X015981Y010492D01*
X015509Y010296D01*
X015177Y011096D01*
X015649Y011292D01*
G37*
G36*
X014242Y013694D02*
X014854Y013082D01*
X014492Y012720D01*
X013880Y013332D01*
X014242Y013694D01*
G37*
G36*
X012027Y015384D02*
X012827Y015052D01*
X012631Y014580D01*
X011831Y014912D01*
X012027Y015384D01*
G37*
X009766Y015835D03*
G36*
X006573Y015715D02*
X007373Y016047D01*
X007569Y015575D01*
X006769Y015243D01*
X006573Y015715D01*
G37*
G36*
X004171Y014307D02*
X004783Y014919D01*
X005145Y014557D01*
X004533Y013945D01*
X004171Y014307D01*
G37*
G36*
X002481Y012092D02*
X002813Y012892D01*
X003285Y012696D01*
X002953Y011896D01*
X002481Y012092D01*
G37*
G36*
X002151Y006638D02*
X001819Y007438D01*
X002291Y007634D01*
X002623Y006834D01*
X002151Y006638D01*
G37*
D11*
G36*
X003864Y002148D02*
X003308Y002704D01*
X003670Y003066D01*
X004226Y002510D01*
X003864Y002148D01*
G37*
G36*
X005255Y001398D02*
X004528Y001700D01*
X004723Y002172D01*
X005450Y001870D01*
X005255Y001398D01*
G37*
G36*
X006855Y000735D02*
X006128Y001037D01*
X006323Y001509D01*
X007050Y001207D01*
X006855Y000735D01*
G37*
X008034Y000835D03*
G36*
X007337Y001899D02*
X006610Y002201D01*
X006805Y002673D01*
X007532Y002371D01*
X007337Y001899D01*
G37*
X009766Y002095D03*
X009766Y000835D03*
G36*
X011672Y001037D02*
X010945Y000735D01*
X010750Y001207D01*
X011477Y001509D01*
X011672Y001037D01*
G37*
G36*
X013272Y001700D02*
X012545Y001398D01*
X012350Y001870D01*
X013077Y002172D01*
X013272Y001700D01*
G37*
G36*
X014492Y002704D02*
X013936Y002148D01*
X013574Y002510D01*
X014130Y003066D01*
X014492Y002704D01*
G37*
G36*
X015717Y003929D02*
X015161Y003373D01*
X014799Y003735D01*
X015355Y004291D01*
X015717Y003929D01*
G37*
G36*
X016468Y005320D02*
X016166Y004593D01*
X015694Y004788D01*
X015996Y005515D01*
X016468Y005320D01*
G37*
G36*
X017130Y006920D02*
X016828Y006193D01*
X016356Y006388D01*
X016658Y007115D01*
X017130Y006920D01*
G37*
G36*
X015966Y007402D02*
X015664Y006675D01*
X015192Y006870D01*
X015494Y007597D01*
X015966Y007402D01*
G37*
G36*
X014826Y004820D02*
X014270Y004264D01*
X013908Y004626D01*
X014464Y005182D01*
X014826Y004820D01*
G37*
G36*
X012790Y002864D02*
X012063Y002562D01*
X011868Y003034D01*
X012595Y003336D01*
X012790Y002864D01*
G37*
G36*
X004755Y003039D02*
X004199Y003595D01*
X004561Y003957D01*
X005117Y003401D01*
X004755Y003039D01*
G37*
G36*
X002639Y003373D02*
X002083Y003929D01*
X002445Y004291D01*
X003001Y003735D01*
X002639Y003373D01*
G37*
G36*
X001634Y004593D02*
X001332Y005320D01*
X001804Y005515D01*
X002106Y004788D01*
X001634Y004593D01*
G37*
G36*
X002798Y005075D02*
X002496Y005802D01*
X002968Y005997D01*
X003270Y005270D01*
X002798Y005075D01*
G37*
G36*
X000972Y006193D02*
X000670Y006920D01*
X001142Y007115D01*
X001444Y006388D01*
X000972Y006193D01*
G37*
G36*
X001834Y010528D02*
X002136Y011255D01*
X002608Y011060D01*
X002306Y010333D01*
X001834Y010528D01*
G37*
G36*
X000670Y011010D02*
X000972Y011737D01*
X001444Y011542D01*
X001142Y010815D01*
X000670Y011010D01*
G37*
G36*
X001332Y012610D02*
X001634Y013337D01*
X002106Y013142D01*
X001804Y012415D01*
X001332Y012610D01*
G37*
G36*
X002083Y014001D02*
X002639Y014557D01*
X003001Y014195D01*
X002445Y013639D01*
X002083Y014001D01*
G37*
G36*
X002974Y013110D02*
X003530Y013666D01*
X003892Y013304D01*
X003336Y012748D01*
X002974Y013110D01*
G37*
G36*
X003308Y015226D02*
X003864Y015782D01*
X004226Y015420D01*
X003670Y014864D01*
X003308Y015226D01*
G37*
G36*
X004528Y016231D02*
X005255Y016533D01*
X005450Y016061D01*
X004723Y015759D01*
X004528Y016231D01*
G37*
G36*
X005010Y015067D02*
X005737Y015369D01*
X005932Y014897D01*
X005205Y014595D01*
X005010Y015067D01*
G37*
G36*
X006128Y016894D02*
X006855Y017196D01*
X007050Y016724D01*
X006323Y016422D01*
X006128Y016894D01*
G37*
X008034Y017095D03*
X008034Y015835D03*
X009766Y017095D03*
G36*
X010945Y017196D02*
X011672Y016894D01*
X011477Y016422D01*
X010750Y016724D01*
X010945Y017196D01*
G37*
G36*
X010463Y016032D02*
X011190Y015730D01*
X010995Y015258D01*
X010268Y015560D01*
X010463Y016032D01*
G37*
G36*
X012545Y016533D02*
X013272Y016231D01*
X013077Y015759D01*
X012350Y016061D01*
X012545Y016533D01*
G37*
G36*
X013936Y015782D02*
X014492Y015226D01*
X014130Y014864D01*
X013574Y015420D01*
X013936Y015782D01*
G37*
G36*
X013045Y014891D02*
X013601Y014335D01*
X013239Y013973D01*
X012683Y014529D01*
X013045Y014891D01*
G37*
G36*
X015161Y014557D02*
X015717Y014001D01*
X015355Y013639D01*
X014799Y014195D01*
X015161Y014557D01*
G37*
G36*
X016166Y013337D02*
X016468Y012610D01*
X015996Y012415D01*
X015694Y013142D01*
X016166Y013337D01*
G37*
G36*
X015002Y012855D02*
X015304Y012128D01*
X014832Y011933D01*
X014530Y012660D01*
X015002Y012855D01*
G37*
G36*
X016828Y011737D02*
X017130Y011010D01*
X016658Y010815D01*
X016356Y011542D01*
X016828Y011737D01*
G37*
D12*
X015770Y008099D03*
X002030Y009831D03*
D13*
X000770Y009831D03*
X000770Y008099D03*
X002030Y008099D03*
X015770Y009831D03*
X017030Y009831D03*
X017030Y008099D03*
D14*
G36*
X017133Y007108D02*
X016785Y007177D01*
X016869Y007602D01*
X017217Y007533D01*
X017133Y007108D01*
G37*
G36*
X016631Y007208D02*
X016283Y007277D01*
X016367Y007702D01*
X016715Y007633D01*
X016631Y007208D01*
G37*
G36*
X013117Y002260D02*
X012919Y002555D01*
X013279Y002796D01*
X013477Y002501D01*
X013117Y002260D01*
G37*
G36*
X013401Y001834D02*
X013203Y002129D01*
X013563Y002370D01*
X013761Y002075D01*
X013401Y001834D01*
G37*
G36*
X007143Y001234D02*
X007212Y001582D01*
X007637Y001498D01*
X007568Y001150D01*
X007143Y001234D01*
G37*
G36*
X007043Y000732D02*
X007112Y001080D01*
X007537Y000996D01*
X007468Y000648D01*
X007043Y000732D01*
G37*
G36*
X002195Y004748D02*
X002490Y004946D01*
X002731Y004586D01*
X002436Y004388D01*
X002195Y004748D01*
G37*
G36*
X001769Y004464D02*
X002064Y004662D01*
X002305Y004302D01*
X002010Y004104D01*
X001769Y004464D01*
G37*
G36*
X001169Y010722D02*
X001517Y010653D01*
X001433Y010228D01*
X001085Y010297D01*
X001169Y010722D01*
G37*
G36*
X000667Y010822D02*
X001015Y010753D01*
X000931Y010328D01*
X000583Y010397D01*
X000667Y010822D01*
G37*
G36*
X004683Y015670D02*
X004881Y015375D01*
X004521Y015134D01*
X004323Y015429D01*
X004683Y015670D01*
G37*
G36*
X004399Y016096D02*
X004597Y015801D01*
X004237Y015560D01*
X004039Y015855D01*
X004399Y016096D01*
G37*
G36*
X007113Y016849D02*
X007043Y017198D01*
X007467Y017283D01*
X007537Y016934D01*
X007113Y016849D01*
G37*
G36*
X007213Y016347D02*
X007143Y016696D01*
X007567Y016781D01*
X007637Y016432D01*
X007213Y016347D01*
G37*
G36*
X010657Y016696D02*
X010588Y016348D01*
X010163Y016432D01*
X010232Y016780D01*
X010657Y016696D01*
G37*
G36*
X010757Y017198D02*
X010688Y016850D01*
X010263Y016934D01*
X010332Y017282D01*
X010757Y017198D01*
G37*
G36*
X015605Y013182D02*
X015310Y012984D01*
X015069Y013344D01*
X015364Y013542D01*
X015605Y013182D01*
G37*
G36*
X016031Y013466D02*
X015736Y013268D01*
X015495Y013628D01*
X015790Y013826D01*
X016031Y013466D01*
G37*
D15*
X013230Y015435D03*
X002420Y013295D03*
X004570Y002495D03*
X010420Y001325D03*
M02*
