G75*
%MOIN*%
%OFA0B0*%
%FSLAX24Y24*%
%IPPOS*%
%LPD*%
%AMOC8*
5,1,8,0,0,1.08239X$1,22.5*
%
%ADD10C,0.0050*%
%ADD11R,0.0787X0.0433*%
%ADD12R,0.0709X0.0433*%
%ADD13R,0.0433X0.0787*%
%ADD14R,0.0433X0.0709*%
%ADD15R,0.0276X0.0354*%
%ADD16C,0.0640*%
%ADD17C,0.0100*%
%ADD18C,0.0350*%
D10*
X002650Y008900D02*
X002652Y009058D01*
X002658Y009215D01*
X002668Y009373D01*
X002682Y009530D01*
X002700Y009686D01*
X002721Y009843D01*
X002747Y009998D01*
X002777Y010153D01*
X002810Y010307D01*
X002848Y010460D01*
X002889Y010613D01*
X002934Y010764D01*
X002983Y010914D01*
X003036Y011062D01*
X003092Y011210D01*
X003153Y011355D01*
X003216Y011500D01*
X003284Y011642D01*
X003355Y011783D01*
X003429Y011922D01*
X003507Y012059D01*
X003589Y012194D01*
X003673Y012327D01*
X003762Y012458D01*
X003853Y012586D01*
X003948Y012713D01*
X004045Y012836D01*
X004146Y012958D01*
X004250Y013076D01*
X004357Y013192D01*
X004467Y013305D01*
X004579Y013416D01*
X004695Y013523D01*
X004813Y013628D01*
X004933Y013730D01*
X005056Y013828D01*
X005182Y013924D01*
X005310Y014016D01*
X005440Y014105D01*
X005572Y014191D01*
X005707Y014273D01*
X005844Y014352D01*
X005982Y014427D01*
X006122Y014499D01*
X006265Y014567D01*
X006408Y014632D01*
X006554Y014693D01*
X006701Y014750D01*
X006849Y014804D01*
X006999Y014854D01*
X007149Y014900D01*
X007301Y014942D01*
X007454Y014981D01*
X007608Y015015D01*
X007763Y015046D01*
X007918Y015072D01*
X008074Y015095D01*
X008231Y015114D01*
X008388Y015129D01*
X008545Y015140D01*
X008703Y015147D01*
X008861Y015150D01*
X009018Y015149D01*
X009176Y015144D01*
X009333Y015135D01*
X009491Y015122D01*
X009647Y015105D01*
X009804Y015084D01*
X009959Y015060D01*
X010114Y015031D01*
X010269Y014998D01*
X010422Y014962D01*
X010575Y014921D01*
X010726Y014877D01*
X010876Y014829D01*
X011025Y014778D01*
X011173Y014722D01*
X011319Y014663D01*
X011464Y014600D01*
X011607Y014533D01*
X011748Y014463D01*
X011887Y014390D01*
X012025Y014313D01*
X012161Y014232D01*
X012294Y014148D01*
X012425Y014061D01*
X012554Y013970D01*
X012681Y013876D01*
X012806Y013779D01*
X012927Y013679D01*
X013047Y013576D01*
X013163Y013470D01*
X013277Y013361D01*
X013389Y013249D01*
X013497Y013135D01*
X013602Y013017D01*
X013705Y012897D01*
X013804Y012775D01*
X013900Y012650D01*
X013993Y012522D01*
X014083Y012393D01*
X014169Y012261D01*
X014253Y012127D01*
X014332Y011991D01*
X014409Y011853D01*
X014481Y011713D01*
X014550Y011571D01*
X014616Y011428D01*
X014678Y011283D01*
X014736Y011136D01*
X014791Y010988D01*
X014842Y010839D01*
X014889Y010688D01*
X014932Y010537D01*
X014971Y010384D01*
X015007Y010230D01*
X015038Y010076D01*
X015066Y009921D01*
X015090Y009765D01*
X015110Y009608D01*
X015126Y009451D01*
X015138Y009294D01*
X015146Y009137D01*
X015150Y008979D01*
X015150Y008821D01*
X015146Y008663D01*
X015138Y008506D01*
X015126Y008349D01*
X015110Y008192D01*
X015090Y008035D01*
X015066Y007879D01*
X015038Y007724D01*
X015007Y007570D01*
X014971Y007416D01*
X014932Y007263D01*
X014889Y007112D01*
X014842Y006961D01*
X014791Y006812D01*
X014736Y006664D01*
X014678Y006517D01*
X014616Y006372D01*
X014550Y006229D01*
X014481Y006087D01*
X014409Y005947D01*
X014332Y005809D01*
X014253Y005673D01*
X014169Y005539D01*
X014083Y005407D01*
X013993Y005278D01*
X013900Y005150D01*
X013804Y005025D01*
X013705Y004903D01*
X013602Y004783D01*
X013497Y004665D01*
X013389Y004551D01*
X013277Y004439D01*
X013163Y004330D01*
X013047Y004224D01*
X012927Y004121D01*
X012806Y004021D01*
X012681Y003924D01*
X012554Y003830D01*
X012425Y003739D01*
X012294Y003652D01*
X012161Y003568D01*
X012025Y003487D01*
X011887Y003410D01*
X011748Y003337D01*
X011607Y003267D01*
X011464Y003200D01*
X011319Y003137D01*
X011173Y003078D01*
X011025Y003022D01*
X010876Y002971D01*
X010726Y002923D01*
X010575Y002879D01*
X010422Y002838D01*
X010269Y002802D01*
X010114Y002769D01*
X009959Y002740D01*
X009804Y002716D01*
X009647Y002695D01*
X009491Y002678D01*
X009333Y002665D01*
X009176Y002656D01*
X009018Y002651D01*
X008861Y002650D01*
X008703Y002653D01*
X008545Y002660D01*
X008388Y002671D01*
X008231Y002686D01*
X008074Y002705D01*
X007918Y002728D01*
X007763Y002754D01*
X007608Y002785D01*
X007454Y002819D01*
X007301Y002858D01*
X007149Y002900D01*
X006999Y002946D01*
X006849Y002996D01*
X006701Y003050D01*
X006554Y003107D01*
X006408Y003168D01*
X006265Y003233D01*
X006122Y003301D01*
X005982Y003373D01*
X005844Y003448D01*
X005707Y003527D01*
X005572Y003609D01*
X005440Y003695D01*
X005310Y003784D01*
X005182Y003876D01*
X005056Y003972D01*
X004933Y004070D01*
X004813Y004172D01*
X004695Y004277D01*
X004579Y004384D01*
X004467Y004495D01*
X004357Y004608D01*
X004250Y004724D01*
X004146Y004842D01*
X004045Y004964D01*
X003948Y005087D01*
X003853Y005214D01*
X003762Y005342D01*
X003673Y005473D01*
X003589Y005606D01*
X003507Y005741D01*
X003429Y005878D01*
X003355Y006017D01*
X003284Y006158D01*
X003216Y006300D01*
X003153Y006445D01*
X003092Y006590D01*
X003036Y006738D01*
X002983Y006886D01*
X002934Y007036D01*
X002889Y007187D01*
X002848Y007340D01*
X002810Y007493D01*
X002777Y007647D01*
X002747Y007802D01*
X002721Y007957D01*
X002700Y008114D01*
X002682Y008270D01*
X002668Y008427D01*
X002658Y008585D01*
X002652Y008742D01*
X002650Y008900D01*
X000150Y008900D02*
X000153Y009115D01*
X000161Y009329D01*
X000174Y009544D01*
X000192Y009758D01*
X000216Y009971D01*
X000245Y010184D01*
X000279Y010396D01*
X000318Y010607D01*
X000363Y010817D01*
X000412Y011026D01*
X000467Y011234D01*
X000527Y011440D01*
X000592Y011645D01*
X000661Y011848D01*
X000736Y012049D01*
X000816Y012248D01*
X000901Y012446D01*
X000990Y012641D01*
X001084Y012834D01*
X001183Y013025D01*
X001287Y013213D01*
X001395Y013398D01*
X001508Y013581D01*
X001625Y013761D01*
X001746Y013938D01*
X001872Y014112D01*
X002002Y014283D01*
X002136Y014451D01*
X002274Y014615D01*
X002417Y014776D01*
X002563Y014933D01*
X002713Y015087D01*
X002867Y015237D01*
X003024Y015383D01*
X003185Y015526D01*
X003349Y015664D01*
X003517Y015798D01*
X003688Y015928D01*
X003862Y016054D01*
X004039Y016175D01*
X004219Y016292D01*
X004402Y016405D01*
X004587Y016513D01*
X004775Y016617D01*
X004966Y016716D01*
X005159Y016810D01*
X005354Y016899D01*
X005552Y016984D01*
X005751Y017064D01*
X005952Y017139D01*
X006155Y017208D01*
X006360Y017273D01*
X006566Y017333D01*
X006774Y017388D01*
X006983Y017437D01*
X007193Y017482D01*
X007404Y017521D01*
X007616Y017555D01*
X007829Y017584D01*
X008042Y017608D01*
X008256Y017626D01*
X008471Y017639D01*
X008685Y017647D01*
X008900Y017650D01*
X009115Y017647D01*
X009329Y017639D01*
X009544Y017626D01*
X009758Y017608D01*
X009971Y017584D01*
X010184Y017555D01*
X010396Y017521D01*
X010607Y017482D01*
X010817Y017437D01*
X011026Y017388D01*
X011234Y017333D01*
X011440Y017273D01*
X011645Y017208D01*
X011848Y017139D01*
X012049Y017064D01*
X012248Y016984D01*
X012446Y016899D01*
X012641Y016810D01*
X012834Y016716D01*
X013025Y016617D01*
X013213Y016513D01*
X013398Y016405D01*
X013581Y016292D01*
X013761Y016175D01*
X013938Y016054D01*
X014112Y015928D01*
X014283Y015798D01*
X014451Y015664D01*
X014615Y015526D01*
X014776Y015383D01*
X014933Y015237D01*
X015087Y015087D01*
X015237Y014933D01*
X015383Y014776D01*
X015526Y014615D01*
X015664Y014451D01*
X015798Y014283D01*
X015928Y014112D01*
X016054Y013938D01*
X016175Y013761D01*
X016292Y013581D01*
X016405Y013398D01*
X016513Y013213D01*
X016617Y013025D01*
X016716Y012834D01*
X016810Y012641D01*
X016899Y012446D01*
X016984Y012248D01*
X017064Y012049D01*
X017139Y011848D01*
X017208Y011645D01*
X017273Y011440D01*
X017333Y011234D01*
X017388Y011026D01*
X017437Y010817D01*
X017482Y010607D01*
X017521Y010396D01*
X017555Y010184D01*
X017584Y009971D01*
X017608Y009758D01*
X017626Y009544D01*
X017639Y009329D01*
X017647Y009115D01*
X017650Y008900D01*
X017647Y008685D01*
X017639Y008471D01*
X017626Y008256D01*
X017608Y008042D01*
X017584Y007829D01*
X017555Y007616D01*
X017521Y007404D01*
X017482Y007193D01*
X017437Y006983D01*
X017388Y006774D01*
X017333Y006566D01*
X017273Y006360D01*
X017208Y006155D01*
X017139Y005952D01*
X017064Y005751D01*
X016984Y005552D01*
X016899Y005354D01*
X016810Y005159D01*
X016716Y004966D01*
X016617Y004775D01*
X016513Y004587D01*
X016405Y004402D01*
X016292Y004219D01*
X016175Y004039D01*
X016054Y003862D01*
X015928Y003688D01*
X015798Y003517D01*
X015664Y003349D01*
X015526Y003185D01*
X015383Y003024D01*
X015237Y002867D01*
X015087Y002713D01*
X014933Y002563D01*
X014776Y002417D01*
X014615Y002274D01*
X014451Y002136D01*
X014283Y002002D01*
X014112Y001872D01*
X013938Y001746D01*
X013761Y001625D01*
X013581Y001508D01*
X013398Y001395D01*
X013213Y001287D01*
X013025Y001183D01*
X012834Y001084D01*
X012641Y000990D01*
X012446Y000901D01*
X012248Y000816D01*
X012049Y000736D01*
X011848Y000661D01*
X011645Y000592D01*
X011440Y000527D01*
X011234Y000467D01*
X011026Y000412D01*
X010817Y000363D01*
X010607Y000318D01*
X010396Y000279D01*
X010184Y000245D01*
X009971Y000216D01*
X009758Y000192D01*
X009544Y000174D01*
X009329Y000161D01*
X009115Y000153D01*
X008900Y000150D01*
X008685Y000153D01*
X008471Y000161D01*
X008256Y000174D01*
X008042Y000192D01*
X007829Y000216D01*
X007616Y000245D01*
X007404Y000279D01*
X007193Y000318D01*
X006983Y000363D01*
X006774Y000412D01*
X006566Y000467D01*
X006360Y000527D01*
X006155Y000592D01*
X005952Y000661D01*
X005751Y000736D01*
X005552Y000816D01*
X005354Y000901D01*
X005159Y000990D01*
X004966Y001084D01*
X004775Y001183D01*
X004587Y001287D01*
X004402Y001395D01*
X004219Y001508D01*
X004039Y001625D01*
X003862Y001746D01*
X003688Y001872D01*
X003517Y002002D01*
X003349Y002136D01*
X003185Y002274D01*
X003024Y002417D01*
X002867Y002563D01*
X002713Y002713D01*
X002563Y002867D01*
X002417Y003024D01*
X002274Y003185D01*
X002136Y003349D01*
X002002Y003517D01*
X001872Y003688D01*
X001746Y003862D01*
X001625Y004039D01*
X001508Y004219D01*
X001395Y004402D01*
X001287Y004587D01*
X001183Y004775D01*
X001084Y004966D01*
X000990Y005159D01*
X000901Y005354D01*
X000816Y005552D01*
X000736Y005751D01*
X000661Y005952D01*
X000592Y006155D01*
X000527Y006360D01*
X000467Y006566D01*
X000412Y006774D01*
X000363Y006983D01*
X000318Y007193D01*
X000279Y007404D01*
X000245Y007616D01*
X000216Y007829D01*
X000192Y008042D01*
X000174Y008256D01*
X000161Y008471D01*
X000153Y008685D01*
X000150Y008900D01*
D11*
G36*
X002172Y006626D02*
X001872Y007351D01*
X002270Y007516D01*
X002570Y006791D01*
X002172Y006626D01*
G37*
G36*
X003558Y004228D02*
X003003Y004783D01*
X003308Y005088D01*
X003863Y004533D01*
X003558Y004228D01*
G37*
G36*
X005751Y002534D02*
X005026Y002834D01*
X005191Y003232D01*
X005916Y002932D01*
X005751Y002534D01*
G37*
X008034Y002030D03*
G36*
X011174Y002172D02*
X010449Y001872D01*
X010284Y002270D01*
X011009Y002570D01*
X011174Y002172D01*
G37*
G36*
X013572Y003558D02*
X013017Y003003D01*
X012712Y003308D01*
X013267Y003863D01*
X013572Y003558D01*
G37*
G36*
X015266Y005751D02*
X014966Y005026D01*
X014568Y005191D01*
X014868Y005916D01*
X015266Y005751D01*
G37*
G36*
X015628Y011174D02*
X015928Y010449D01*
X015530Y010284D01*
X015230Y011009D01*
X015628Y011174D01*
G37*
G36*
X014242Y013572D02*
X014797Y013017D01*
X014492Y012712D01*
X013937Y013267D01*
X014242Y013572D01*
G37*
G36*
X012049Y015266D02*
X012774Y014966D01*
X012609Y014568D01*
X011884Y014868D01*
X012049Y015266D01*
G37*
X009766Y015770D03*
G36*
X006626Y015628D02*
X007351Y015928D01*
X007516Y015530D01*
X006791Y015230D01*
X006626Y015628D01*
G37*
G36*
X004228Y014242D02*
X004783Y014797D01*
X005088Y014492D01*
X004533Y013937D01*
X004228Y014242D01*
G37*
G36*
X002534Y012049D02*
X002834Y012774D01*
X003232Y012609D01*
X002932Y011884D01*
X002534Y012049D01*
G37*
D12*
G36*
X001384Y012567D02*
X001655Y013220D01*
X002054Y013055D01*
X001783Y012402D01*
X001384Y012567D01*
G37*
G36*
X000722Y010967D02*
X000993Y011620D01*
X001392Y011455D01*
X001121Y010802D01*
X000722Y010967D01*
G37*
G36*
X001886Y010485D02*
X002157Y011138D01*
X002556Y010973D01*
X002285Y010320D01*
X001886Y010485D01*
G37*
G36*
X003030Y013045D02*
X003530Y013545D01*
X003836Y013239D01*
X003336Y012739D01*
X003030Y013045D01*
G37*
G36*
X002139Y013936D02*
X002639Y014436D01*
X002945Y014130D01*
X002445Y013630D01*
X002139Y013936D01*
G37*
G36*
X003364Y015161D02*
X003864Y015661D01*
X004170Y015355D01*
X003670Y014855D01*
X003364Y015161D01*
G37*
G36*
X004580Y016145D02*
X005233Y016416D01*
X005398Y016017D01*
X004745Y015746D01*
X004580Y016145D01*
G37*
G36*
X005062Y014981D02*
X005715Y015252D01*
X005880Y014853D01*
X005227Y014582D01*
X005062Y014981D01*
G37*
G36*
X006180Y016807D02*
X006833Y017078D01*
X006998Y016679D01*
X006345Y016408D01*
X006180Y016807D01*
G37*
X008034Y017030D03*
X008034Y015770D03*
X009766Y017030D03*
G36*
X010967Y017078D02*
X011620Y016807D01*
X011455Y016408D01*
X010802Y016679D01*
X010967Y017078D01*
G37*
G36*
X010485Y015914D02*
X011138Y015643D01*
X010973Y015244D01*
X010320Y015515D01*
X010485Y015914D01*
G37*
G36*
X012567Y016416D02*
X013220Y016145D01*
X013055Y015746D01*
X012402Y016017D01*
X012567Y016416D01*
G37*
G36*
X013936Y015661D02*
X014436Y015161D01*
X014130Y014855D01*
X013630Y015355D01*
X013936Y015661D01*
G37*
G36*
X013045Y014770D02*
X013545Y014270D01*
X013239Y013964D01*
X012739Y014464D01*
X013045Y014770D01*
G37*
G36*
X015161Y014436D02*
X015661Y013936D01*
X015355Y013630D01*
X014855Y014130D01*
X015161Y014436D01*
G37*
G36*
X016145Y013220D02*
X016416Y012567D01*
X016017Y012402D01*
X015746Y013055D01*
X016145Y013220D01*
G37*
G36*
X014981Y012738D02*
X015252Y012085D01*
X014853Y011920D01*
X014582Y012573D01*
X014981Y012738D01*
G37*
G36*
X016807Y011620D02*
X017078Y010967D01*
X016679Y010802D01*
X016408Y011455D01*
X016807Y011620D01*
G37*
G36*
X015914Y007315D02*
X015643Y006662D01*
X015244Y006827D01*
X015515Y007480D01*
X015914Y007315D01*
G37*
G36*
X017078Y006833D02*
X016807Y006180D01*
X016408Y006345D01*
X016679Y006998D01*
X017078Y006833D01*
G37*
G36*
X016416Y005233D02*
X016145Y004580D01*
X015746Y004745D01*
X016017Y005398D01*
X016416Y005233D01*
G37*
G36*
X015661Y003864D02*
X015161Y003364D01*
X014855Y003670D01*
X015355Y004170D01*
X015661Y003864D01*
G37*
G36*
X014770Y004755D02*
X014270Y004255D01*
X013964Y004561D01*
X014464Y005061D01*
X014770Y004755D01*
G37*
G36*
X014436Y002639D02*
X013936Y002139D01*
X013630Y002445D01*
X014130Y002945D01*
X014436Y002639D01*
G37*
G36*
X013220Y001655D02*
X012567Y001384D01*
X012402Y001783D01*
X013055Y002054D01*
X013220Y001655D01*
G37*
G36*
X012738Y002819D02*
X012085Y002548D01*
X011920Y002947D01*
X012573Y003218D01*
X012738Y002819D01*
G37*
G36*
X011620Y000993D02*
X010967Y000722D01*
X010802Y001121D01*
X011455Y001392D01*
X011620Y000993D01*
G37*
X009766Y000770D03*
X009766Y002030D03*
X008034Y000770D03*
G36*
X006833Y000722D02*
X006180Y000993D01*
X006345Y001392D01*
X006998Y001121D01*
X006833Y000722D01*
G37*
G36*
X007315Y001886D02*
X006662Y002157D01*
X006827Y002556D01*
X007480Y002285D01*
X007315Y001886D01*
G37*
G36*
X005233Y001384D02*
X004580Y001655D01*
X004745Y002054D01*
X005398Y001783D01*
X005233Y001384D01*
G37*
G36*
X003864Y002139D02*
X003364Y002639D01*
X003670Y002945D01*
X004170Y002445D01*
X003864Y002139D01*
G37*
G36*
X004755Y003030D02*
X004255Y003530D01*
X004561Y003836D01*
X005061Y003336D01*
X004755Y003030D01*
G37*
G36*
X002639Y003364D02*
X002139Y003864D01*
X002445Y004170D01*
X002945Y003670D01*
X002639Y003364D01*
G37*
G36*
X001655Y004580D02*
X001384Y005233D01*
X001783Y005398D01*
X002054Y004745D01*
X001655Y004580D01*
G37*
G36*
X002819Y005062D02*
X002548Y005715D01*
X002947Y005880D01*
X003218Y005227D01*
X002819Y005062D01*
G37*
G36*
X000993Y006180D02*
X000722Y006833D01*
X001121Y006998D01*
X001392Y006345D01*
X000993Y006180D01*
G37*
D13*
X002030Y009766D03*
X015770Y008034D03*
D14*
X017030Y008034D03*
X017030Y009766D03*
X015770Y009766D03*
X002030Y008034D03*
X000770Y008034D03*
X000770Y009766D03*
D15*
G36*
X001201Y010610D02*
X001470Y010556D01*
X001401Y010210D01*
X001132Y010264D01*
X001201Y010610D01*
G37*
G36*
X000699Y010710D02*
X000968Y010656D01*
X000899Y010310D01*
X000630Y010364D01*
X000699Y010710D01*
G37*
G36*
X004672Y015550D02*
X004825Y015321D01*
X004532Y015124D01*
X004379Y015353D01*
X004672Y015550D01*
G37*
G36*
X004388Y015976D02*
X004541Y015747D01*
X004248Y015550D01*
X004095Y015779D01*
X004388Y015976D01*
G37*
G36*
X010610Y016599D02*
X010556Y016330D01*
X010210Y016399D01*
X010264Y016668D01*
X010610Y016599D01*
G37*
G36*
X010710Y017101D02*
X010656Y016832D01*
X010310Y016901D01*
X010364Y017170D01*
X010710Y017101D01*
G37*
G36*
X015550Y013128D02*
X015321Y012975D01*
X015124Y013268D01*
X015353Y013421D01*
X015550Y013128D01*
G37*
G36*
X015976Y013412D02*
X015747Y013259D01*
X015550Y013552D01*
X015779Y013705D01*
X015976Y013412D01*
G37*
G36*
X016599Y007190D02*
X016330Y007244D01*
X016399Y007590D01*
X016668Y007536D01*
X016599Y007190D01*
G37*
G36*
X017101Y007090D02*
X016832Y007144D01*
X016901Y007490D01*
X017170Y007436D01*
X017101Y007090D01*
G37*
G36*
X013128Y002250D02*
X012975Y002479D01*
X013268Y002676D01*
X013421Y002447D01*
X013128Y002250D01*
G37*
G36*
X013412Y001824D02*
X013259Y002053D01*
X013552Y002250D01*
X013705Y002021D01*
X013412Y001824D01*
G37*
G36*
X007190Y001201D02*
X007244Y001470D01*
X007590Y001401D01*
X007536Y001132D01*
X007190Y001201D01*
G37*
G36*
X007090Y000699D02*
X007144Y000968D01*
X007490Y000899D01*
X007436Y000630D01*
X007090Y000699D01*
G37*
G36*
X002250Y004672D02*
X002479Y004825D01*
X002676Y004532D01*
X002447Y004379D01*
X002250Y004672D01*
G37*
G36*
X001824Y004388D02*
X002053Y004541D01*
X002250Y004248D01*
X002021Y004095D01*
X001824Y004388D01*
G37*
D16*
X004570Y002430D03*
X010420Y001260D03*
X013230Y015370D03*
X007380Y016540D03*
D17*
X002081Y003668D02*
X002822Y002822D01*
X003668Y002081D01*
X004602Y001457D01*
X005611Y000959D01*
X006675Y000598D01*
X007778Y000379D01*
X008900Y000305D01*
X010022Y000379D01*
X011125Y000598D01*
X012189Y000959D01*
X013198Y001457D01*
X014132Y002081D01*
X014978Y002822D01*
X015719Y003668D01*
X016343Y004602D01*
X016841Y005611D01*
X017202Y006675D01*
X017421Y007778D01*
X017421Y007778D01*
X017495Y008900D01*
X017421Y010022D01*
X017202Y011125D01*
X016841Y012189D01*
X016343Y013198D01*
X015719Y014132D01*
X014978Y014978D01*
X014132Y015719D01*
X013198Y016343D01*
X012189Y016841D01*
X011125Y017202D01*
X010022Y017421D01*
X008900Y017495D01*
X007778Y017421D01*
X006675Y017202D01*
X005611Y016841D01*
X004602Y016343D01*
X003668Y015719D01*
X002822Y014978D01*
X002081Y014132D01*
X001457Y013198D01*
X000959Y012189D01*
X000598Y011125D01*
X000379Y010022D01*
X000305Y008900D01*
X000379Y007778D01*
X000598Y006675D01*
X000959Y005611D01*
X001457Y004603D01*
X002081Y003668D01*
X002062Y003696D02*
X002123Y003696D01*
X002143Y003598D02*
X002222Y003598D01*
X002229Y003499D02*
X002320Y003499D01*
X002315Y003401D02*
X002419Y003401D01*
X002402Y003302D02*
X002517Y003302D01*
X002586Y003233D02*
X002693Y003233D01*
X002750Y003290D01*
X002798Y003240D01*
X002798Y003121D01*
X002844Y003009D01*
X002930Y002923D01*
X003042Y002876D01*
X003163Y002876D01*
X003276Y002923D01*
X003361Y003009D01*
X003408Y003121D01*
X003408Y003242D01*
X003361Y003354D01*
X003276Y003440D01*
X003163Y003486D01*
X003060Y003486D01*
X003004Y003544D01*
X003076Y003616D01*
X003076Y003723D01*
X002525Y004274D01*
X002532Y004279D01*
X003587Y003223D01*
X003587Y003047D01*
X003233Y002693D01*
X003233Y002586D01*
X003811Y002008D01*
X003918Y002008D01*
X004158Y002248D01*
X004189Y002175D01*
X004315Y002049D01*
X004480Y001980D01*
X004572Y001980D01*
X004438Y001655D01*
X004479Y001556D01*
X005233Y001243D01*
X005333Y001284D01*
X005368Y001369D01*
X005440Y001339D01*
X005482Y001237D01*
X005568Y001151D01*
X005680Y001105D01*
X005801Y001105D01*
X005913Y001151D01*
X005999Y001237D01*
X006046Y001349D01*
X006046Y001359D01*
X006147Y001254D01*
X006038Y000992D01*
X006079Y000893D01*
X006834Y000580D01*
X006933Y000621D01*
X006946Y000654D01*
X006954Y000631D01*
X006976Y000598D01*
X007006Y000572D01*
X007041Y000555D01*
X007216Y000520D01*
X007268Y000784D01*
X007305Y000777D01*
X007253Y000513D01*
X007428Y000478D01*
X007467Y000481D01*
X007504Y000494D01*
X007537Y000516D01*
X007550Y000530D01*
X007550Y000500D01*
X007626Y000424D01*
X008442Y000424D01*
X008518Y000500D01*
X008518Y000596D01*
X008642Y000597D01*
X008717Y000521D01*
X008829Y000475D01*
X008951Y000475D01*
X009063Y000521D01*
X009149Y000607D01*
X009195Y000719D01*
X009195Y000841D01*
X009149Y000953D01*
X009063Y001038D01*
X008951Y001085D01*
X008829Y001085D01*
X008717Y001038D01*
X008636Y000957D01*
X008518Y000956D01*
X008518Y001040D01*
X008442Y001117D01*
X007666Y001117D01*
X007667Y001121D01*
X009161Y001121D01*
X009282Y001000D01*
X009282Y000500D01*
X009358Y000424D01*
X010174Y000424D01*
X010250Y000500D01*
X010250Y000821D01*
X010310Y000802D01*
X010383Y000790D01*
X010457Y000790D01*
X010463Y000791D01*
X010381Y001201D01*
X010479Y001221D01*
X010459Y001319D01*
X010869Y001401D01*
X010856Y001440D01*
X010822Y001506D01*
X010798Y001539D01*
X011740Y001539D01*
X011701Y001445D01*
X011592Y001402D01*
X011555Y001492D01*
X011455Y001533D01*
X010890Y001299D01*
X010889Y001303D01*
X010479Y001221D01*
X010561Y000811D01*
X010600Y000824D01*
X010666Y000858D01*
X010726Y000902D01*
X010744Y000919D01*
X010867Y000621D01*
X010966Y000580D01*
X011721Y000893D01*
X011762Y000992D01*
X011730Y001069D01*
X011832Y001110D01*
X011940Y001065D01*
X012061Y001065D01*
X012173Y001112D01*
X012259Y001198D01*
X012305Y001310D01*
X012305Y001431D01*
X012261Y001539D01*
X012362Y001539D01*
X012467Y001284D01*
X012567Y001243D01*
X013321Y001556D01*
X013362Y001655D01*
X013348Y001688D01*
X013363Y001681D01*
X013402Y001673D01*
X013441Y001676D01*
X013479Y001689D01*
X013627Y001788D01*
X013477Y002011D01*
X013509Y002032D01*
X013658Y001809D01*
X013806Y001908D01*
X013832Y001937D01*
X013850Y001973D01*
X013857Y002012D01*
X013856Y002034D01*
X013882Y002008D01*
X013989Y002008D01*
X014567Y002586D01*
X014567Y002693D01*
X014504Y002756D01*
X014586Y002837D01*
X014699Y002837D01*
X014811Y002884D01*
X014897Y002969D01*
X014943Y003081D01*
X014943Y003203D01*
X014897Y003315D01*
X014811Y003401D01*
X014699Y003447D01*
X014578Y003447D01*
X014465Y003401D01*
X014380Y003315D01*
X014333Y003203D01*
X014333Y003093D01*
X014250Y003010D01*
X014184Y003076D01*
X014077Y003076D01*
X013526Y002525D01*
X013521Y002532D01*
X014577Y003587D01*
X014753Y003587D01*
X015107Y003233D01*
X015214Y003233D01*
X015792Y003811D01*
X015792Y003918D01*
X015438Y004272D01*
X015438Y005029D01*
X016105Y005696D01*
X016105Y005680D01*
X016145Y005584D01*
X016109Y005501D01*
X016016Y005540D01*
X015917Y005498D01*
X015604Y004744D01*
X015645Y004645D01*
X016145Y004438D01*
X016244Y004479D01*
X016557Y005233D01*
X016516Y005333D01*
X016441Y005364D01*
X016473Y005437D01*
X016583Y005482D01*
X016668Y005568D01*
X016715Y005680D01*
X016715Y005801D01*
X016668Y005913D01*
X016583Y005999D01*
X016471Y006046D01*
X016454Y006046D01*
X016553Y006144D01*
X016808Y006038D01*
X016907Y006079D01*
X017220Y006834D01*
X017179Y006933D01*
X017146Y006946D01*
X017169Y006954D01*
X017202Y006976D01*
X017228Y007006D01*
X017245Y007041D01*
X017280Y007216D01*
X017016Y007268D01*
X017023Y007305D01*
X017287Y007253D01*
X017322Y007428D01*
X017319Y007467D01*
X017306Y007504D01*
X017284Y007537D01*
X017270Y007550D01*
X017300Y007550D01*
X017376Y007626D01*
X017376Y008442D01*
X017300Y008518D01*
X017215Y008518D01*
X017217Y008636D01*
X017298Y008717D01*
X017345Y008829D01*
X017345Y008951D01*
X017298Y009063D01*
X017213Y009149D01*
X017100Y009195D01*
X016979Y009195D01*
X016867Y009149D01*
X016781Y009063D01*
X016735Y008951D01*
X016735Y008829D01*
X016781Y008717D01*
X016857Y008642D01*
X016855Y008518D01*
X016760Y008518D01*
X016683Y008442D01*
X016683Y007666D01*
X016679Y007667D01*
X016679Y009161D01*
X016800Y009282D01*
X017300Y009282D01*
X017376Y009358D01*
X017376Y010174D01*
X017300Y010250D01*
X016800Y010250D01*
X016261Y010790D01*
X016261Y011732D01*
X016342Y011698D01*
X016389Y011588D01*
X016308Y011555D01*
X016267Y011455D01*
X016579Y010701D01*
X016679Y010660D01*
X017179Y010867D01*
X017220Y010966D01*
X016907Y011721D01*
X016808Y011762D01*
X016721Y011726D01*
X016673Y011839D01*
X016715Y011940D01*
X016715Y012061D01*
X016668Y012173D01*
X016583Y012259D01*
X016471Y012305D01*
X016349Y012305D01*
X016261Y012269D01*
X016261Y012362D01*
X016516Y012467D01*
X016557Y012567D01*
X016244Y013321D01*
X016145Y013362D01*
X016112Y013348D01*
X016119Y013363D01*
X016127Y013402D01*
X016124Y013441D01*
X016111Y013479D01*
X016012Y013627D01*
X015789Y013477D01*
X015768Y013509D01*
X015991Y013658D01*
X015892Y013806D01*
X015863Y013832D01*
X015827Y013850D01*
X015788Y013857D01*
X015766Y013856D01*
X015792Y013882D01*
X015792Y013989D01*
X015214Y014567D01*
X015107Y014567D01*
X015045Y014505D01*
X014994Y014557D01*
X014994Y014671D01*
X014948Y014783D01*
X014862Y014869D01*
X014750Y014916D01*
X014629Y014916D01*
X014517Y014869D01*
X014431Y014783D01*
X014384Y014671D01*
X014384Y014550D01*
X014431Y014438D01*
X014517Y014352D01*
X014629Y014306D01*
X014737Y014306D01*
X014791Y014251D01*
X014724Y014184D01*
X014724Y014077D01*
X015275Y013526D01*
X015268Y013521D01*
X014213Y014577D01*
X014213Y014753D01*
X014567Y015107D01*
X014567Y015214D01*
X013989Y015792D01*
X013882Y015792D01*
X013642Y015552D01*
X013611Y015625D01*
X013485Y015751D01*
X013320Y015820D01*
X013228Y015820D01*
X013362Y016145D01*
X013321Y016244D01*
X012567Y016557D01*
X012467Y016516D01*
X012438Y016445D01*
X012423Y016451D01*
X012377Y016563D01*
X012291Y016649D01*
X012179Y016695D01*
X012058Y016695D01*
X011946Y016649D01*
X011860Y016563D01*
X011842Y016520D01*
X011625Y016479D01*
X011762Y016808D01*
X011721Y016907D01*
X010966Y017220D01*
X010867Y017179D01*
X010854Y017146D01*
X010846Y017169D01*
X010824Y017202D01*
X010794Y017228D01*
X010759Y017245D01*
X010584Y017280D01*
X010532Y017016D01*
X010495Y017023D01*
X010547Y017287D01*
X010372Y017322D01*
X010333Y017319D01*
X010296Y017306D01*
X010263Y017284D01*
X010250Y017270D01*
X010250Y017300D01*
X010174Y017376D01*
X009358Y017376D01*
X009282Y017300D01*
X009282Y017211D01*
X009217Y017211D01*
X009138Y017290D01*
X009026Y017337D01*
X008904Y017337D01*
X008792Y017290D01*
X008706Y017205D01*
X008660Y017093D01*
X008660Y016971D01*
X008706Y016859D01*
X008792Y016773D01*
X008904Y016727D01*
X009026Y016727D01*
X009138Y016773D01*
X009216Y016851D01*
X009282Y016851D01*
X009282Y016760D01*
X009358Y016683D01*
X010134Y016683D01*
X010133Y016679D01*
X008639Y016679D01*
X008518Y016800D01*
X008518Y017300D01*
X008442Y017376D01*
X007626Y017376D01*
X007550Y017300D01*
X007550Y016957D01*
X007470Y016990D01*
X007290Y016990D01*
X007125Y016921D01*
X007065Y016861D01*
X006933Y017179D01*
X006834Y017220D01*
X006079Y016907D01*
X006038Y016808D01*
X006076Y016717D01*
X005977Y016675D01*
X005880Y016715D01*
X005759Y016715D01*
X005647Y016668D01*
X005561Y016583D01*
X005514Y016471D01*
X005514Y016349D01*
X005551Y016261D01*
X005438Y016261D01*
X005333Y016516D01*
X005233Y016557D01*
X004479Y016244D01*
X004438Y016145D01*
X004452Y016112D01*
X004437Y016119D01*
X004398Y016127D01*
X004359Y016124D01*
X004321Y016111D01*
X004173Y016012D01*
X004323Y015789D01*
X004291Y015768D01*
X004142Y015991D01*
X003994Y015892D01*
X003968Y015863D01*
X003950Y015827D01*
X003943Y015788D01*
X003944Y015766D01*
X003918Y015792D01*
X003811Y015792D01*
X003233Y015214D01*
X003233Y015107D01*
X003296Y015044D01*
X003234Y014983D01*
X003121Y014983D01*
X003009Y014936D01*
X002923Y014850D01*
X002876Y014738D01*
X002876Y014617D01*
X002923Y014505D01*
X003009Y014419D01*
X003121Y014373D01*
X003242Y014373D01*
X003354Y014419D01*
X003440Y014505D01*
X003486Y014617D01*
X003486Y014726D01*
X003550Y014790D01*
X003616Y014724D01*
X003723Y014724D01*
X004274Y015275D01*
X004279Y015268D01*
X003223Y014213D01*
X003047Y014213D01*
X002693Y014567D01*
X002586Y014567D01*
X002008Y013989D01*
X002008Y013882D01*
X002362Y013528D01*
X002362Y012771D01*
X001715Y012124D01*
X001715Y012140D01*
X001673Y012240D01*
X001697Y012296D01*
X001784Y012260D01*
X001883Y012302D01*
X002196Y013056D01*
X002155Y013155D01*
X001655Y013362D01*
X001556Y013321D01*
X001243Y012567D01*
X001284Y012467D01*
X001365Y012434D01*
X001342Y012381D01*
X001237Y012338D01*
X001151Y012252D01*
X001105Y012140D01*
X001105Y012018D01*
X001151Y011906D01*
X001237Y011821D01*
X001349Y011774D01*
X001365Y011774D01*
X001247Y011656D01*
X000992Y011762D01*
X000893Y011721D01*
X000580Y010966D01*
X000621Y010867D01*
X000654Y010854D01*
X000631Y010846D01*
X000598Y010824D01*
X000572Y010794D01*
X000555Y010759D01*
X000520Y010584D01*
X000784Y010532D01*
X000777Y010495D01*
X000513Y010547D01*
X000478Y010372D01*
X000481Y010333D01*
X000494Y010296D01*
X000516Y010263D01*
X000530Y010250D01*
X000500Y010250D01*
X000424Y010174D01*
X000424Y009358D01*
X000500Y009282D01*
X000596Y009282D01*
X000597Y009217D01*
X000521Y009142D01*
X000475Y009030D01*
X000475Y008908D01*
X000521Y008796D01*
X000607Y008710D01*
X000719Y008664D01*
X000841Y008664D01*
X000953Y008710D01*
X001038Y008796D01*
X001085Y008908D01*
X001085Y009030D01*
X001038Y009142D01*
X000957Y009223D01*
X000956Y009282D01*
X001040Y009282D01*
X001117Y009358D01*
X001117Y010134D01*
X001121Y010133D01*
X001121Y008639D01*
X001000Y008518D01*
X000500Y008518D01*
X000424Y008442D01*
X000424Y007626D01*
X000500Y007550D01*
X001000Y007550D01*
X001539Y007010D01*
X001539Y006079D01*
X001442Y006120D01*
X001406Y006210D01*
X001492Y006245D01*
X001533Y006345D01*
X001221Y007099D01*
X001121Y007140D01*
X000621Y006933D01*
X000580Y006834D01*
X000893Y006079D01*
X000992Y006038D01*
X001073Y006072D01*
X001109Y005984D01*
X001065Y005880D01*
X001065Y005759D01*
X001112Y005647D01*
X001198Y005561D01*
X001310Y005514D01*
X001431Y005514D01*
X001539Y005559D01*
X001539Y005438D01*
X001284Y005333D01*
X001243Y005233D01*
X001556Y004479D01*
X001655Y004438D01*
X001688Y004452D01*
X001681Y004437D01*
X001673Y004398D01*
X001676Y004359D01*
X001689Y004321D01*
X001788Y004173D01*
X002011Y004323D01*
X002032Y004291D01*
X001809Y004142D01*
X001908Y003994D01*
X001937Y003968D01*
X001973Y003950D01*
X002012Y003943D01*
X002034Y003944D01*
X002008Y003918D01*
X002008Y003811D01*
X002586Y003233D01*
X002488Y003204D02*
X002798Y003204D01*
X002804Y003105D02*
X002575Y003105D01*
X002661Y003007D02*
X002846Y003007D01*
X002747Y002908D02*
X002966Y002908D01*
X002837Y002810D02*
X003349Y002810D01*
X003448Y002908D02*
X003239Y002908D01*
X003359Y003007D02*
X003546Y003007D01*
X003587Y003105D02*
X003401Y003105D01*
X003408Y003204D02*
X003587Y003204D01*
X003508Y003302D02*
X003383Y003302D01*
X003410Y003401D02*
X003315Y003401D01*
X003311Y003499D02*
X003048Y003499D01*
X003058Y003598D02*
X003213Y003598D01*
X003114Y003696D02*
X003076Y003696D01*
X003016Y003795D02*
X003005Y003795D01*
X002917Y003893D02*
X002906Y003893D01*
X002819Y003992D02*
X002808Y003992D01*
X002720Y004090D02*
X002709Y004090D01*
X002622Y004189D02*
X002611Y004189D01*
X002836Y004484D02*
X003088Y004484D01*
X003138Y004434D02*
X002881Y004691D01*
X002862Y004725D01*
X002851Y004763D01*
X002851Y004803D01*
X002862Y004841D01*
X002881Y004875D01*
X003002Y004996D01*
X002819Y004920D01*
X002719Y004961D01*
X002407Y005715D01*
X002448Y005815D01*
X002539Y005853D01*
X002515Y005914D01*
X002418Y005954D01*
X002332Y006040D01*
X002286Y006152D01*
X002286Y006274D01*
X002332Y006386D01*
X002418Y006472D01*
X002530Y006518D01*
X002652Y006518D01*
X002764Y006472D01*
X002850Y006386D01*
X002896Y006274D01*
X002896Y006152D01*
X002851Y006044D01*
X002872Y005990D01*
X002948Y006022D01*
X003047Y005981D01*
X003358Y005231D01*
X003366Y005229D01*
X003400Y005209D01*
X003657Y004952D01*
X003433Y004729D01*
X003504Y004658D01*
X003727Y004882D01*
X003984Y004625D01*
X004004Y004590D01*
X004014Y004552D01*
X004014Y004513D01*
X004004Y004475D01*
X003984Y004440D01*
X003853Y004309D01*
X003504Y004658D01*
X003433Y004587D01*
X003782Y004238D01*
X003650Y004106D01*
X003616Y004087D01*
X003578Y004076D01*
X003538Y004076D01*
X003500Y004087D01*
X003466Y004106D01*
X003209Y004363D01*
X003433Y004587D01*
X003362Y004658D01*
X003138Y004434D01*
X003188Y004484D02*
X003330Y004484D01*
X003287Y004583D02*
X003428Y004583D01*
X003438Y004583D02*
X003579Y004583D01*
X003536Y004484D02*
X003678Y004484D01*
X003635Y004386D02*
X003776Y004386D01*
X003733Y004287D02*
X004002Y004287D01*
X003954Y004267D02*
X004066Y004313D01*
X004187Y004313D01*
X004299Y004267D01*
X004385Y004181D01*
X004431Y004069D01*
X004431Y003948D01*
X004430Y003945D01*
X004456Y003916D01*
X004507Y003967D01*
X004614Y003967D01*
X005192Y003389D01*
X005192Y003385D01*
X005229Y003380D01*
X005565Y003241D01*
X005444Y002949D01*
X005536Y002910D01*
X005992Y002722D01*
X005955Y002633D01*
X005955Y002512D01*
X006002Y002399D01*
X006088Y002314D01*
X006200Y002267D01*
X006321Y002267D01*
X006418Y002307D01*
X006558Y002247D01*
X006520Y002156D01*
X006562Y002057D01*
X007316Y001744D01*
X007415Y001785D01*
X007490Y001966D01*
X007490Y001794D01*
X007500Y001755D01*
X007520Y001721D01*
X007548Y001693D01*
X007582Y001674D01*
X007620Y001663D01*
X007984Y001663D01*
X007984Y001980D01*
X008084Y001980D01*
X008084Y002080D01*
X008578Y002080D01*
X008578Y002266D01*
X008567Y002304D01*
X008548Y002339D01*
X008520Y002366D01*
X008485Y002386D01*
X008447Y002396D01*
X008084Y002396D01*
X008084Y002080D01*
X007984Y002080D01*
X007984Y002396D01*
X007620Y002396D01*
X007582Y002386D01*
X007580Y002385D01*
X006827Y002697D01*
X006727Y002656D01*
X006696Y002580D01*
X006564Y002637D01*
X006519Y002745D01*
X006433Y002831D01*
X006321Y002877D01*
X006200Y002877D01*
X006088Y002831D01*
X006002Y002745D01*
X006064Y002894D01*
X006069Y002933D01*
X006064Y002972D01*
X006048Y003008D01*
X006024Y003040D01*
X005993Y003064D01*
X005657Y003203D01*
X005536Y002910D01*
X005498Y002818D01*
X005954Y002629D01*
X005883Y002457D01*
X005859Y002426D01*
X005827Y002402D01*
X005791Y002387D01*
X005752Y002381D01*
X005713Y002387D01*
X005459Y002492D01*
X005496Y002443D01*
X006401Y001510D01*
X006674Y001396D01*
X006759Y001481D01*
X007112Y001481D01*
X007126Y001549D01*
X007215Y001609D01*
X007668Y001519D01*
X007694Y001481D01*
X009310Y001481D01*
X009415Y001376D01*
X009520Y001271D01*
X009933Y001683D01*
X009358Y001683D01*
X009282Y001760D01*
X009282Y001856D01*
X009178Y001857D01*
X009102Y001781D01*
X008990Y001735D01*
X008869Y001735D01*
X008757Y001781D01*
X008671Y001867D01*
X008625Y001979D01*
X008625Y002100D01*
X008671Y002213D01*
X008757Y002298D01*
X008869Y002345D01*
X008990Y002345D01*
X009102Y002298D01*
X009184Y002217D01*
X009282Y002216D01*
X009282Y002300D01*
X009358Y002376D01*
X010174Y002376D01*
X010175Y002376D01*
X010175Y002377D01*
X010206Y002401D01*
X010542Y002540D01*
X010663Y002248D01*
X010756Y002286D01*
X011212Y002475D01*
X011141Y002647D01*
X011117Y002678D01*
X011085Y002702D01*
X011049Y002717D01*
X011010Y002723D01*
X010970Y002717D01*
X010635Y002578D01*
X010756Y002286D01*
X010794Y002193D01*
X010915Y001901D01*
X011251Y002040D01*
X011282Y002064D01*
X011306Y002095D01*
X011321Y002132D01*
X011327Y002171D01*
X011321Y002210D01*
X011250Y002382D01*
X010794Y002193D01*
X010702Y002155D01*
X010808Y001899D01*
X012340Y001899D01*
X012631Y002020D01*
X012631Y002151D01*
X012874Y002394D01*
X012836Y002451D01*
X012857Y002557D01*
X013241Y002814D01*
X013285Y002805D01*
X014427Y003947D01*
X014948Y003947D01*
X015078Y004077D01*
X015078Y004924D01*
X015073Y004917D01*
X015042Y004893D01*
X015005Y004878D01*
X014966Y004873D01*
X014927Y004878D01*
X014765Y004945D01*
X014901Y004809D01*
X014901Y004701D01*
X014323Y004124D01*
X014216Y004124D01*
X014156Y004184D01*
X014038Y004063D01*
X014038Y003948D01*
X013991Y003835D01*
X013905Y003750D01*
X013793Y003703D01*
X013672Y003703D01*
X013619Y003725D01*
X013694Y003650D01*
X013713Y003616D01*
X013724Y003578D01*
X013724Y003538D01*
X013713Y003500D01*
X013694Y003466D01*
X013437Y003209D01*
X013213Y003433D01*
X013142Y003362D01*
X013366Y003138D01*
X013109Y002881D01*
X013075Y002862D01*
X013037Y002851D01*
X012997Y002851D01*
X012959Y002862D01*
X012925Y002881D01*
X012804Y003002D01*
X012880Y002819D01*
X012839Y002719D01*
X012085Y002407D01*
X011985Y002448D01*
X011946Y002543D01*
X011865Y002512D01*
X011826Y002418D01*
X011740Y002332D01*
X011628Y002286D01*
X011507Y002286D01*
X011395Y002332D01*
X011309Y002418D01*
X011262Y002530D01*
X011262Y002652D01*
X011309Y002764D01*
X011395Y002850D01*
X011507Y002896D01*
X011628Y002896D01*
X011739Y002850D01*
X011808Y002876D01*
X011778Y002948D01*
X011819Y003047D01*
X012569Y003358D01*
X012571Y003366D01*
X012591Y003400D01*
X012848Y003657D01*
X013071Y003433D01*
X013142Y003504D01*
X012918Y003727D01*
X013175Y003984D01*
X013209Y004004D01*
X013248Y004014D01*
X013287Y004014D01*
X013325Y004004D01*
X013359Y003984D01*
X013450Y003894D01*
X013428Y003948D01*
X013428Y004069D01*
X013474Y004181D01*
X013560Y004267D01*
X013672Y004313D01*
X013779Y004313D01*
X013901Y004439D01*
X013833Y004507D01*
X013833Y004614D01*
X014411Y005192D01*
X014415Y005192D01*
X014420Y005229D01*
X014559Y005565D01*
X014851Y005444D01*
X014890Y005536D01*
X015078Y005992D01*
X014906Y006064D01*
X014867Y006069D01*
X014828Y006064D01*
X014792Y006048D01*
X014760Y006024D01*
X014736Y005993D01*
X014597Y005657D01*
X014890Y005536D01*
X014982Y005498D01*
X015171Y005954D01*
X015343Y005883D01*
X015374Y005859D01*
X015398Y005827D01*
X015413Y005791D01*
X015419Y005752D01*
X015413Y005713D01*
X015274Y005377D01*
X014982Y005498D01*
X014944Y005406D01*
X015199Y005300D01*
X016283Y006383D01*
X016404Y006674D01*
X016319Y006759D01*
X016319Y007112D01*
X016251Y007126D01*
X016191Y007215D01*
X016281Y007668D01*
X016319Y007694D01*
X016319Y009310D01*
X016424Y009415D01*
X016683Y009674D01*
X016683Y009858D01*
X016080Y010462D01*
X016081Y010448D01*
X016076Y010409D01*
X016061Y010372D01*
X016037Y010341D01*
X016006Y010317D01*
X015846Y010250D01*
X016040Y010250D01*
X016117Y010174D01*
X016117Y009358D01*
X016040Y009282D01*
X015950Y009282D01*
X015950Y009181D01*
X016029Y009102D01*
X016075Y008990D01*
X016075Y008869D01*
X016029Y008757D01*
X015943Y008671D01*
X015831Y008625D01*
X015709Y008625D01*
X015597Y008671D01*
X015512Y008757D01*
X015465Y008869D01*
X015465Y008990D01*
X015512Y009102D01*
X015590Y009181D01*
X015590Y009282D01*
X015500Y009282D01*
X015424Y009358D01*
X015424Y010174D01*
X015424Y010175D01*
X015423Y010175D01*
X015399Y010206D01*
X015260Y010542D01*
X015552Y010663D01*
X015514Y010756D01*
X015325Y011212D01*
X015153Y011141D01*
X015122Y011117D01*
X015098Y011085D01*
X015083Y011049D01*
X015077Y011010D01*
X015083Y010970D01*
X015222Y010635D01*
X015514Y010756D01*
X015607Y010794D01*
X015899Y010915D01*
X015760Y011251D01*
X015736Y011282D01*
X015705Y011306D01*
X015668Y011321D01*
X015629Y011327D01*
X015590Y011321D01*
X015418Y011250D01*
X015607Y010794D01*
X015645Y010702D01*
X015901Y010808D01*
X015901Y012340D01*
X015780Y012631D01*
X015649Y012631D01*
X015406Y012874D01*
X015349Y012836D01*
X015243Y012857D01*
X014986Y013241D01*
X014995Y013285D01*
X013958Y014322D01*
X013853Y014427D01*
X013853Y014948D01*
X013633Y015168D01*
X013611Y015115D01*
X013485Y014989D01*
X013320Y014920D01*
X013140Y014920D01*
X012975Y014989D01*
X012849Y015115D01*
X012780Y015280D01*
X012780Y015460D01*
X012849Y015625D01*
X012895Y015671D01*
X012302Y015917D01*
X012260Y016016D01*
X012300Y016112D01*
X012273Y016124D01*
X012179Y016085D01*
X012058Y016085D01*
X011946Y016132D01*
X011910Y016167D01*
X011371Y016063D01*
X011353Y016021D01*
X011268Y015935D01*
X011156Y015888D01*
X011034Y015888D01*
X010922Y015935D01*
X010836Y016021D01*
X010790Y016133D01*
X010790Y016254D01*
X010817Y016319D01*
X010688Y016319D01*
X010674Y016251D01*
X010585Y016191D01*
X010132Y016281D01*
X010106Y016319D01*
X008490Y016319D01*
X008385Y016424D01*
X008385Y016424D01*
X008280Y016529D01*
X007867Y016117D01*
X008442Y016117D01*
X008518Y016040D01*
X008518Y015960D01*
X008639Y015960D01*
X008717Y016038D01*
X008829Y016085D01*
X008951Y016085D01*
X009063Y016038D01*
X009149Y015953D01*
X009195Y015841D01*
X009195Y015719D01*
X009149Y015607D01*
X009063Y015521D01*
X008951Y015475D01*
X008829Y015475D01*
X008717Y015521D01*
X008639Y015600D01*
X008518Y015600D01*
X008518Y015500D01*
X008442Y015424D01*
X007626Y015424D01*
X007625Y015424D01*
X007625Y015423D01*
X007594Y015399D01*
X007258Y015260D01*
X007137Y015552D01*
X007044Y015514D01*
X007165Y015222D01*
X006830Y015083D01*
X006790Y015077D01*
X006751Y015083D01*
X006715Y015098D01*
X006683Y015122D01*
X006561Y015122D01*
X006550Y015095D02*
X006597Y015207D01*
X006597Y015304D01*
X006659Y015153D01*
X006683Y015122D01*
X006631Y015221D02*
X006597Y015221D01*
X006550Y015095D02*
X006465Y015010D01*
X006352Y014963D01*
X006231Y014963D01*
X006132Y015004D01*
X005985Y014941D01*
X006022Y014852D01*
X005981Y014753D01*
X005231Y014442D01*
X005229Y014434D01*
X005209Y014400D01*
X004952Y014143D01*
X004729Y014367D01*
X004658Y014296D01*
X004882Y014073D01*
X004625Y013816D01*
X004590Y013796D01*
X004552Y013786D01*
X004513Y013786D01*
X004475Y013796D01*
X004440Y013816D01*
X004309Y013947D01*
X004658Y014296D01*
X004587Y014367D01*
X004238Y014018D01*
X004106Y014150D01*
X004087Y014184D01*
X004076Y014222D01*
X004076Y014262D01*
X004087Y014300D01*
X004106Y014334D01*
X004363Y014591D01*
X004587Y014367D01*
X004658Y014438D01*
X004434Y014662D01*
X004691Y014919D01*
X004725Y014938D01*
X004763Y014949D01*
X004803Y014949D01*
X004841Y014938D01*
X004875Y014919D01*
X004996Y014798D01*
X004920Y014981D01*
X004961Y015081D01*
X005715Y015393D01*
X005815Y015352D01*
X005847Y015274D01*
X005989Y015334D01*
X006033Y015441D01*
X006119Y015527D01*
X006231Y015573D01*
X006352Y015573D01*
X006465Y015527D01*
X006533Y015458D01*
X006479Y015590D01*
X006473Y015629D01*
X006479Y015668D01*
X006494Y015705D01*
X006518Y015736D01*
X006549Y015760D01*
X006885Y015899D01*
X007006Y015607D01*
X007098Y015645D01*
X006992Y015901D01*
X005460Y015901D01*
X005169Y015780D01*
X005169Y015649D01*
X004926Y015406D01*
X004964Y015349D01*
X004943Y015243D01*
X004559Y014986D01*
X004515Y014995D01*
X003373Y013853D01*
X002852Y013853D01*
X002722Y013723D01*
X002722Y012876D01*
X002727Y012883D01*
X002758Y012907D01*
X002795Y012922D01*
X002834Y012927D01*
X002873Y012922D01*
X003035Y012855D01*
X002899Y012991D01*
X002899Y013099D01*
X003477Y013676D01*
X003584Y013676D01*
X003665Y013595D01*
X003782Y013700D01*
X003782Y013793D01*
X003828Y013905D01*
X003914Y013991D01*
X004026Y014038D01*
X004148Y014038D01*
X004260Y013991D01*
X004346Y013905D01*
X004392Y013793D01*
X004392Y013672D01*
X004346Y013560D01*
X004260Y013474D01*
X004148Y013428D01*
X004026Y013428D01*
X004020Y013430D01*
X003920Y013340D01*
X003967Y013293D01*
X003967Y013186D01*
X003389Y012608D01*
X003385Y012608D01*
X003380Y012571D01*
X003241Y012235D01*
X002949Y012356D01*
X002910Y012264D01*
X002722Y011808D01*
X002894Y011736D01*
X002933Y011731D01*
X002972Y011736D01*
X003008Y011752D01*
X003040Y011776D01*
X003064Y011807D01*
X003203Y012143D01*
X002910Y012264D01*
X002818Y012302D01*
X002629Y011846D01*
X002457Y011917D01*
X002426Y011941D01*
X002402Y011973D01*
X002387Y012009D01*
X002381Y012048D01*
X002387Y012087D01*
X002526Y012423D01*
X002818Y012302D01*
X002856Y012394D01*
X002601Y012500D01*
X001517Y011417D01*
X001396Y011126D01*
X001481Y011041D01*
X001481Y010688D01*
X001549Y010674D01*
X001609Y010585D01*
X001519Y010132D01*
X001481Y010106D01*
X001481Y008490D01*
X001376Y008385D01*
X001117Y008126D01*
X001117Y007942D01*
X001720Y007338D01*
X001719Y007352D01*
X001724Y007391D01*
X001739Y007428D01*
X001763Y007459D01*
X001794Y007483D01*
X001954Y007550D01*
X001760Y007550D01*
X001683Y007626D01*
X001683Y008442D01*
X001760Y008518D01*
X001855Y008518D01*
X001857Y008642D01*
X001781Y008717D01*
X001735Y008829D01*
X001735Y008951D01*
X001781Y009063D01*
X001867Y009149D01*
X001979Y009195D01*
X002100Y009195D01*
X002213Y009149D01*
X002298Y009063D01*
X002345Y008951D01*
X002345Y008829D01*
X002298Y008717D01*
X002217Y008636D01*
X002215Y008518D01*
X002300Y008518D01*
X002376Y008442D01*
X002376Y007626D01*
X002376Y007625D01*
X002377Y007625D01*
X002401Y007594D01*
X002540Y007258D01*
X002248Y007137D01*
X002286Y007044D01*
X002475Y006588D01*
X002647Y006659D01*
X002678Y006683D01*
X002702Y006715D01*
X002717Y006751D01*
X002723Y006790D01*
X002717Y006830D01*
X002578Y007165D01*
X002286Y007044D01*
X002193Y007006D01*
X001901Y006885D01*
X002040Y006549D01*
X002064Y006518D01*
X002095Y006494D01*
X002132Y006479D01*
X002171Y006473D01*
X002210Y006479D01*
X002382Y006550D01*
X002193Y007006D01*
X002155Y007098D01*
X001899Y006992D01*
X001899Y005460D01*
X002020Y005169D01*
X002151Y005169D01*
X002256Y005063D01*
X002394Y004926D01*
X002451Y004964D01*
X002557Y004943D01*
X002814Y004559D01*
X002805Y004515D01*
X003947Y003373D01*
X003947Y002852D01*
X004125Y002674D01*
X004181Y002666D01*
X004189Y002685D01*
X004315Y002811D01*
X004480Y002880D01*
X004660Y002880D01*
X004825Y002811D01*
X004951Y002685D01*
X005006Y002554D01*
X005373Y002505D01*
X005428Y002505D01*
X005377Y002526D01*
X005498Y002818D01*
X005406Y002856D01*
X005284Y002564D01*
X004949Y002703D01*
X004917Y002727D01*
X004893Y002758D01*
X004878Y002795D01*
X004873Y002834D01*
X004878Y002873D01*
X004945Y003035D01*
X004809Y002899D01*
X004701Y002899D01*
X004124Y003477D01*
X004124Y003584D01*
X004202Y003662D01*
X004163Y003703D01*
X004066Y003703D01*
X003954Y003750D01*
X003868Y003835D01*
X003821Y003948D01*
X003821Y004069D01*
X003868Y004181D01*
X003954Y004267D01*
X003875Y004189D02*
X003733Y004189D01*
X003830Y004090D02*
X003622Y004090D01*
X003494Y004090D02*
X003230Y004090D01*
X003328Y003992D02*
X003821Y003992D01*
X003844Y003893D02*
X003427Y003893D01*
X003525Y003795D02*
X003909Y003795D01*
X003722Y003598D02*
X004137Y003598D01*
X004124Y003499D02*
X003821Y003499D01*
X003919Y003401D02*
X004200Y003401D01*
X004299Y003302D02*
X003947Y003302D01*
X003947Y003204D02*
X004397Y003204D01*
X004496Y003105D02*
X003947Y003105D01*
X003947Y003007D02*
X004594Y003007D01*
X004693Y002908D02*
X003947Y002908D01*
X003990Y002810D02*
X004313Y002810D01*
X004215Y002711D02*
X004088Y002711D01*
X003767Y002542D02*
X004570Y002430D01*
X005360Y002326D01*
X006589Y001057D01*
X006834Y001301D01*
X007390Y001301D01*
X009235Y001301D01*
X009520Y001016D01*
X010223Y001719D01*
X012811Y001719D01*
X012811Y002076D01*
X013198Y002463D01*
X014502Y003767D01*
X015258Y003767D01*
X015258Y005104D01*
X016743Y006589D01*
X016499Y006834D01*
X016499Y007390D01*
X016499Y009235D01*
X017030Y009766D01*
X016081Y010716D01*
X016081Y012811D01*
X015724Y012811D01*
X015337Y013198D01*
X014033Y014502D01*
X014033Y015258D01*
X013777Y015024D02*
X013520Y015024D01*
X013614Y015122D02*
X013679Y015122D01*
X013853Y014925D02*
X013332Y014925D01*
X013173Y014827D02*
X013853Y014827D01*
X013853Y014728D02*
X013271Y014728D01*
X013370Y014630D02*
X013853Y014630D01*
X013853Y014531D02*
X013468Y014531D01*
X013567Y014433D02*
X013853Y014433D01*
X013946Y014334D02*
X013665Y014334D01*
X013676Y014323D02*
X013099Y014901D01*
X012991Y014901D01*
X012855Y014765D01*
X012922Y014927D01*
X012927Y014966D01*
X012922Y015005D01*
X012907Y015042D01*
X012883Y015073D01*
X012851Y015097D01*
X012516Y015236D01*
X012394Y014944D01*
X012302Y014982D01*
X012264Y014890D01*
X011808Y015078D01*
X011736Y014906D01*
X011731Y014867D01*
X011736Y014828D01*
X011752Y014792D01*
X011776Y014760D01*
X011807Y014736D01*
X012143Y014597D01*
X012264Y014890D01*
X012356Y014851D01*
X012235Y014559D01*
X012571Y014420D01*
X012608Y014415D01*
X012608Y014411D01*
X013186Y013833D01*
X013293Y013833D01*
X013356Y013896D01*
X013428Y013824D01*
X013428Y013711D01*
X013474Y013599D01*
X013560Y013513D01*
X013672Y013467D01*
X013793Y013467D01*
X013905Y013513D01*
X013991Y013599D01*
X014038Y013711D01*
X014038Y013833D01*
X013991Y013945D01*
X013905Y014031D01*
X013793Y014077D01*
X013684Y014077D01*
X013611Y014151D01*
X013676Y014216D01*
X013676Y014323D01*
X013676Y014236D02*
X014045Y014236D01*
X014143Y014137D02*
X013624Y014137D01*
X013886Y014039D02*
X014242Y014039D01*
X014340Y013940D02*
X013993Y013940D01*
X014034Y013842D02*
X014439Y013842D01*
X014537Y013743D02*
X014038Y013743D01*
X014010Y013645D02*
X014101Y013645D01*
X014150Y013694D02*
X014018Y013562D01*
X014367Y013213D01*
X014296Y013142D01*
X014367Y013071D01*
X014143Y012848D01*
X014400Y012591D01*
X014434Y012571D01*
X014442Y012569D01*
X014753Y011819D01*
X014852Y011778D01*
X014945Y011817D01*
X015003Y011685D01*
X014963Y011589D01*
X014963Y011467D01*
X015010Y011355D01*
X015095Y011269D01*
X015207Y011223D01*
X015329Y011223D01*
X015441Y011269D01*
X015527Y011355D01*
X015573Y011467D01*
X015573Y011589D01*
X015527Y011701D01*
X015441Y011787D01*
X015331Y011832D01*
X015278Y011954D01*
X015352Y011985D01*
X015393Y012085D01*
X015081Y012839D01*
X014981Y012880D01*
X014798Y012804D01*
X014919Y012925D01*
X014938Y012959D01*
X014949Y012997D01*
X014949Y013037D01*
X014938Y013075D01*
X014919Y013109D01*
X014662Y013366D01*
X014438Y013142D01*
X014367Y013213D01*
X014591Y013437D01*
X014334Y013694D01*
X014300Y013713D01*
X014262Y013724D01*
X014222Y013724D01*
X014184Y013713D01*
X014150Y013694D01*
X014034Y013546D02*
X013938Y013546D01*
X013947Y013491D02*
X013816Y013359D01*
X013796Y013325D01*
X013786Y013287D01*
X013786Y013248D01*
X013796Y013209D01*
X013816Y013175D01*
X014072Y012918D01*
X014296Y013142D01*
X013947Y013491D01*
X013904Y013448D02*
X013396Y013448D01*
X013285Y013546D02*
X013527Y013546D01*
X013455Y013645D02*
X013175Y013645D01*
X013064Y013743D02*
X013428Y013743D01*
X013410Y013842D02*
X013302Y013842D01*
X013178Y013842D02*
X012954Y013842D01*
X012843Y013940D02*
X013079Y013940D01*
X012981Y014039D02*
X012714Y014039D01*
X012783Y013994D02*
X011960Y014527D01*
X011960Y014527D01*
X011065Y014928D01*
X011065Y014928D01*
X010119Y015188D01*
X009145Y015300D01*
X008165Y015263D01*
X007203Y015076D01*
X006280Y014745D01*
X005418Y014276D01*
X004639Y013682D01*
X004639Y013682D01*
X003959Y012975D01*
X003959Y012975D01*
X003394Y012173D01*
X002959Y011294D01*
X002663Y010359D01*
X002514Y009390D01*
X002514Y008410D01*
X002663Y007441D01*
X002959Y006506D01*
X002959Y006506D01*
X003394Y005627D01*
X003394Y005627D01*
X003959Y004825D01*
X004639Y004118D01*
X005418Y003524D01*
X005418Y003524D01*
X006280Y003055D01*
X007203Y002724D01*
X008165Y002537D01*
X008165Y002537D01*
X009145Y002500D01*
X009145Y002500D01*
X010119Y002612D01*
X010119Y002612D01*
X011065Y002872D01*
X011960Y003273D01*
X012783Y003806D01*
X013515Y004459D01*
X014139Y005215D01*
X014640Y006058D01*
X015007Y006967D01*
X015007Y006967D01*
X015230Y007922D01*
X015230Y007922D01*
X015305Y008900D01*
X015230Y009878D01*
X015007Y010833D01*
X014640Y011742D01*
X014139Y012585D01*
X013515Y013341D01*
X013515Y013341D01*
X012783Y013994D01*
X012783Y013994D01*
X012882Y014137D02*
X012562Y014137D01*
X012410Y014236D02*
X012784Y014236D01*
X012685Y014334D02*
X012258Y014334D01*
X012105Y014433D02*
X012540Y014433D01*
X012302Y014531D02*
X011951Y014531D01*
X012064Y014630D02*
X011731Y014630D01*
X011827Y014728D02*
X011511Y014728D01*
X011561Y014945D02*
X011673Y014991D01*
X011759Y015077D01*
X011805Y015189D01*
X011805Y015311D01*
X011759Y015423D01*
X011673Y015509D01*
X011561Y015555D01*
X011439Y015555D01*
X011340Y015514D01*
X011243Y015556D01*
X011280Y015644D01*
X011238Y015743D01*
X010484Y016056D01*
X010385Y016015D01*
X010310Y015834D01*
X010310Y016006D01*
X010300Y016045D01*
X010280Y016079D01*
X010252Y016107D01*
X010218Y016126D01*
X010180Y016137D01*
X009816Y016137D01*
X009816Y015820D01*
X009716Y015820D01*
X009716Y015720D01*
X009222Y015720D01*
X009222Y015534D01*
X009233Y015496D01*
X009252Y015461D01*
X009280Y015434D01*
X009315Y015414D01*
X009353Y015404D01*
X009716Y015404D01*
X009716Y015720D01*
X009816Y015720D01*
X009816Y015404D01*
X010180Y015404D01*
X010218Y015414D01*
X010220Y015415D01*
X010973Y015103D01*
X011073Y015144D01*
X011105Y015223D01*
X011197Y015184D01*
X011241Y015077D01*
X011327Y014991D01*
X011439Y014945D01*
X011561Y014945D01*
X011705Y015024D02*
X011785Y015024D01*
X011777Y015122D02*
X011964Y015122D01*
X011940Y015024D02*
X012202Y015024D01*
X012178Y014925D02*
X012279Y014925D01*
X012302Y014982D02*
X011846Y015171D01*
X011917Y015343D01*
X011941Y015374D01*
X011973Y015398D01*
X012009Y015413D01*
X012048Y015419D01*
X012087Y015413D01*
X012423Y015274D01*
X012302Y014982D01*
X012319Y015024D02*
X012428Y015024D01*
X012468Y015122D02*
X012360Y015122D01*
X012401Y015221D02*
X012509Y015221D01*
X012553Y015221D02*
X012805Y015221D01*
X012791Y015122D02*
X012846Y015122D01*
X012914Y015024D02*
X012940Y015024D01*
X012921Y014925D02*
X013128Y014925D01*
X012917Y014827D02*
X012880Y014827D01*
X012780Y015319D02*
X012315Y015319D01*
X012056Y015418D02*
X012780Y015418D01*
X012803Y015516D02*
X011655Y015516D01*
X011761Y015418D02*
X012040Y015418D01*
X011907Y015319D02*
X011802Y015319D01*
X011805Y015221D02*
X011867Y015221D01*
X011744Y014925D02*
X011072Y014925D01*
X011019Y015122D02*
X011223Y015122D01*
X011295Y015024D02*
X010717Y015024D01*
X010690Y015221D02*
X009836Y015221D01*
X009816Y015418D02*
X009716Y015418D01*
X009716Y015516D02*
X009816Y015516D01*
X009816Y015615D02*
X009716Y015615D01*
X009716Y015713D02*
X009816Y015713D01*
X009716Y015812D02*
X009195Y015812D01*
X009222Y015820D02*
X009716Y015820D01*
X009716Y016137D01*
X009353Y016137D01*
X009315Y016126D01*
X009280Y016107D01*
X009252Y016079D01*
X009233Y016045D01*
X009222Y016006D01*
X009222Y015820D01*
X009222Y015910D02*
X009166Y015910D01*
X009223Y016009D02*
X009093Y016009D01*
X009281Y016107D02*
X008452Y016107D01*
X008518Y016009D02*
X008687Y016009D01*
X008890Y015780D02*
X008044Y015780D01*
X008034Y015770D01*
X008518Y015516D02*
X008730Y015516D01*
X009050Y015516D02*
X009227Y015516D01*
X009222Y015615D02*
X009152Y015615D01*
X009193Y015713D02*
X009222Y015713D01*
X009308Y015418D02*
X007618Y015418D01*
X007400Y015319D02*
X010452Y015319D01*
X010359Y015122D02*
X010928Y015122D01*
X011104Y015221D02*
X011111Y015221D01*
X011335Y015516D02*
X011345Y015516D01*
X011267Y015615D02*
X012844Y015615D01*
X012793Y015713D02*
X011251Y015713D01*
X011208Y015910D02*
X012317Y015910D01*
X012263Y016009D02*
X011341Y016009D01*
X011095Y016193D02*
X012119Y016390D01*
X012811Y016081D01*
X012939Y016403D02*
X013078Y016403D01*
X013177Y016304D02*
X013257Y016304D01*
X013337Y016206D02*
X013404Y016206D01*
X013346Y016107D02*
X013551Y016107D01*
X013699Y016009D02*
X013306Y016009D01*
X013265Y015910D02*
X013846Y015910D01*
X013994Y015812D02*
X013340Y015812D01*
X013523Y015713D02*
X013803Y015713D01*
X013705Y015615D02*
X013616Y015615D01*
X014068Y015713D02*
X014139Y015713D01*
X014166Y015615D02*
X014251Y015615D01*
X014265Y015516D02*
X014364Y015516D01*
X014363Y015418D02*
X014476Y015418D01*
X014462Y015319D02*
X014588Y015319D01*
X014560Y015221D02*
X014701Y015221D01*
X014813Y015122D02*
X014567Y015122D01*
X014484Y015024D02*
X014925Y015024D01*
X015024Y014925D02*
X014385Y014925D01*
X014474Y014827D02*
X014287Y014827D01*
X014213Y014728D02*
X014408Y014728D01*
X014384Y014630D02*
X014213Y014630D01*
X014259Y014531D02*
X014392Y014531D01*
X014357Y014433D02*
X014436Y014433D01*
X014456Y014334D02*
X014560Y014334D01*
X014554Y014236D02*
X014776Y014236D01*
X014724Y014137D02*
X014653Y014137D01*
X014751Y014039D02*
X014762Y014039D01*
X014850Y013940D02*
X014861Y013940D01*
X014948Y013842D02*
X014959Y013842D01*
X015047Y013743D02*
X015058Y013743D01*
X015145Y013645D02*
X015156Y013645D01*
X015244Y013546D02*
X015255Y013546D01*
X014931Y013349D02*
X014678Y013349D01*
X014645Y013349D02*
X014503Y013349D01*
X014546Y013251D02*
X014405Y013251D01*
X014329Y013251D02*
X014188Y013251D01*
X014231Y013349D02*
X014089Y013349D01*
X014132Y013448D02*
X013991Y013448D01*
X013809Y013349D02*
X013506Y013349D01*
X013515Y013341D02*
X013515Y013341D01*
X013590Y013251D02*
X013786Y013251D01*
X013839Y013152D02*
X013671Y013152D01*
X013752Y013054D02*
X013937Y013054D01*
X014036Y012955D02*
X013834Y012955D01*
X013915Y012857D02*
X014152Y012857D01*
X014109Y012955D02*
X014251Y012955D01*
X014208Y013054D02*
X014349Y013054D01*
X014306Y013152D02*
X014286Y013152D01*
X014428Y013152D02*
X014448Y013152D01*
X014580Y013448D02*
X014833Y013448D01*
X014734Y013546D02*
X014481Y013546D01*
X014383Y013645D02*
X014636Y013645D01*
X014777Y013251D02*
X014988Y013251D01*
X015046Y013152D02*
X014875Y013152D01*
X014944Y013054D02*
X015112Y013054D01*
X015177Y012955D02*
X014936Y012955D01*
X014924Y012857D02*
X014850Y012857D01*
X015038Y012857D02*
X015244Y012857D01*
X015380Y012857D02*
X015424Y012857D01*
X015522Y012758D02*
X015114Y012758D01*
X015155Y012660D02*
X015621Y012660D01*
X015809Y012561D02*
X015196Y012561D01*
X015236Y012463D02*
X015850Y012463D01*
X015891Y012364D02*
X015277Y012364D01*
X015318Y012266D02*
X015901Y012266D01*
X015901Y012167D02*
X015359Y012167D01*
X015386Y012069D02*
X015901Y012069D01*
X015901Y011970D02*
X015315Y011970D01*
X015314Y011872D02*
X015901Y011872D01*
X015901Y011773D02*
X015454Y011773D01*
X015538Y011675D02*
X015901Y011675D01*
X015901Y011576D02*
X015573Y011576D01*
X015573Y011478D02*
X015901Y011478D01*
X015901Y011379D02*
X015537Y011379D01*
X015491Y011281D02*
X015452Y011281D01*
X015446Y011182D02*
X015338Y011182D01*
X015253Y011182D02*
X014866Y011182D01*
X014905Y011084D02*
X015097Y011084D01*
X015081Y010985D02*
X014945Y010985D01*
X014985Y010887D02*
X015117Y010887D01*
X015158Y010788D02*
X015017Y010788D01*
X015007Y010833D02*
X015007Y010833D01*
X015040Y010690D02*
X015199Y010690D01*
X015354Y010690D02*
X015542Y010690D01*
X015501Y010788D02*
X015592Y010788D01*
X015609Y010788D02*
X015853Y010788D01*
X015830Y010887D02*
X015901Y010887D01*
X015901Y010985D02*
X015870Y010985D01*
X015901Y011084D02*
X015829Y011084D01*
X015788Y011182D02*
X015901Y011182D01*
X015901Y011281D02*
X015737Y011281D01*
X015487Y011084D02*
X015378Y011084D01*
X015419Y010985D02*
X015527Y010985D01*
X015568Y010887D02*
X015460Y010887D01*
X015378Y010591D02*
X015063Y010591D01*
X015086Y010493D02*
X015281Y010493D01*
X015321Y010394D02*
X015109Y010394D01*
X015132Y010296D02*
X015362Y010296D01*
X015406Y010197D02*
X015155Y010197D01*
X015178Y010099D02*
X015424Y010099D01*
X015424Y010000D02*
X015201Y010000D01*
X015224Y009902D02*
X015424Y009902D01*
X015424Y009803D02*
X015236Y009803D01*
X015230Y009878D02*
X015230Y009878D01*
X015243Y009705D02*
X015424Y009705D01*
X015424Y009606D02*
X015251Y009606D01*
X015258Y009508D02*
X015424Y009508D01*
X015424Y009409D02*
X015266Y009409D01*
X015273Y009311D02*
X015471Y009311D01*
X015590Y009212D02*
X015281Y009212D01*
X015289Y009114D02*
X015523Y009114D01*
X015475Y009015D02*
X015296Y009015D01*
X015304Y008917D02*
X015465Y008917D01*
X015486Y008818D02*
X015299Y008818D01*
X015291Y008720D02*
X015549Y008720D01*
X015534Y008578D02*
X015496Y008567D01*
X015461Y008548D01*
X015434Y008520D01*
X015414Y008485D01*
X015404Y008447D01*
X015404Y008084D01*
X015720Y008084D01*
X015720Y008578D01*
X015534Y008578D01*
X015436Y008523D02*
X015276Y008523D01*
X015284Y008621D02*
X016319Y008621D01*
X016319Y008523D02*
X016104Y008523D01*
X016107Y008520D02*
X016079Y008548D01*
X016045Y008567D01*
X016006Y008578D01*
X015820Y008578D01*
X015820Y008084D01*
X015720Y008084D01*
X015720Y007984D01*
X015404Y007984D01*
X015404Y007620D01*
X015414Y007582D01*
X015415Y007580D01*
X015103Y006827D01*
X015144Y006727D01*
X015234Y006690D01*
X015194Y006591D01*
X015095Y006550D01*
X015010Y006465D01*
X014963Y006352D01*
X014963Y006231D01*
X015010Y006119D01*
X015095Y006033D01*
X015207Y005987D01*
X015329Y005987D01*
X015441Y006033D01*
X015527Y006119D01*
X015573Y006231D01*
X015573Y006352D01*
X015529Y006459D01*
X015566Y006553D01*
X015644Y006520D01*
X015743Y006562D01*
X016056Y007316D01*
X016015Y007415D01*
X015834Y007490D01*
X016006Y007490D01*
X016045Y007500D01*
X016079Y007520D01*
X016107Y007548D01*
X016126Y007582D01*
X016137Y007620D01*
X016137Y007984D01*
X015820Y007984D01*
X015820Y008084D01*
X016137Y008084D01*
X016137Y008447D01*
X016126Y008485D01*
X016107Y008520D01*
X016137Y008424D02*
X016319Y008424D01*
X016319Y008326D02*
X016137Y008326D01*
X016137Y008227D02*
X016319Y008227D01*
X016319Y008129D02*
X016137Y008129D01*
X016137Y007932D02*
X016319Y007932D01*
X016319Y008030D02*
X015820Y008030D01*
X015820Y008129D02*
X015720Y008129D01*
X015720Y008227D02*
X015820Y008227D01*
X015820Y008326D02*
X015720Y008326D01*
X015720Y008424D02*
X015820Y008424D01*
X015820Y008523D02*
X015720Y008523D01*
X015991Y008720D02*
X016319Y008720D01*
X016319Y008818D02*
X016054Y008818D01*
X016075Y008917D02*
X016319Y008917D01*
X016319Y009015D02*
X016065Y009015D01*
X016017Y009114D02*
X016319Y009114D01*
X016319Y009212D02*
X015950Y009212D01*
X016069Y009311D02*
X016320Y009311D01*
X016418Y009409D02*
X016117Y009409D01*
X016117Y009508D02*
X016517Y009508D01*
X016615Y009606D02*
X016117Y009606D01*
X016117Y009705D02*
X016683Y009705D01*
X016683Y009803D02*
X016117Y009803D01*
X016117Y009902D02*
X016640Y009902D01*
X016541Y010000D02*
X016117Y010000D01*
X016117Y010099D02*
X016443Y010099D01*
X016344Y010197D02*
X016094Y010197D01*
X015954Y010296D02*
X016246Y010296D01*
X016147Y010394D02*
X016070Y010394D01*
X016361Y010690D02*
X016607Y010690D01*
X016543Y010788D02*
X016263Y010788D01*
X016261Y010887D02*
X016503Y010887D01*
X016462Y010985D02*
X016261Y010985D01*
X016261Y011084D02*
X016421Y011084D01*
X016380Y011182D02*
X016261Y011182D01*
X016261Y011281D02*
X016339Y011281D01*
X016299Y011379D02*
X016261Y011379D01*
X016261Y011478D02*
X016276Y011478D01*
X016261Y011576D02*
X016359Y011576D01*
X016352Y011675D02*
X016261Y011675D01*
X016410Y012000D02*
X016743Y011211D01*
X017049Y011379D02*
X017116Y011379D01*
X017090Y011281D02*
X017149Y011281D01*
X017130Y011182D02*
X017183Y011182D01*
X017171Y011084D02*
X017210Y011084D01*
X017212Y010985D02*
X017230Y010985D01*
X017249Y010887D02*
X017187Y010887D01*
X017269Y010788D02*
X016988Y010788D01*
X016750Y010690D02*
X017289Y010690D01*
X017308Y010591D02*
X016460Y010591D01*
X016558Y010493D02*
X017328Y010493D01*
X017347Y010394D02*
X016657Y010394D01*
X016755Y010296D02*
X017367Y010296D01*
X017354Y010197D02*
X017387Y010197D01*
X017376Y010099D02*
X017406Y010099D01*
X017423Y010000D02*
X017376Y010000D01*
X017376Y009902D02*
X017429Y009902D01*
X017436Y009803D02*
X017376Y009803D01*
X017376Y009705D02*
X017442Y009705D01*
X017449Y009606D02*
X017376Y009606D01*
X017376Y009508D02*
X017455Y009508D01*
X017462Y009409D02*
X017376Y009409D01*
X017329Y009311D02*
X017468Y009311D01*
X017475Y009212D02*
X016730Y009212D01*
X016679Y009114D02*
X016832Y009114D01*
X016761Y009015D02*
X016679Y009015D01*
X016679Y008917D02*
X016735Y008917D01*
X016740Y008818D02*
X016679Y008818D01*
X016679Y008720D02*
X016780Y008720D01*
X016857Y008621D02*
X016679Y008621D01*
X016679Y008523D02*
X016856Y008523D01*
X016683Y008424D02*
X016679Y008424D01*
X016679Y008326D02*
X016683Y008326D01*
X016679Y008227D02*
X016683Y008227D01*
X016679Y008129D02*
X016683Y008129D01*
X016679Y008030D02*
X016683Y008030D01*
X016679Y007932D02*
X016683Y007932D01*
X016679Y007833D02*
X016683Y007833D01*
X016679Y007735D02*
X016683Y007735D01*
X016319Y007735D02*
X016137Y007735D01*
X016137Y007833D02*
X016319Y007833D01*
X016275Y007636D02*
X016137Y007636D01*
X016096Y007538D02*
X016255Y007538D01*
X016236Y007439D02*
X015957Y007439D01*
X016046Y007341D02*
X016216Y007341D01*
X016197Y007242D02*
X016025Y007242D01*
X015984Y007144D02*
X016239Y007144D01*
X016319Y007045D02*
X015944Y007045D01*
X015903Y006947D02*
X016319Y006947D01*
X016319Y006848D02*
X015862Y006848D01*
X015821Y006750D02*
X016329Y006750D01*
X016394Y006651D02*
X015780Y006651D01*
X015722Y006553D02*
X016353Y006553D01*
X016312Y006454D02*
X015531Y006454D01*
X015566Y006553D02*
X015566Y006553D01*
X015572Y006356D02*
X016255Y006356D01*
X016157Y006257D02*
X015573Y006257D01*
X015543Y006159D02*
X016058Y006159D01*
X015960Y006060D02*
X015468Y006060D01*
X015268Y006292D02*
X015579Y007071D01*
X015275Y007242D02*
X015071Y007242D01*
X015094Y007341D02*
X015316Y007341D01*
X015357Y007439D02*
X015117Y007439D01*
X015140Y007538D02*
X015398Y007538D01*
X015404Y007636D02*
X015163Y007636D01*
X015186Y007735D02*
X015404Y007735D01*
X015404Y007833D02*
X015209Y007833D01*
X015231Y007932D02*
X015404Y007932D01*
X015238Y008030D02*
X015720Y008030D01*
X015404Y008129D02*
X015246Y008129D01*
X015253Y008227D02*
X015404Y008227D01*
X015404Y008326D02*
X015261Y008326D01*
X015268Y008424D02*
X015404Y008424D01*
X015770Y008930D02*
X015770Y009766D01*
X017040Y008890D02*
X017030Y008034D01*
X017376Y008030D02*
X017438Y008030D01*
X017432Y007932D02*
X017376Y007932D01*
X017376Y007833D02*
X017425Y007833D01*
X017413Y007735D02*
X017376Y007735D01*
X017376Y007636D02*
X017393Y007636D01*
X017374Y007538D02*
X017284Y007538D01*
X017321Y007439D02*
X017354Y007439D01*
X017334Y007341D02*
X017304Y007341D01*
X017315Y007242D02*
X017148Y007242D01*
X017265Y007144D02*
X017295Y007144D01*
X017276Y007045D02*
X017246Y007045D01*
X017256Y006947D02*
X017147Y006947D01*
X017214Y006848D02*
X017236Y006848D01*
X017217Y006750D02*
X017185Y006750D01*
X017194Y006651D02*
X017144Y006651D01*
X017160Y006553D02*
X017103Y006553D01*
X017127Y006454D02*
X017063Y006454D01*
X017094Y006356D02*
X017022Y006356D01*
X017060Y006257D02*
X016981Y006257D01*
X016940Y006159D02*
X017027Y006159D01*
X016993Y006060D02*
X016861Y006060D01*
X016755Y006060D02*
X016469Y006060D01*
X016620Y005962D02*
X016960Y005962D01*
X016926Y005863D02*
X016689Y005863D01*
X016715Y005765D02*
X016893Y005765D01*
X016859Y005666D02*
X016709Y005666D01*
X016668Y005568D02*
X016819Y005568D01*
X016771Y005469D02*
X016551Y005469D01*
X016444Y005371D02*
X016722Y005371D01*
X016674Y005272D02*
X016541Y005272D01*
X016532Y005174D02*
X016625Y005174D01*
X016577Y005075D02*
X016491Y005075D01*
X016528Y004977D02*
X016451Y004977D01*
X016479Y004878D02*
X016410Y004878D01*
X016431Y004780D02*
X016369Y004780D01*
X016382Y004681D02*
X016328Y004681D01*
X016330Y004583D02*
X016287Y004583D01*
X016264Y004484D02*
X016247Y004484D01*
X016199Y004386D02*
X015438Y004386D01*
X015438Y004484D02*
X016033Y004484D01*
X016133Y004287D02*
X015438Y004287D01*
X015521Y004189D02*
X016067Y004189D01*
X016001Y004090D02*
X015620Y004090D01*
X015718Y003992D02*
X015935Y003992D01*
X015869Y003893D02*
X015792Y003893D01*
X015804Y003795D02*
X015775Y003795D01*
X015738Y003696D02*
X015677Y003696D01*
X015657Y003598D02*
X015578Y003598D01*
X015571Y003499D02*
X015480Y003499D01*
X015485Y003401D02*
X015381Y003401D01*
X015398Y003302D02*
X015283Y003302D01*
X015312Y003204D02*
X014943Y003204D01*
X014943Y003105D02*
X015225Y003105D01*
X015139Y003007D02*
X014912Y003007D01*
X014835Y002908D02*
X015053Y002908D01*
X014963Y002810D02*
X014558Y002810D01*
X014549Y002711D02*
X014851Y002711D01*
X014738Y002613D02*
X014567Y002613D01*
X014626Y002514D02*
X014495Y002514D01*
X014514Y002416D02*
X014396Y002416D01*
X014401Y002317D02*
X014298Y002317D01*
X014289Y002219D02*
X014199Y002219D01*
X014177Y002120D02*
X014101Y002120D01*
X014043Y002022D02*
X014002Y002022D01*
X013869Y002022D02*
X013857Y002022D01*
X013819Y001923D02*
X013896Y001923D01*
X013748Y001825D02*
X013682Y001825D01*
X013648Y001825D02*
X013602Y001825D01*
X013601Y001726D02*
X013535Y001726D01*
X013453Y001628D02*
X013351Y001628D01*
X013306Y001529D02*
X013257Y001529D01*
X013145Y001431D02*
X013019Y001431D01*
X012945Y001332D02*
X012781Y001332D01*
X012745Y001234D02*
X012274Y001234D01*
X012305Y001332D02*
X012448Y001332D01*
X012407Y001431D02*
X012305Y001431D01*
X012265Y001529D02*
X012366Y001529D01*
X012397Y001923D02*
X010968Y001923D01*
X010906Y001923D02*
X010798Y001923D01*
X010757Y002022D02*
X010865Y002022D01*
X010824Y002120D02*
X010716Y002120D01*
X010784Y002219D02*
X010855Y002219D01*
X010831Y002317D02*
X011092Y002317D01*
X011069Y002416D02*
X011311Y002416D01*
X011277Y002317D02*
X011432Y002317D01*
X011318Y002219D02*
X012699Y002219D01*
X012631Y002120D02*
X011317Y002120D01*
X011206Y002022D02*
X012631Y002022D01*
X012797Y002317D02*
X011703Y002317D01*
X011823Y002416D02*
X012064Y002416D01*
X012105Y002416D02*
X012860Y002416D01*
X012848Y002514D02*
X012343Y002514D01*
X012581Y002613D02*
X012940Y002613D01*
X012818Y002711D02*
X013087Y002711D01*
X013234Y002810D02*
X012876Y002810D01*
X012898Y002908D02*
X012843Y002908D01*
X013136Y002908D02*
X013388Y002908D01*
X013290Y002810D02*
X013262Y002810D01*
X013234Y003007D02*
X013487Y003007D01*
X013585Y003105D02*
X013333Y003105D01*
X013301Y003204D02*
X013684Y003204D01*
X013782Y003302D02*
X013530Y003302D01*
X013628Y003401D02*
X013881Y003401D01*
X013979Y003499D02*
X013713Y003499D01*
X013718Y003598D02*
X014078Y003598D01*
X014176Y003696D02*
X013648Y003696D01*
X013950Y003795D02*
X014275Y003795D01*
X014373Y003893D02*
X014015Y003893D01*
X014038Y003992D02*
X014992Y003992D01*
X015078Y004090D02*
X014064Y004090D01*
X014388Y004189D02*
X015078Y004189D01*
X015078Y004287D02*
X014486Y004287D01*
X014585Y004386D02*
X015078Y004386D01*
X015078Y004484D02*
X014683Y004484D01*
X014782Y004583D02*
X015078Y004583D01*
X015078Y004681D02*
X014880Y004681D01*
X014901Y004780D02*
X015078Y004780D01*
X015078Y004878D02*
X015004Y004878D01*
X014928Y004878D02*
X014832Y004878D01*
X014437Y005272D02*
X014173Y005272D01*
X014139Y005215D02*
X014139Y005215D01*
X014105Y005174D02*
X014393Y005174D01*
X014294Y005075D02*
X014023Y005075D01*
X013942Y004977D02*
X014196Y004977D01*
X014097Y004878D02*
X013861Y004878D01*
X013780Y004780D02*
X013999Y004780D01*
X013900Y004681D02*
X013698Y004681D01*
X013617Y004583D02*
X013833Y004583D01*
X013856Y004484D02*
X013536Y004484D01*
X013515Y004459D02*
X013515Y004459D01*
X013433Y004386D02*
X013849Y004386D01*
X013609Y004287D02*
X013322Y004287D01*
X013212Y004189D02*
X013482Y004189D01*
X013436Y004090D02*
X013101Y004090D01*
X013187Y003992D02*
X012991Y003992D01*
X013084Y003893D02*
X012880Y003893D01*
X012783Y003806D02*
X012783Y003806D01*
X012765Y003795D02*
X012985Y003795D01*
X012950Y003696D02*
X012613Y003696D01*
X012461Y003598D02*
X012788Y003598D01*
X012907Y003598D02*
X013048Y003598D01*
X013005Y003499D02*
X013137Y003499D01*
X013180Y003401D02*
X013245Y003401D01*
X013202Y003302D02*
X013344Y003302D01*
X013799Y002810D02*
X013810Y002810D01*
X013898Y002908D02*
X013909Y002908D01*
X013996Y003007D02*
X014007Y003007D01*
X014095Y003105D02*
X014333Y003105D01*
X014333Y003204D02*
X014193Y003204D01*
X014292Y003302D02*
X014374Y003302D01*
X014390Y003401D02*
X014465Y003401D01*
X014489Y003499D02*
X014841Y003499D01*
X014811Y003401D02*
X014939Y003401D01*
X014902Y003302D02*
X015038Y003302D01*
X014638Y003142D02*
X014033Y002542D01*
X013712Y002711D02*
X013701Y002711D01*
X013613Y002613D02*
X013602Y002613D01*
X013516Y002022D02*
X013493Y002022D01*
X013536Y001923D02*
X013582Y001923D01*
X012546Y001135D02*
X012196Y001135D01*
X012346Y001037D02*
X011743Y001037D01*
X011739Y000938D02*
X012127Y000938D01*
X011836Y000840D02*
X011592Y000840D01*
X011546Y000741D02*
X011355Y000741D01*
X011256Y000643D02*
X011117Y000643D01*
X010858Y000643D02*
X010250Y000643D01*
X010250Y000741D02*
X010817Y000741D01*
X010777Y000840D02*
X010630Y000840D01*
X010555Y000840D02*
X010453Y000840D01*
X010433Y000938D02*
X010535Y000938D01*
X010516Y001037D02*
X010414Y001037D01*
X010394Y001135D02*
X010496Y001135D01*
X010476Y001234D02*
X010543Y001234D01*
X010525Y001332D02*
X010970Y001332D01*
X010859Y001431D02*
X011208Y001431D01*
X011446Y001529D02*
X010806Y001529D01*
X010361Y001299D02*
X010381Y001201D01*
X009971Y001119D01*
X009972Y001117D01*
X009875Y001117D01*
X009982Y001223D01*
X010361Y001299D01*
X010374Y001234D02*
X010032Y001234D01*
X010050Y001135D02*
X009893Y001135D01*
X009680Y001431D02*
X009360Y001431D01*
X009459Y001332D02*
X009581Y001332D01*
X009778Y001529D02*
X007617Y001529D01*
X007517Y001726D02*
X006191Y001726D01*
X006096Y001825D02*
X007122Y001825D01*
X007431Y001825D02*
X007490Y001825D01*
X007490Y001923D02*
X007472Y001923D01*
X007071Y002221D02*
X006260Y002572D01*
X006066Y002810D02*
X006029Y002810D01*
X006065Y002908D02*
X006690Y002908D01*
X006533Y002711D02*
X007270Y002711D01*
X007203Y002724D02*
X007203Y002724D01*
X007030Y002613D02*
X007777Y002613D01*
X007506Y002416D02*
X010242Y002416D01*
X010121Y002613D02*
X010717Y002613D01*
X010661Y002514D02*
X010553Y002514D01*
X010479Y002514D02*
X009269Y002514D01*
X009299Y002317D02*
X009057Y002317D01*
X009182Y002219D02*
X009282Y002219D01*
X009282Y001825D02*
X009146Y001825D01*
X009315Y001726D02*
X008550Y001726D01*
X008548Y001721D02*
X008567Y001755D01*
X008578Y001794D01*
X008578Y001980D01*
X008084Y001980D01*
X008084Y001663D01*
X008447Y001663D01*
X008485Y001674D01*
X008520Y001693D01*
X008548Y001721D01*
X008578Y001825D02*
X008713Y001825D01*
X008648Y001923D02*
X008578Y001923D01*
X008625Y002022D02*
X008084Y002022D01*
X008084Y002120D02*
X007984Y002120D01*
X007984Y002219D02*
X008084Y002219D01*
X008084Y002317D02*
X007984Y002317D01*
X007984Y001923D02*
X008084Y001923D01*
X008084Y001825D02*
X007984Y001825D01*
X007984Y001726D02*
X008084Y001726D01*
X008578Y002120D02*
X008633Y002120D01*
X008677Y002219D02*
X008578Y002219D01*
X008560Y002317D02*
X008802Y002317D01*
X008772Y002514D02*
X007268Y002514D01*
X006965Y002810D02*
X006455Y002810D01*
X006416Y003007D02*
X006049Y003007D01*
X006189Y003105D02*
X005894Y003105D01*
X006008Y003204D02*
X005549Y003204D01*
X005509Y003105D02*
X005617Y003105D01*
X005576Y003007D02*
X005468Y003007D01*
X005535Y002908D02*
X005542Y002908D01*
X005519Y002810D02*
X005780Y002810D01*
X005756Y002711D02*
X005988Y002711D01*
X005955Y002613D02*
X005947Y002613D01*
X005955Y002514D02*
X005906Y002514D01*
X005845Y002416D02*
X005995Y002416D01*
X006084Y002317D02*
X005618Y002317D01*
X005643Y002416D02*
X005523Y002416D01*
X005405Y002514D02*
X005308Y002514D01*
X005305Y002613D02*
X005413Y002613D01*
X005454Y002711D02*
X005345Y002711D01*
X005386Y002810D02*
X005494Y002810D01*
X005167Y002613D02*
X004981Y002613D01*
X004938Y002711D02*
X004925Y002711D01*
X004876Y002810D02*
X004827Y002810D01*
X004818Y002908D02*
X004893Y002908D01*
X004916Y003007D02*
X004933Y003007D01*
X005180Y003401D02*
X005645Y003401D01*
X005464Y003499D02*
X005082Y003499D01*
X004983Y003598D02*
X005322Y003598D01*
X005193Y003696D02*
X004885Y003696D01*
X004786Y003795D02*
X005063Y003795D01*
X004934Y003893D02*
X004688Y003893D01*
X004805Y003992D02*
X004431Y003992D01*
X004423Y004090D02*
X004676Y004090D01*
X004639Y004118D02*
X004639Y004118D01*
X004571Y004189D02*
X004377Y004189D01*
X004476Y004287D02*
X004250Y004287D01*
X004381Y004386D02*
X003930Y004386D01*
X004007Y004484D02*
X004287Y004484D01*
X004192Y004583D02*
X004006Y004583D01*
X003928Y004681D02*
X004097Y004681D01*
X004002Y004780D02*
X003830Y004780D01*
X003921Y004878D02*
X003731Y004878D01*
X003724Y004878D02*
X003582Y004878D01*
X003625Y004780D02*
X003484Y004780D01*
X003481Y004681D02*
X003527Y004681D01*
X003633Y004977D02*
X003852Y004977D01*
X003783Y005075D02*
X003534Y005075D01*
X003436Y005174D02*
X003713Y005174D01*
X003644Y005272D02*
X003341Y005272D01*
X003300Y005371D02*
X003575Y005371D01*
X003506Y005469D02*
X003259Y005469D01*
X003218Y005568D02*
X003436Y005568D01*
X003375Y005666D02*
X003178Y005666D01*
X003137Y005765D02*
X003326Y005765D01*
X003278Y005863D02*
X003096Y005863D01*
X003055Y005962D02*
X003229Y005962D01*
X003180Y006060D02*
X002858Y006060D01*
X002896Y006159D02*
X003131Y006159D01*
X003082Y006257D02*
X002896Y006257D01*
X002862Y006356D02*
X003034Y006356D01*
X002985Y006454D02*
X002781Y006454D01*
X002945Y006553D02*
X002381Y006553D01*
X002401Y006454D02*
X001899Y006454D01*
X001899Y006356D02*
X002320Y006356D01*
X002286Y006257D02*
X001899Y006257D01*
X001899Y006159D02*
X002286Y006159D01*
X002324Y006060D02*
X001899Y006060D01*
X001899Y005962D02*
X002411Y005962D01*
X002535Y005863D02*
X001899Y005863D01*
X001899Y005765D02*
X002427Y005765D01*
X002428Y005666D02*
X001899Y005666D01*
X001899Y005568D02*
X002468Y005568D01*
X002509Y005469D02*
X001899Y005469D01*
X001936Y005371D02*
X002550Y005371D01*
X002591Y005272D02*
X001977Y005272D01*
X002018Y005174D02*
X002632Y005174D01*
X002672Y005075D02*
X002245Y005075D01*
X002343Y004977D02*
X002713Y004977D01*
X002600Y004878D02*
X002884Y004878D01*
X002851Y004780D02*
X002666Y004780D01*
X002732Y004681D02*
X002891Y004681D01*
X002798Y004583D02*
X002990Y004583D01*
X002934Y004386D02*
X003231Y004386D01*
X003285Y004287D02*
X003033Y004287D01*
X003131Y004189D02*
X003384Y004189D01*
X003624Y003696D02*
X004170Y003696D01*
X004126Y004008D02*
X004658Y003433D01*
X005418Y003302D02*
X005826Y003302D01*
X006280Y003055D02*
X006280Y003055D01*
X006620Y002613D02*
X006709Y002613D01*
X006546Y002219D02*
X005714Y002219D01*
X005809Y002120D02*
X006535Y002120D01*
X006646Y002022D02*
X005905Y002022D01*
X006000Y001923D02*
X006884Y001923D01*
X007122Y001529D02*
X006382Y001529D01*
X006287Y001628D02*
X009877Y001628D01*
X009766Y002030D02*
X008930Y002040D01*
X009065Y001037D02*
X009245Y001037D01*
X009282Y000938D02*
X009155Y000938D01*
X009195Y000840D02*
X009282Y000840D01*
X009282Y000741D02*
X009195Y000741D01*
X009163Y000643D02*
X009282Y000643D01*
X009282Y000544D02*
X009086Y000544D01*
X009336Y000446D02*
X008464Y000446D01*
X008518Y000544D02*
X008695Y000544D01*
X008890Y000780D02*
X008034Y000770D01*
X008518Y001037D02*
X008715Y001037D01*
X008259Y000347D02*
X009541Y000347D01*
X009766Y000770D02*
X009520Y001016D01*
X010250Y000544D02*
X010854Y000544D01*
X010359Y000446D02*
X010196Y000446D01*
X011211Y001057D02*
X012000Y001370D01*
X011736Y001529D02*
X011465Y001529D01*
X011580Y001431D02*
X011664Y001431D01*
X010743Y002317D02*
X010635Y002317D01*
X010594Y002416D02*
X010702Y002416D01*
X010479Y002711D02*
X010955Y002711D01*
X011064Y002711D02*
X011287Y002711D01*
X011262Y002613D02*
X011155Y002613D01*
X011196Y002514D02*
X011269Y002514D01*
X011355Y002810D02*
X010838Y002810D01*
X011065Y002872D02*
X011065Y002872D01*
X011145Y002908D02*
X011795Y002908D01*
X011802Y003007D02*
X011365Y003007D01*
X011585Y003105D02*
X011959Y003105D01*
X011960Y003273D02*
X011960Y003273D01*
X012004Y003302D02*
X012434Y003302D01*
X012591Y003401D02*
X012156Y003401D01*
X012309Y003499D02*
X012690Y003499D01*
X012196Y003204D02*
X011804Y003204D01*
X012329Y002883D02*
X011567Y002591D01*
X011869Y002514D02*
X011958Y002514D01*
X013347Y003992D02*
X013428Y003992D01*
X013733Y004008D02*
X014367Y004658D01*
X014478Y005371D02*
X014231Y005371D01*
X014290Y005469D02*
X014519Y005469D01*
X014348Y005568D02*
X014814Y005568D01*
X014902Y005568D02*
X015011Y005568D01*
X015052Y005666D02*
X014943Y005666D01*
X014984Y005765D02*
X015092Y005765D01*
X015133Y005863D02*
X015025Y005863D01*
X015066Y005962D02*
X015861Y005962D01*
X015763Y005863D02*
X015369Y005863D01*
X015417Y005765D02*
X015664Y005765D01*
X015566Y005666D02*
X015394Y005666D01*
X015353Y005568D02*
X015467Y005568D01*
X015369Y005469D02*
X015313Y005469D01*
X015270Y005371D02*
X015028Y005371D01*
X015052Y005469D02*
X014970Y005469D01*
X014862Y005469D02*
X014790Y005469D01*
X014601Y005666D02*
X014407Y005666D01*
X014465Y005765D02*
X014641Y005765D01*
X014682Y005863D02*
X014524Y005863D01*
X014583Y005962D02*
X014723Y005962D01*
X014640Y006058D02*
X014640Y006058D01*
X014641Y006060D02*
X014819Y006060D01*
X014915Y006060D02*
X015068Y006060D01*
X014993Y006159D02*
X014680Y006159D01*
X014720Y006257D02*
X014963Y006257D01*
X014964Y006356D02*
X014760Y006356D01*
X014800Y006454D02*
X015005Y006454D01*
X015101Y006553D02*
X014839Y006553D01*
X014879Y006651D02*
X015218Y006651D01*
X015135Y006750D02*
X014919Y006750D01*
X014958Y006848D02*
X015112Y006848D01*
X015153Y006947D02*
X014998Y006947D01*
X015025Y007045D02*
X015194Y007045D01*
X015234Y007144D02*
X015048Y007144D01*
X016410Y005741D02*
X016081Y004989D01*
X015741Y005075D02*
X015484Y005075D01*
X015438Y004977D02*
X015700Y004977D01*
X015660Y004878D02*
X015438Y004878D01*
X015438Y004780D02*
X015619Y004780D01*
X015630Y004681D02*
X015438Y004681D01*
X015438Y004583D02*
X015796Y004583D01*
X015782Y005174D02*
X015582Y005174D01*
X015681Y005272D02*
X015823Y005272D01*
X015864Y005371D02*
X015779Y005371D01*
X015878Y005469D02*
X015904Y005469D01*
X015976Y005568D02*
X016138Y005568D01*
X016111Y005666D02*
X016075Y005666D01*
X017376Y008129D02*
X017444Y008129D01*
X017451Y008227D02*
X017376Y008227D01*
X017376Y008326D02*
X017457Y008326D01*
X017464Y008424D02*
X017376Y008424D01*
X017470Y008523D02*
X017216Y008523D01*
X017217Y008621D02*
X017477Y008621D01*
X017483Y008720D02*
X017299Y008720D01*
X017340Y008818D02*
X017490Y008818D01*
X017494Y008917D02*
X017345Y008917D01*
X017318Y009015D02*
X017487Y009015D01*
X017481Y009114D02*
X017248Y009114D01*
X015084Y011281D02*
X014826Y011281D01*
X014786Y011379D02*
X015000Y011379D01*
X014963Y011478D02*
X014747Y011478D01*
X014707Y011576D02*
X014963Y011576D01*
X014999Y011675D02*
X014667Y011675D01*
X014640Y011742D02*
X014640Y011742D01*
X014622Y011773D02*
X014964Y011773D01*
X014731Y011872D02*
X014563Y011872D01*
X014504Y011970D02*
X014690Y011970D01*
X014649Y012069D02*
X014446Y012069D01*
X014387Y012167D02*
X014609Y012167D01*
X014568Y012266D02*
X014329Y012266D01*
X014270Y012364D02*
X014527Y012364D01*
X014486Y012463D02*
X014212Y012463D01*
X014153Y012561D02*
X014445Y012561D01*
X014331Y012660D02*
X014077Y012660D01*
X014139Y012585D02*
X014139Y012585D01*
X014233Y012758D02*
X013996Y012758D01*
X014917Y012329D02*
X015268Y011528D01*
X016266Y012364D02*
X016755Y012364D01*
X016803Y012266D02*
X016567Y012266D01*
X016671Y012167D02*
X016848Y012167D01*
X016882Y012069D02*
X016712Y012069D01*
X016715Y011970D02*
X016915Y011970D01*
X016949Y011872D02*
X016687Y011872D01*
X016701Y011773D02*
X016982Y011773D01*
X017015Y011675D02*
X016926Y011675D01*
X016967Y011576D02*
X017049Y011576D01*
X017082Y011478D02*
X017008Y011478D01*
X016706Y012463D02*
X016504Y012463D01*
X016554Y012561D02*
X016657Y012561D01*
X016609Y012660D02*
X016518Y012660D01*
X016478Y012758D02*
X016560Y012758D01*
X016512Y012857D02*
X016437Y012857D01*
X016463Y012955D02*
X016396Y012955D01*
X016414Y013054D02*
X016355Y013054D01*
X016366Y013152D02*
X016314Y013152D01*
X016308Y013251D02*
X016274Y013251D01*
X016242Y013349D02*
X016177Y013349D01*
X016113Y013349D02*
X016112Y013349D01*
X016122Y013448D02*
X016176Y013448D01*
X016111Y013546D02*
X016066Y013546D01*
X016045Y013645D02*
X015971Y013645D01*
X015979Y013743D02*
X015934Y013743D01*
X015913Y013842D02*
X015843Y013842D01*
X015847Y013940D02*
X015792Y013940D01*
X015782Y014039D02*
X015742Y014039D01*
X015715Y014137D02*
X015644Y014137D01*
X015628Y014236D02*
X015545Y014236D01*
X015542Y014334D02*
X015447Y014334D01*
X015456Y014433D02*
X015348Y014433D01*
X015369Y014531D02*
X015250Y014531D01*
X015283Y014630D02*
X014994Y014630D01*
X014971Y014728D02*
X015196Y014728D01*
X015110Y014827D02*
X014905Y014827D01*
X014689Y014611D02*
X015258Y014033D01*
X015071Y014531D02*
X015020Y014531D01*
X015824Y013546D02*
X015892Y013546D01*
X013733Y013772D02*
X013142Y014367D01*
X012305Y014728D02*
X012197Y014728D01*
X012156Y014630D02*
X012264Y014630D01*
X012238Y014827D02*
X012346Y014827D01*
X011737Y014827D02*
X011291Y014827D01*
X011500Y015250D02*
X010729Y015579D01*
X010836Y015910D02*
X010982Y015910D01*
X011074Y015812D02*
X012555Y015812D01*
X012298Y016107D02*
X012232Y016107D01*
X012005Y016107D02*
X011599Y016107D01*
X011635Y016501D02*
X011742Y016501D01*
X011675Y016600D02*
X011897Y016600D01*
X011716Y016698D02*
X012479Y016698D01*
X012340Y016600D02*
X012678Y016600D01*
X012702Y016501D02*
X012878Y016501D01*
X012461Y016501D02*
X012403Y016501D01*
X012279Y016797D02*
X011757Y016797D01*
X011726Y016895D02*
X012029Y016895D01*
X011739Y016994D02*
X011513Y016994D01*
X011449Y017092D02*
X011275Y017092D01*
X011159Y017191D02*
X011037Y017191D01*
X010896Y017191D02*
X010831Y017191D01*
X010688Y017289D02*
X010537Y017289D01*
X010528Y017191D02*
X010566Y017191D01*
X010547Y017092D02*
X010508Y017092D01*
X010270Y017289D02*
X010250Y017289D01*
X010192Y017388D02*
X007608Y017388D01*
X007550Y017289D02*
X007112Y017289D01*
X006904Y017191D02*
X007550Y017191D01*
X007550Y017092D02*
X006969Y017092D01*
X007010Y016994D02*
X007550Y016994D01*
X007099Y016895D02*
X007051Y016895D01*
X006763Y017191D02*
X006641Y017191D01*
X006525Y017092D02*
X006351Y017092D01*
X006287Y016994D02*
X006061Y016994D01*
X006074Y016895D02*
X005771Y016895D01*
X005718Y016698D02*
X005321Y016698D01*
X005339Y016501D02*
X005527Y016501D01*
X005514Y016403D02*
X005380Y016403D01*
X005420Y016304D02*
X005533Y016304D01*
X005819Y016410D02*
X006589Y016743D01*
X006043Y016797D02*
X005521Y016797D01*
X005578Y016600D02*
X005122Y016600D01*
X005098Y016501D02*
X004922Y016501D01*
X004861Y016403D02*
X004722Y016403D01*
X004623Y016304D02*
X004543Y016304D01*
X004463Y016206D02*
X004396Y016206D01*
X004315Y016107D02*
X004249Y016107D01*
X004176Y016009D02*
X004101Y016009D01*
X004020Y015910D02*
X003954Y015910D01*
X003947Y015812D02*
X003806Y015812D01*
X003732Y015713D02*
X003661Y015713D01*
X003634Y015615D02*
X003549Y015615D01*
X003535Y015516D02*
X003436Y015516D01*
X003437Y015418D02*
X003324Y015418D01*
X003338Y015319D02*
X003212Y015319D01*
X003240Y015221D02*
X003099Y015221D01*
X002987Y015122D02*
X003233Y015122D01*
X003275Y015024D02*
X002875Y015024D01*
X002776Y014925D02*
X002998Y014925D01*
X002913Y014827D02*
X002690Y014827D01*
X002604Y014728D02*
X002876Y014728D01*
X002876Y014630D02*
X002517Y014630D01*
X002550Y014531D02*
X002431Y014531D01*
X002452Y014433D02*
X002344Y014433D01*
X002353Y014334D02*
X002258Y014334D01*
X002255Y014236D02*
X002172Y014236D01*
X002156Y014137D02*
X002085Y014137D01*
X002058Y014039D02*
X002018Y014039D01*
X002008Y013940D02*
X001953Y013940D01*
X001887Y013842D02*
X002049Y013842D01*
X002147Y013743D02*
X001821Y013743D01*
X001755Y013645D02*
X002246Y013645D01*
X002344Y013546D02*
X001689Y013546D01*
X001624Y013448D02*
X002362Y013448D01*
X002362Y013349D02*
X001687Y013349D01*
X001623Y013349D02*
X001558Y013349D01*
X001526Y013251D02*
X001492Y013251D01*
X001486Y013152D02*
X001434Y013152D01*
X001445Y013054D02*
X001386Y013054D01*
X001404Y012955D02*
X001337Y012955D01*
X001363Y012857D02*
X001288Y012857D01*
X001322Y012758D02*
X001240Y012758D01*
X001282Y012660D02*
X001191Y012660D01*
X001143Y012561D02*
X001246Y012561D01*
X001296Y012463D02*
X001094Y012463D01*
X001045Y012364D02*
X001301Y012364D01*
X001165Y012266D02*
X000997Y012266D01*
X000952Y012167D02*
X001116Y012167D01*
X001105Y012069D02*
X000918Y012069D01*
X000885Y011970D02*
X001125Y011970D01*
X001186Y011872D02*
X000851Y011872D01*
X000818Y011773D02*
X001364Y011773D01*
X001266Y011675D02*
X001203Y011675D01*
X000874Y011675D02*
X000785Y011675D01*
X000751Y011576D02*
X000833Y011576D01*
X000792Y011478D02*
X000718Y011478D01*
X000684Y011379D02*
X000751Y011379D01*
X000710Y011281D02*
X000651Y011281D01*
X000670Y011182D02*
X000617Y011182D01*
X000629Y011084D02*
X000590Y011084D01*
X000588Y010985D02*
X000570Y010985D01*
X000551Y010887D02*
X000613Y010887D01*
X000569Y010788D02*
X000531Y010788D01*
X000541Y010690D02*
X000511Y010690D01*
X000522Y010591D02*
X000492Y010591D01*
X000502Y010493D02*
X000472Y010493D01*
X000483Y010394D02*
X000453Y010394D01*
X000433Y010296D02*
X000494Y010296D01*
X000446Y010197D02*
X000413Y010197D01*
X000424Y010099D02*
X000394Y010099D01*
X000377Y010000D02*
X000424Y010000D01*
X000424Y009902D02*
X000371Y009902D01*
X000364Y009803D02*
X000424Y009803D01*
X000424Y009705D02*
X000358Y009705D01*
X000351Y009606D02*
X000424Y009606D01*
X000424Y009508D02*
X000345Y009508D01*
X000338Y009409D02*
X000424Y009409D01*
X000471Y009311D02*
X000332Y009311D01*
X000325Y009212D02*
X000592Y009212D01*
X000510Y009114D02*
X000319Y009114D01*
X000313Y009015D02*
X000475Y009015D01*
X000475Y008917D02*
X000306Y008917D01*
X000310Y008818D02*
X000512Y008818D01*
X000598Y008720D02*
X000317Y008720D01*
X000323Y008621D02*
X001103Y008621D01*
X001121Y008720D02*
X000962Y008720D01*
X001048Y008818D02*
X001121Y008818D01*
X001121Y008917D02*
X001085Y008917D01*
X001085Y009015D02*
X001121Y009015D01*
X001121Y009114D02*
X001050Y009114D01*
X001121Y009212D02*
X000968Y009212D01*
X001069Y009311D02*
X001121Y009311D01*
X001117Y009409D02*
X001121Y009409D01*
X001117Y009508D02*
X001121Y009508D01*
X001117Y009606D02*
X001121Y009606D01*
X001117Y009705D02*
X001121Y009705D01*
X001117Y009803D02*
X001121Y009803D01*
X001117Y009902D02*
X001121Y009902D01*
X001117Y010000D02*
X001121Y010000D01*
X001117Y010099D02*
X001121Y010099D01*
X001301Y010410D02*
X001301Y008565D01*
X000770Y008034D01*
X001719Y007084D01*
X001719Y004989D01*
X002076Y004989D01*
X002463Y004602D01*
X003767Y003298D01*
X003767Y002542D01*
X003502Y002317D02*
X003399Y002317D01*
X003404Y002416D02*
X003286Y002416D01*
X003305Y002514D02*
X003174Y002514D01*
X003233Y002613D02*
X003062Y002613D01*
X002949Y002711D02*
X003251Y002711D01*
X003103Y003181D02*
X002542Y003767D01*
X002025Y003795D02*
X001996Y003795D01*
X002008Y003893D02*
X001931Y003893D01*
X001910Y003992D02*
X001865Y003992D01*
X001843Y004090D02*
X001799Y004090D01*
X001810Y004189D02*
X001878Y004189D01*
X001777Y004189D02*
X001733Y004189D01*
X001712Y004287D02*
X001667Y004287D01*
X001674Y004386D02*
X001601Y004386D01*
X001553Y004484D02*
X001536Y004484D01*
X001513Y004583D02*
X001470Y004583D01*
X001472Y004681D02*
X001418Y004681D01*
X001431Y004780D02*
X001369Y004780D01*
X001390Y004878D02*
X001321Y004878D01*
X001349Y004977D02*
X001272Y004977D01*
X001309Y005075D02*
X001223Y005075D01*
X001268Y005174D02*
X001175Y005174D01*
X001126Y005272D02*
X001259Y005272D01*
X001376Y005371D02*
X001078Y005371D01*
X001029Y005469D02*
X001539Y005469D01*
X001191Y005568D02*
X000981Y005568D01*
X000941Y005666D02*
X001104Y005666D01*
X001065Y005765D02*
X000907Y005765D01*
X000874Y005863D02*
X001065Y005863D01*
X001099Y005962D02*
X000840Y005962D01*
X000807Y006060D02*
X000939Y006060D01*
X001045Y006060D02*
X001078Y006060D01*
X000860Y006159D02*
X000773Y006159D01*
X000740Y006257D02*
X000819Y006257D01*
X000778Y006356D02*
X000706Y006356D01*
X000737Y006454D02*
X000673Y006454D01*
X000697Y006553D02*
X000640Y006553D01*
X000656Y006651D02*
X000606Y006651D01*
X000615Y006750D02*
X000583Y006750D01*
X000586Y006848D02*
X000564Y006848D01*
X000544Y006947D02*
X000654Y006947D01*
X000524Y007045D02*
X000892Y007045D01*
X001243Y007045D02*
X001504Y007045D01*
X001539Y006947D02*
X001284Y006947D01*
X001324Y006848D02*
X001539Y006848D01*
X001539Y006750D02*
X001365Y006750D01*
X001406Y006651D02*
X001539Y006651D01*
X001539Y006553D02*
X001447Y006553D01*
X001488Y006454D02*
X001539Y006454D01*
X001528Y006356D02*
X001539Y006356D01*
X001539Y006257D02*
X001497Y006257D01*
X001539Y006159D02*
X001427Y006159D01*
X001370Y005819D02*
X001057Y006589D01*
X001406Y007144D02*
X000505Y007144D01*
X000485Y007242D02*
X001307Y007242D01*
X001209Y007341D02*
X000466Y007341D01*
X000446Y007439D02*
X001110Y007439D01*
X001012Y007538D02*
X000426Y007538D01*
X000424Y007636D02*
X000407Y007636D01*
X000424Y007735D02*
X000387Y007735D01*
X000375Y007833D02*
X000424Y007833D01*
X000424Y007932D02*
X000368Y007932D01*
X000362Y008030D02*
X000424Y008030D01*
X000424Y008129D02*
X000356Y008129D01*
X000349Y008227D02*
X000424Y008227D01*
X000424Y008326D02*
X000343Y008326D01*
X000336Y008424D02*
X000424Y008424D01*
X000330Y008523D02*
X001004Y008523D01*
X001218Y008227D02*
X001683Y008227D01*
X001683Y008129D02*
X001119Y008129D01*
X001117Y008030D02*
X001683Y008030D01*
X001683Y007932D02*
X001127Y007932D01*
X001225Y007833D02*
X001683Y007833D01*
X001683Y007735D02*
X001324Y007735D01*
X001422Y007636D02*
X001683Y007636D01*
X001521Y007538D02*
X001925Y007538D01*
X001747Y007439D02*
X001619Y007439D01*
X001718Y007341D02*
X001720Y007341D01*
X002026Y007045D02*
X002177Y007045D01*
X002218Y006947D02*
X002326Y006947D01*
X002286Y007045D02*
X002288Y007045D01*
X002264Y007144D02*
X002526Y007144D01*
X002587Y007144D02*
X002757Y007144D01*
X002726Y007242D02*
X002502Y007242D01*
X002506Y007341D02*
X002695Y007341D01*
X002664Y007439D02*
X002465Y007439D01*
X002424Y007538D02*
X002649Y007538D01*
X002663Y007441D02*
X002663Y007441D01*
X002633Y007636D02*
X002376Y007636D01*
X002376Y007735D02*
X002618Y007735D01*
X002603Y007833D02*
X002376Y007833D01*
X002376Y007932D02*
X002588Y007932D01*
X002572Y008030D02*
X002376Y008030D01*
X002376Y008129D02*
X002557Y008129D01*
X002542Y008227D02*
X002376Y008227D01*
X002376Y008326D02*
X002527Y008326D01*
X002514Y008424D02*
X002376Y008424D01*
X002514Y008523D02*
X002216Y008523D01*
X002217Y008621D02*
X002514Y008621D01*
X002514Y008720D02*
X002299Y008720D01*
X002340Y008818D02*
X002514Y008818D01*
X002514Y008917D02*
X002345Y008917D01*
X002318Y009015D02*
X002514Y009015D01*
X002514Y009114D02*
X002248Y009114D01*
X002266Y009222D02*
X002304Y009233D01*
X002339Y009252D01*
X002366Y009280D01*
X002386Y009315D01*
X002396Y009353D01*
X002396Y009716D01*
X002080Y009716D01*
X002080Y009222D01*
X002266Y009222D01*
X002384Y009311D02*
X002514Y009311D01*
X002517Y009409D02*
X002396Y009409D01*
X002396Y009508D02*
X002532Y009508D01*
X002547Y009606D02*
X002396Y009606D01*
X002396Y009705D02*
X002562Y009705D01*
X002578Y009803D02*
X002080Y009803D01*
X002080Y009816D02*
X002396Y009816D01*
X002396Y010180D01*
X002386Y010218D01*
X002385Y010220D01*
X002697Y010973D01*
X002656Y011073D01*
X002600Y011096D01*
X002643Y011184D01*
X002652Y011184D01*
X002764Y011230D01*
X002850Y011316D01*
X002896Y011428D01*
X002896Y011549D01*
X002850Y011661D01*
X002764Y011747D01*
X002652Y011794D01*
X002530Y011794D01*
X002418Y011747D01*
X002332Y011661D01*
X002286Y011549D01*
X002286Y011428D01*
X002320Y011345D01*
X002267Y011234D01*
X002156Y011280D01*
X002057Y011238D01*
X001744Y010484D01*
X001785Y010385D01*
X001966Y010310D01*
X001794Y010310D01*
X001755Y010300D01*
X001721Y010280D01*
X001693Y010252D01*
X001674Y010218D01*
X001663Y010180D01*
X001663Y009816D01*
X001980Y009816D01*
X001980Y009716D01*
X002080Y009716D01*
X002080Y009816D01*
X001980Y009803D02*
X001481Y009803D01*
X001481Y009705D02*
X001663Y009705D01*
X001663Y009716D02*
X001663Y009353D01*
X001674Y009315D01*
X001693Y009280D01*
X001721Y009252D01*
X001755Y009233D01*
X001794Y009222D01*
X001980Y009222D01*
X001980Y009716D01*
X001663Y009716D01*
X001663Y009606D02*
X001481Y009606D01*
X001481Y009508D02*
X001663Y009508D01*
X001663Y009409D02*
X001481Y009409D01*
X001481Y009311D02*
X001676Y009311D01*
X001481Y009212D02*
X002514Y009212D01*
X002080Y009311D02*
X001980Y009311D01*
X001980Y009409D02*
X002080Y009409D01*
X002080Y009508D02*
X001980Y009508D01*
X001980Y009606D02*
X002080Y009606D01*
X002080Y009705D02*
X001980Y009705D01*
X001663Y009902D02*
X001481Y009902D01*
X001481Y010000D02*
X001663Y010000D01*
X001663Y010099D02*
X001481Y010099D01*
X001532Y010197D02*
X001668Y010197D01*
X001748Y010296D02*
X001551Y010296D01*
X001571Y010394D02*
X001782Y010394D01*
X001748Y010493D02*
X001590Y010493D01*
X001604Y010591D02*
X001788Y010591D01*
X001829Y010690D02*
X001481Y010690D01*
X001481Y010788D02*
X001870Y010788D01*
X001911Y010887D02*
X001481Y010887D01*
X001481Y010985D02*
X001952Y010985D01*
X001992Y011084D02*
X001438Y011084D01*
X001420Y011182D02*
X002033Y011182D01*
X002289Y011281D02*
X001461Y011281D01*
X001501Y011379D02*
X002306Y011379D01*
X002286Y011478D02*
X001578Y011478D01*
X001676Y011576D02*
X002297Y011576D01*
X002346Y011675D02*
X001775Y011675D01*
X001873Y011773D02*
X002481Y011773D01*
X002567Y011872D02*
X001972Y011872D01*
X002070Y011970D02*
X002404Y011970D01*
X002384Y012069D02*
X002169Y012069D01*
X002267Y012167D02*
X002420Y012167D01*
X002460Y012266D02*
X002366Y012266D01*
X002464Y012364D02*
X002501Y012364D01*
X002563Y012463D02*
X002692Y012463D01*
X002669Y012364D02*
X002844Y012364D01*
X002803Y012266D02*
X002906Y012266D01*
X002911Y012266D02*
X003168Y012266D01*
X003254Y012266D02*
X003459Y012266D01*
X003394Y012173D02*
X003394Y012173D01*
X003391Y012167D02*
X003144Y012167D01*
X003172Y012069D02*
X003343Y012069D01*
X003294Y011970D02*
X003131Y011970D01*
X003091Y011872D02*
X003245Y011872D01*
X003196Y011773D02*
X003036Y011773D01*
X003148Y011675D02*
X002836Y011675D01*
X002805Y011773D02*
X002701Y011773D01*
X002748Y011872D02*
X002640Y011872D01*
X002681Y011970D02*
X002789Y011970D01*
X002830Y012069D02*
X002721Y012069D01*
X002762Y012167D02*
X002870Y012167D01*
X003295Y012364D02*
X003529Y012364D01*
X003598Y012463D02*
X003335Y012463D01*
X003376Y012561D02*
X003667Y012561D01*
X003737Y012660D02*
X003440Y012660D01*
X003539Y012758D02*
X003806Y012758D01*
X003875Y012857D02*
X003637Y012857D01*
X003736Y012955D02*
X003944Y012955D01*
X004034Y013054D02*
X003834Y013054D01*
X003933Y013152D02*
X004129Y013152D01*
X004224Y013251D02*
X003967Y013251D01*
X003931Y013349D02*
X004318Y013349D01*
X004413Y013448D02*
X004196Y013448D01*
X004332Y013546D02*
X004508Y013546D01*
X004603Y013645D02*
X004381Y013645D01*
X004392Y013743D02*
X004719Y013743D01*
X004651Y013842D02*
X004848Y013842D01*
X004749Y013940D02*
X004978Y013940D01*
X005107Y014039D02*
X004848Y014039D01*
X004817Y014137D02*
X005236Y014137D01*
X005365Y014236D02*
X005045Y014236D01*
X005143Y014334D02*
X005525Y014334D01*
X005418Y014276D02*
X005418Y014276D01*
X005228Y014433D02*
X005706Y014433D01*
X005683Y014630D02*
X006068Y014630D01*
X005921Y014728D02*
X006249Y014728D01*
X006011Y014827D02*
X006508Y014827D01*
X006478Y015024D02*
X007057Y015024D01*
X006925Y015122D02*
X007440Y015122D01*
X007162Y015221D02*
X007948Y015221D01*
X007233Y015319D02*
X007125Y015319D01*
X007084Y015418D02*
X007192Y015418D01*
X007152Y015516D02*
X007049Y015516D01*
X007025Y015615D02*
X007003Y015615D01*
X006962Y015713D02*
X007070Y015713D01*
X007029Y015812D02*
X006921Y015812D01*
X006674Y015812D02*
X005245Y015812D01*
X005169Y015713D02*
X006500Y015713D01*
X006475Y015615D02*
X005134Y015615D01*
X005036Y015516D02*
X006108Y015516D01*
X006023Y015418D02*
X004937Y015418D01*
X004958Y015319D02*
X005537Y015319D01*
X005828Y015319D02*
X005953Y015319D01*
X006292Y015268D02*
X005471Y014917D01*
X005299Y015221D02*
X004909Y015221D01*
X004762Y015122D02*
X005061Y015122D01*
X004938Y015024D02*
X004615Y015024D01*
X004702Y014925D02*
X004445Y014925D01*
X004346Y014827D02*
X004599Y014827D01*
X004501Y014728D02*
X004248Y014728D01*
X004149Y014630D02*
X004466Y014630D01*
X004423Y014531D02*
X004565Y014531D01*
X004522Y014433D02*
X004653Y014433D01*
X004620Y014334D02*
X004554Y014334D01*
X004597Y014236D02*
X004456Y014236D01*
X004499Y014137D02*
X004357Y014137D01*
X004400Y014039D02*
X004259Y014039D01*
X004217Y014039D02*
X003558Y014039D01*
X003657Y014137D02*
X004119Y014137D01*
X004076Y014236D02*
X003755Y014236D01*
X003854Y014334D02*
X004107Y014334D01*
X004205Y014433D02*
X003952Y014433D01*
X004051Y014531D02*
X004304Y014531D01*
X004696Y014334D02*
X004762Y014334D01*
X004719Y014236D02*
X004860Y014236D01*
X004414Y013842D02*
X004372Y013842D01*
X004316Y013940D02*
X004311Y013940D01*
X004087Y013733D02*
X003433Y013142D01*
X003150Y013349D02*
X002722Y013349D01*
X002722Y013251D02*
X003051Y013251D01*
X002953Y013152D02*
X002722Y013152D01*
X002722Y013054D02*
X002899Y013054D01*
X002935Y012955D02*
X002722Y012955D01*
X002542Y012696D02*
X002542Y014033D01*
X003298Y014033D01*
X004602Y015337D01*
X004989Y015724D01*
X004989Y016081D01*
X007577Y016081D01*
X008280Y016784D01*
X008565Y016499D01*
X010410Y016499D01*
X010966Y016499D01*
X011211Y016743D01*
X010811Y016304D02*
X010685Y016304D01*
X010606Y016206D02*
X010790Y016206D01*
X010800Y016107D02*
X010251Y016107D01*
X010309Y016009D02*
X010382Y016009D01*
X010341Y015910D02*
X010310Y015910D01*
X010598Y016009D02*
X010848Y016009D01*
X010513Y016206D02*
X007956Y016206D01*
X008055Y016304D02*
X010116Y016304D01*
X009816Y016107D02*
X009716Y016107D01*
X009716Y016009D02*
X009816Y016009D01*
X009816Y015910D02*
X009716Y015910D01*
X010119Y015188D02*
X010119Y015188D01*
X009343Y016698D02*
X008620Y016698D01*
X008522Y016797D02*
X008769Y016797D01*
X008692Y016895D02*
X008518Y016895D01*
X008518Y016994D02*
X008660Y016994D01*
X008660Y017092D02*
X008518Y017092D01*
X008518Y017191D02*
X008701Y017191D01*
X008791Y017289D02*
X008518Y017289D01*
X008763Y017486D02*
X009037Y017486D01*
X009139Y017289D02*
X009282Y017289D01*
X008965Y017032D02*
X009766Y017030D01*
X009282Y016797D02*
X009161Y016797D01*
X008407Y016403D02*
X008153Y016403D01*
X008252Y016501D02*
X008308Y016501D01*
X008280Y016784D02*
X008034Y017030D01*
X006509Y015516D02*
X006475Y015516D01*
X006782Y014925D02*
X005992Y014925D01*
X005887Y014531D02*
X005446Y014531D01*
X004984Y014827D02*
X004967Y014827D01*
X004943Y014925D02*
X004864Y014925D01*
X004231Y015221D02*
X004220Y015221D01*
X004132Y015122D02*
X004121Y015122D01*
X004034Y015024D02*
X004023Y015024D01*
X003935Y014925D02*
X003924Y014925D01*
X003837Y014827D02*
X003826Y014827D01*
X003738Y014728D02*
X003727Y014728D01*
X003612Y014728D02*
X003488Y014728D01*
X003486Y014630D02*
X003640Y014630D01*
X003541Y014531D02*
X003451Y014531D01*
X003443Y014433D02*
X003368Y014433D01*
X003344Y014334D02*
X002926Y014334D01*
X002995Y014433D02*
X002827Y014433D01*
X002912Y014531D02*
X002729Y014531D01*
X003024Y014236D02*
X003246Y014236D01*
X003460Y013940D02*
X003863Y013940D01*
X003802Y013842D02*
X002841Y013842D01*
X002742Y013743D02*
X003782Y013743D01*
X003721Y013645D02*
X003615Y013645D01*
X003445Y013645D02*
X002722Y013645D01*
X002722Y013546D02*
X003347Y013546D01*
X003248Y013448D02*
X002722Y013448D01*
X002362Y013251D02*
X001925Y013251D01*
X002156Y013152D02*
X002362Y013152D01*
X002362Y013054D02*
X002195Y013054D01*
X002154Y012955D02*
X002362Y012955D01*
X002362Y012857D02*
X002113Y012857D01*
X002073Y012758D02*
X002349Y012758D01*
X002251Y012660D02*
X002032Y012660D01*
X001991Y012561D02*
X002152Y012561D01*
X002054Y012463D02*
X001950Y012463D01*
X001955Y012364D02*
X001909Y012364D01*
X001857Y012266D02*
X001796Y012266D01*
X001771Y012266D02*
X001684Y012266D01*
X001704Y012167D02*
X001758Y012167D01*
X001410Y012079D02*
X001719Y012811D01*
X002542Y012696D02*
X001057Y011211D01*
X001301Y010966D01*
X001301Y010410D01*
X000770Y009766D02*
X000780Y008969D01*
X001415Y008424D02*
X001683Y008424D01*
X001683Y008326D02*
X001316Y008326D01*
X001481Y008523D02*
X001856Y008523D01*
X001857Y008621D02*
X001481Y008621D01*
X001481Y008720D02*
X001780Y008720D01*
X001740Y008818D02*
X001481Y008818D01*
X001481Y008917D02*
X001735Y008917D01*
X001761Y009015D02*
X001481Y009015D01*
X001481Y009114D02*
X001832Y009114D01*
X002040Y008890D02*
X002030Y008034D01*
X002050Y006947D02*
X001899Y006947D01*
X001899Y006848D02*
X001916Y006848D01*
X001899Y006750D02*
X001957Y006750D01*
X001998Y006651D02*
X001899Y006651D01*
X001899Y006553D02*
X002039Y006553D01*
X002300Y006750D02*
X002408Y006750D01*
X002367Y006848D02*
X002259Y006848D01*
X002340Y006651D02*
X002449Y006651D01*
X002627Y006651D02*
X002913Y006651D01*
X002882Y006750D02*
X002717Y006750D01*
X002710Y006848D02*
X002851Y006848D01*
X002820Y006947D02*
X002669Y006947D01*
X002628Y007045D02*
X002789Y007045D01*
X002591Y006213D02*
X002883Y005471D01*
X002956Y004977D02*
X002983Y004977D01*
X002026Y004287D02*
X001958Y004287D01*
X003959Y004825D02*
X003959Y004825D01*
X004128Y002219D02*
X004171Y002219D01*
X004244Y002120D02*
X004030Y002120D01*
X003931Y002022D02*
X004380Y002022D01*
X004549Y001923D02*
X003904Y001923D01*
X003798Y002022D02*
X003757Y002022D01*
X003699Y002120D02*
X003623Y002120D01*
X003601Y002219D02*
X003511Y002219D01*
X004052Y001825D02*
X004508Y001825D01*
X004467Y001726D02*
X004199Y001726D01*
X004347Y001628D02*
X004449Y001628D01*
X004494Y001529D02*
X004543Y001529D01*
X004655Y001431D02*
X004781Y001431D01*
X004855Y001332D02*
X005019Y001332D01*
X005055Y001234D02*
X005486Y001234D01*
X005443Y001332D02*
X005352Y001332D01*
X005254Y001135D02*
X005607Y001135D01*
X005454Y001037D02*
X006057Y001037D01*
X006061Y000938D02*
X005673Y000938D01*
X005874Y001135D02*
X006097Y001135D01*
X006138Y001234D02*
X005996Y001234D01*
X006038Y001332D02*
X006072Y001332D01*
X005741Y001410D02*
X004989Y001719D01*
X005964Y000840D02*
X006208Y000840D01*
X006254Y000741D02*
X006445Y000741D01*
X006544Y000643D02*
X006683Y000643D01*
X006942Y000643D02*
X006950Y000643D01*
X006946Y000544D02*
X007096Y000544D01*
X007221Y000544D02*
X007259Y000544D01*
X007240Y000643D02*
X007279Y000643D01*
X007260Y000741D02*
X007298Y000741D01*
X007441Y000446D02*
X007604Y000446D01*
X006709Y001431D02*
X006592Y001431D01*
X002593Y009902D02*
X002396Y009902D01*
X002396Y010000D02*
X002608Y010000D01*
X002623Y010099D02*
X002396Y010099D01*
X002392Y010197D02*
X002638Y010197D01*
X002654Y010296D02*
X002416Y010296D01*
X002457Y010394D02*
X002674Y010394D01*
X002663Y010359D02*
X002663Y010359D01*
X002706Y010493D02*
X002498Y010493D01*
X002539Y010591D02*
X002737Y010591D01*
X002768Y010690D02*
X002579Y010690D01*
X002620Y010788D02*
X002799Y010788D01*
X002830Y010887D02*
X002661Y010887D01*
X002692Y010985D02*
X002861Y010985D01*
X002893Y011084D02*
X002630Y011084D01*
X002642Y011182D02*
X002924Y011182D01*
X002955Y011281D02*
X002814Y011281D01*
X002876Y011379D02*
X003001Y011379D01*
X002959Y011294D02*
X002959Y011294D01*
X002896Y011478D02*
X003050Y011478D01*
X003099Y011576D02*
X002885Y011576D01*
X002591Y011489D02*
X002221Y010729D01*
X003031Y012857D02*
X003034Y012857D01*
X003181Y014678D02*
X003767Y015258D01*
X004262Y015812D02*
X004308Y015812D01*
X004242Y015910D02*
X004196Y015910D01*
X005921Y016698D02*
X006032Y016698D01*
D18*
X005819Y016410D03*
X006292Y015268D03*
X004087Y013733D03*
X003181Y014678D03*
X001410Y012079D03*
X002591Y011489D03*
X000780Y008969D03*
X002040Y008890D03*
X002591Y006213D03*
X001370Y005819D03*
X003103Y003181D03*
X004126Y004008D03*
X006260Y002572D03*
X006320Y001980D03*
X005741Y001410D03*
X008890Y000780D03*
X008930Y002040D03*
X011567Y002591D03*
X012000Y001370D03*
X013733Y004008D03*
X014638Y003142D03*
X016410Y005741D03*
X015268Y006292D03*
X017040Y008890D03*
X015770Y008930D03*
X015268Y011528D03*
X016410Y012000D03*
X014689Y014611D03*
X013733Y013772D03*
X011500Y015250D03*
X011095Y016193D03*
X012119Y016390D03*
X008965Y017032D03*
X008890Y015780D03*
M02*
