G75*
%MOIN*%
%OFA0B0*%
%FSLAX24Y24*%
%IPPOS*%
%LPD*%
%AMOC8*
5,1,8,0,0,1.08239X$1,22.5*
%
%ADD10R,0.0787X0.0433*%
%ADD11R,0.0709X0.0433*%
%ADD12R,0.0433X0.0787*%
%ADD13R,0.0433X0.0709*%
%ADD14R,0.0276X0.0354*%
D10*
G36*
X003558Y004228D02*
X003003Y004783D01*
X003308Y005088D01*
X003863Y004533D01*
X003558Y004228D01*
G37*
G36*
X005751Y002534D02*
X005026Y002834D01*
X005191Y003232D01*
X005916Y002932D01*
X005751Y002534D01*
G37*
X008034Y002030D03*
G36*
X011174Y002172D02*
X010449Y001872D01*
X010284Y002270D01*
X011009Y002570D01*
X011174Y002172D01*
G37*
G36*
X013572Y003558D02*
X013017Y003003D01*
X012712Y003308D01*
X013267Y003863D01*
X013572Y003558D01*
G37*
G36*
X015266Y005751D02*
X014966Y005026D01*
X014568Y005191D01*
X014868Y005916D01*
X015266Y005751D01*
G37*
G36*
X015628Y011174D02*
X015928Y010449D01*
X015530Y010284D01*
X015230Y011009D01*
X015628Y011174D01*
G37*
G36*
X014242Y013572D02*
X014797Y013017D01*
X014492Y012712D01*
X013937Y013267D01*
X014242Y013572D01*
G37*
G36*
X012049Y015266D02*
X012774Y014966D01*
X012609Y014568D01*
X011884Y014868D01*
X012049Y015266D01*
G37*
X009766Y015770D03*
G36*
X006626Y015628D02*
X007351Y015928D01*
X007516Y015530D01*
X006791Y015230D01*
X006626Y015628D01*
G37*
G36*
X004228Y014242D02*
X004783Y014797D01*
X005088Y014492D01*
X004533Y013937D01*
X004228Y014242D01*
G37*
G36*
X002534Y012049D02*
X002834Y012774D01*
X003232Y012609D01*
X002932Y011884D01*
X002534Y012049D01*
G37*
G36*
X002172Y006626D02*
X001872Y007351D01*
X002270Y007516D01*
X002570Y006791D01*
X002172Y006626D01*
G37*
D11*
G36*
X002639Y003364D02*
X002139Y003864D01*
X002445Y004170D01*
X002945Y003670D01*
X002639Y003364D01*
G37*
G36*
X003864Y002139D02*
X003364Y002639D01*
X003670Y002945D01*
X004170Y002445D01*
X003864Y002139D01*
G37*
G36*
X005233Y001384D02*
X004580Y001655D01*
X004745Y002054D01*
X005398Y001783D01*
X005233Y001384D01*
G37*
G36*
X006833Y000722D02*
X006180Y000993D01*
X006345Y001392D01*
X006998Y001121D01*
X006833Y000722D01*
G37*
X008034Y000770D03*
G36*
X007315Y001886D02*
X006662Y002157D01*
X006827Y002556D01*
X007480Y002285D01*
X007315Y001886D01*
G37*
X009766Y002030D03*
X009766Y000770D03*
G36*
X011620Y000993D02*
X010967Y000722D01*
X010802Y001121D01*
X011455Y001392D01*
X011620Y000993D01*
G37*
G36*
X013220Y001655D02*
X012567Y001384D01*
X012402Y001783D01*
X013055Y002054D01*
X013220Y001655D01*
G37*
G36*
X014436Y002639D02*
X013936Y002139D01*
X013630Y002445D01*
X014130Y002945D01*
X014436Y002639D01*
G37*
G36*
X015661Y003864D02*
X015161Y003364D01*
X014855Y003670D01*
X015355Y004170D01*
X015661Y003864D01*
G37*
G36*
X016416Y005233D02*
X016145Y004580D01*
X015746Y004745D01*
X016017Y005398D01*
X016416Y005233D01*
G37*
G36*
X017078Y006833D02*
X016807Y006180D01*
X016408Y006345D01*
X016679Y006998D01*
X017078Y006833D01*
G37*
G36*
X015914Y007315D02*
X015643Y006662D01*
X015244Y006827D01*
X015515Y007480D01*
X015914Y007315D01*
G37*
G36*
X014770Y004755D02*
X014270Y004255D01*
X013964Y004561D01*
X014464Y005061D01*
X014770Y004755D01*
G37*
G36*
X012738Y002819D02*
X012085Y002548D01*
X011920Y002947D01*
X012573Y003218D01*
X012738Y002819D01*
G37*
G36*
X004755Y003030D02*
X004255Y003530D01*
X004561Y003836D01*
X005061Y003336D01*
X004755Y003030D01*
G37*
G36*
X002819Y005062D02*
X002548Y005715D01*
X002947Y005880D01*
X003218Y005227D01*
X002819Y005062D01*
G37*
G36*
X001655Y004580D02*
X001384Y005233D01*
X001783Y005398D01*
X002054Y004745D01*
X001655Y004580D01*
G37*
G36*
X000993Y006180D02*
X000722Y006833D01*
X001121Y006998D01*
X001392Y006345D01*
X000993Y006180D01*
G37*
G36*
X001886Y010485D02*
X002157Y011138D01*
X002556Y010973D01*
X002285Y010320D01*
X001886Y010485D01*
G37*
G36*
X000722Y010967D02*
X000993Y011620D01*
X001392Y011455D01*
X001121Y010802D01*
X000722Y010967D01*
G37*
G36*
X001384Y012567D02*
X001655Y013220D01*
X002054Y013055D01*
X001783Y012402D01*
X001384Y012567D01*
G37*
G36*
X002139Y013936D02*
X002639Y014436D01*
X002945Y014130D01*
X002445Y013630D01*
X002139Y013936D01*
G37*
G36*
X003030Y013045D02*
X003530Y013545D01*
X003836Y013239D01*
X003336Y012739D01*
X003030Y013045D01*
G37*
G36*
X003364Y015161D02*
X003864Y015661D01*
X004170Y015355D01*
X003670Y014855D01*
X003364Y015161D01*
G37*
G36*
X004580Y016145D02*
X005233Y016416D01*
X005398Y016017D01*
X004745Y015746D01*
X004580Y016145D01*
G37*
G36*
X005062Y014981D02*
X005715Y015252D01*
X005880Y014853D01*
X005227Y014582D01*
X005062Y014981D01*
G37*
G36*
X006180Y016807D02*
X006833Y017078D01*
X006998Y016679D01*
X006345Y016408D01*
X006180Y016807D01*
G37*
X008034Y017030D03*
X008034Y015770D03*
X009766Y017030D03*
G36*
X010967Y017078D02*
X011620Y016807D01*
X011455Y016408D01*
X010802Y016679D01*
X010967Y017078D01*
G37*
G36*
X010485Y015914D02*
X011138Y015643D01*
X010973Y015244D01*
X010320Y015515D01*
X010485Y015914D01*
G37*
G36*
X012567Y016416D02*
X013220Y016145D01*
X013055Y015746D01*
X012402Y016017D01*
X012567Y016416D01*
G37*
G36*
X013936Y015661D02*
X014436Y015161D01*
X014130Y014855D01*
X013630Y015355D01*
X013936Y015661D01*
G37*
G36*
X013045Y014770D02*
X013545Y014270D01*
X013239Y013964D01*
X012739Y014464D01*
X013045Y014770D01*
G37*
G36*
X015161Y014436D02*
X015661Y013936D01*
X015355Y013630D01*
X014855Y014130D01*
X015161Y014436D01*
G37*
G36*
X016145Y013220D02*
X016416Y012567D01*
X016017Y012402D01*
X015746Y013055D01*
X016145Y013220D01*
G37*
G36*
X014981Y012738D02*
X015252Y012085D01*
X014853Y011920D01*
X014582Y012573D01*
X014981Y012738D01*
G37*
G36*
X016807Y011620D02*
X017078Y010967D01*
X016679Y010802D01*
X016408Y011455D01*
X016807Y011620D01*
G37*
D12*
X015770Y008034D03*
X002030Y009766D03*
D13*
X000770Y009766D03*
X000770Y008034D03*
X002030Y008034D03*
X015770Y009766D03*
X017030Y009766D03*
X017030Y008034D03*
D14*
G36*
X016599Y007190D02*
X016330Y007244D01*
X016399Y007590D01*
X016668Y007536D01*
X016599Y007190D01*
G37*
G36*
X017101Y007090D02*
X016832Y007144D01*
X016901Y007490D01*
X017170Y007436D01*
X017101Y007090D01*
G37*
G36*
X013128Y002250D02*
X012975Y002479D01*
X013268Y002676D01*
X013421Y002447D01*
X013128Y002250D01*
G37*
G36*
X013412Y001824D02*
X013259Y002053D01*
X013552Y002250D01*
X013705Y002021D01*
X013412Y001824D01*
G37*
G36*
X007190Y001201D02*
X007244Y001470D01*
X007590Y001401D01*
X007536Y001132D01*
X007190Y001201D01*
G37*
G36*
X007090Y000699D02*
X007144Y000968D01*
X007490Y000899D01*
X007436Y000630D01*
X007090Y000699D01*
G37*
G36*
X002250Y004672D02*
X002479Y004825D01*
X002676Y004532D01*
X002447Y004379D01*
X002250Y004672D01*
G37*
G36*
X001824Y004388D02*
X002053Y004541D01*
X002250Y004248D01*
X002021Y004095D01*
X001824Y004388D01*
G37*
G36*
X001201Y010610D02*
X001470Y010556D01*
X001401Y010210D01*
X001132Y010264D01*
X001201Y010610D01*
G37*
G36*
X000699Y010710D02*
X000968Y010656D01*
X000899Y010310D01*
X000630Y010364D01*
X000699Y010710D01*
G37*
G36*
X004672Y015550D02*
X004825Y015321D01*
X004532Y015124D01*
X004379Y015353D01*
X004672Y015550D01*
G37*
G36*
X004388Y015976D02*
X004541Y015747D01*
X004248Y015550D01*
X004095Y015779D01*
X004388Y015976D01*
G37*
G36*
X010610Y016599D02*
X010556Y016330D01*
X010210Y016399D01*
X010264Y016668D01*
X010610Y016599D01*
G37*
G36*
X010710Y017101D02*
X010656Y016832D01*
X010310Y016901D01*
X010364Y017170D01*
X010710Y017101D01*
G37*
G36*
X015550Y013128D02*
X015321Y012975D01*
X015124Y013268D01*
X015353Y013421D01*
X015550Y013128D01*
G37*
G36*
X015976Y013412D02*
X015747Y013259D01*
X015550Y013552D01*
X015779Y013705D01*
X015976Y013412D01*
G37*
M02*
