%
M48
M72
T01C0.0150
T02C0.0400
%
T01
X3103Y3247
X4126Y4073
X6260Y2637
X6320Y2045
X5741Y1475
X8890Y845
X8930Y2105
X11567Y2656
X12000Y1436
X13733Y4073
X14638Y3207
X16410Y5806
X15268Y6357
X15770Y8995
X17040Y8955
X15268Y11593
X16410Y12066
X14689Y14676
X13733Y13837
X11500Y15315
X11095Y16258
X12119Y16455
X8965Y17097
X8890Y15845
X6292Y15333
X5819Y16475
X3181Y14743
X4087Y13798
X2591Y11554
X1410Y12144
X780Y9034
X2040Y8955
X2591Y6278
X1370Y5884
T02
X4570Y2495
X10420Y1325
X13230Y15435
X7380Y16605
M30
