G75*
%MOIN*%
%OFA0B0*%
%FSLAX24Y24*%
%IPPOS*%
%LPD*%
%AMOC8*
5,1,8,0,0,1.08239X$1,22.5*
%
%ADD10C,0.0080*%
%ADD11C,0.0079*%
%ADD12C,0.0160*%
%ADD13C,0.0060*%
D10*
X002626Y003182D02*
X003182Y002626D01*
X003150Y002848D02*
X003152Y002866D01*
X003158Y002884D01*
X003167Y002900D01*
X003179Y002913D01*
X003194Y002924D01*
X003211Y002932D01*
X003229Y002936D01*
X003247Y002936D01*
X003265Y002932D01*
X003282Y002924D01*
X003297Y002913D01*
X003309Y002900D01*
X003318Y002884D01*
X003324Y002866D01*
X003326Y002848D01*
X003324Y002830D01*
X003318Y002812D01*
X003309Y002796D01*
X003297Y002783D01*
X003282Y002772D01*
X003265Y002764D01*
X003247Y002760D01*
X003229Y002760D01*
X003211Y002764D01*
X003194Y002772D01*
X003179Y002783D01*
X003167Y002796D01*
X003158Y002812D01*
X003152Y002830D01*
X003150Y002848D01*
X004045Y002653D02*
X004101Y002709D01*
X004491Y003099D02*
X004547Y003155D01*
X005256Y002674D02*
X005226Y002601D01*
X005015Y002092D02*
X004985Y002019D01*
X004354Y001824D02*
X004121Y001979D01*
X004160Y001785D02*
X004315Y002018D01*
X005290Y001211D02*
X006017Y000910D01*
X005895Y001137D02*
X005897Y001155D01*
X005903Y001173D01*
X005912Y001189D01*
X005924Y001202D01*
X005939Y001213D01*
X005956Y001221D01*
X005974Y001225D01*
X005992Y001225D01*
X006010Y001221D01*
X006027Y001213D01*
X006042Y001202D01*
X006054Y001189D01*
X006063Y001173D01*
X006069Y001155D01*
X006071Y001137D01*
X006069Y001119D01*
X006063Y001101D01*
X006054Y001085D01*
X006042Y001072D01*
X006027Y001061D01*
X006010Y001053D01*
X005992Y001049D01*
X005974Y001049D01*
X005956Y001053D01*
X005939Y001061D01*
X005924Y001072D01*
X005912Y001085D01*
X005903Y001101D01*
X005897Y001119D01*
X005895Y001137D01*
X006804Y001266D02*
X006834Y001339D01*
X007045Y001848D02*
X007075Y001921D01*
X007916Y001754D02*
X007916Y001676D01*
X007916Y001124D02*
X007916Y001046D01*
X008506Y000416D02*
X009294Y000416D01*
X009088Y000613D02*
X009090Y000631D01*
X009096Y000649D01*
X009105Y000665D01*
X009117Y000678D01*
X009132Y000689D01*
X009149Y000697D01*
X009167Y000701D01*
X009185Y000701D01*
X009203Y000697D01*
X009220Y000689D01*
X009235Y000678D01*
X009247Y000665D01*
X009256Y000649D01*
X009262Y000631D01*
X009264Y000613D01*
X009262Y000595D01*
X009256Y000577D01*
X009247Y000561D01*
X009235Y000548D01*
X009220Y000537D01*
X009203Y000529D01*
X009185Y000525D01*
X009167Y000525D01*
X009149Y000529D01*
X009132Y000537D01*
X009117Y000548D01*
X009105Y000561D01*
X009096Y000577D01*
X009090Y000595D01*
X009088Y000613D01*
X009884Y001046D02*
X009884Y001124D01*
X009884Y001676D02*
X009884Y001754D01*
X009294Y002384D02*
X008506Y002384D01*
X006770Y002729D02*
X006043Y003030D01*
X004574Y004018D02*
X004018Y004574D01*
X003155Y004547D02*
X003099Y004491D01*
X002709Y004101D02*
X002653Y004045D01*
X002092Y005015D02*
X002019Y004985D01*
X002601Y005226D02*
X002674Y005256D01*
X003030Y006043D02*
X002729Y006770D01*
X001921Y007075D02*
X001848Y007045D01*
X001339Y006834D02*
X001266Y006804D01*
X000910Y006017D02*
X001211Y005290D01*
X001260Y005474D02*
X001262Y005492D01*
X001268Y005510D01*
X001277Y005526D01*
X001289Y005539D01*
X001304Y005550D01*
X001321Y005558D01*
X001339Y005562D01*
X001357Y005562D01*
X001375Y005558D01*
X001392Y005550D01*
X001407Y005539D01*
X001419Y005526D01*
X001428Y005510D01*
X001434Y005492D01*
X001436Y005474D01*
X001434Y005456D01*
X001428Y005438D01*
X001419Y005422D01*
X001407Y005409D01*
X001392Y005398D01*
X001375Y005390D01*
X001357Y005386D01*
X001339Y005386D01*
X001321Y005390D01*
X001304Y005398D01*
X001289Y005409D01*
X001277Y005422D01*
X001268Y005438D01*
X001262Y005456D01*
X001260Y005474D01*
X001124Y007916D02*
X001046Y007916D01*
X000416Y008506D02*
X000416Y009294D01*
X001046Y009884D02*
X001124Y009884D01*
X001676Y009884D02*
X001754Y009884D01*
X002384Y009294D02*
X002384Y008506D01*
X001754Y007916D02*
X001676Y007916D01*
X000525Y008624D02*
X000527Y008642D01*
X000533Y008660D01*
X000542Y008676D01*
X000554Y008689D01*
X000569Y008700D01*
X000586Y008708D01*
X000604Y008712D01*
X000622Y008712D01*
X000640Y008708D01*
X000657Y008700D01*
X000672Y008689D01*
X000684Y008676D01*
X000693Y008660D01*
X000699Y008642D01*
X000701Y008624D01*
X000699Y008606D01*
X000693Y008588D01*
X000684Y008572D01*
X000672Y008559D01*
X000657Y008548D01*
X000640Y008540D01*
X000622Y008536D01*
X000604Y008536D01*
X000586Y008540D01*
X000569Y008548D01*
X000554Y008559D01*
X000542Y008572D01*
X000533Y008588D01*
X000527Y008606D01*
X000525Y008624D01*
X001848Y010755D02*
X001921Y010725D01*
X001339Y010966D02*
X001266Y010996D01*
X001049Y011817D02*
X001051Y011835D01*
X001057Y011853D01*
X001066Y011869D01*
X001078Y011882D01*
X001093Y011893D01*
X001110Y011901D01*
X001128Y011905D01*
X001146Y011905D01*
X001164Y011901D01*
X001181Y011893D01*
X001196Y011882D01*
X001208Y011869D01*
X001217Y011853D01*
X001223Y011835D01*
X001225Y011817D01*
X001223Y011799D01*
X001217Y011781D01*
X001208Y011765D01*
X001196Y011752D01*
X001181Y011741D01*
X001164Y011733D01*
X001146Y011729D01*
X001128Y011729D01*
X001110Y011733D01*
X001093Y011741D01*
X001078Y011752D01*
X001066Y011765D01*
X001057Y011781D01*
X001051Y011799D01*
X001049Y011817D01*
X000910Y011783D02*
X001211Y012510D01*
X002019Y012815D02*
X002092Y012785D01*
X002601Y012574D02*
X002674Y012544D01*
X003155Y013253D02*
X003099Y013309D01*
X002709Y013699D02*
X002653Y013755D01*
X002760Y014562D02*
X002762Y014580D01*
X002768Y014598D01*
X002777Y014614D01*
X002789Y014627D01*
X002804Y014638D01*
X002821Y014646D01*
X002839Y014650D01*
X002857Y014650D01*
X002875Y014646D01*
X002892Y014638D01*
X002907Y014627D01*
X002919Y014614D01*
X002928Y014598D01*
X002934Y014580D01*
X002936Y014562D01*
X002934Y014544D01*
X002928Y014526D01*
X002919Y014510D01*
X002907Y014497D01*
X002892Y014486D01*
X002875Y014478D01*
X002857Y014474D01*
X002839Y014474D01*
X002821Y014478D01*
X002804Y014486D01*
X002789Y014497D01*
X002777Y014510D01*
X002768Y014526D01*
X002762Y014544D01*
X002760Y014562D01*
X002626Y014618D02*
X003182Y015174D01*
X004045Y015147D02*
X004101Y015091D01*
X004491Y014701D02*
X004547Y014645D01*
X005256Y015126D02*
X005226Y015199D01*
X005015Y015708D02*
X004985Y015781D01*
X005386Y016452D02*
X005388Y016470D01*
X005394Y016488D01*
X005403Y016504D01*
X005415Y016517D01*
X005430Y016528D01*
X005447Y016536D01*
X005465Y016540D01*
X005483Y016540D01*
X005501Y016536D01*
X005518Y016528D01*
X005533Y016517D01*
X005545Y016504D01*
X005554Y016488D01*
X005560Y016470D01*
X005562Y016452D01*
X005560Y016434D01*
X005554Y016416D01*
X005545Y016400D01*
X005533Y016387D01*
X005518Y016376D01*
X005501Y016368D01*
X005483Y016364D01*
X005465Y016364D01*
X005447Y016368D01*
X005430Y016376D01*
X005415Y016387D01*
X005403Y016400D01*
X005394Y016416D01*
X005388Y016434D01*
X005386Y016452D01*
X005290Y016589D02*
X006017Y016890D01*
X006804Y016534D02*
X006834Y016461D01*
X007045Y015952D02*
X007075Y015879D01*
X007916Y016046D02*
X007916Y016124D01*
X007916Y016676D02*
X007916Y016754D01*
X008506Y017384D02*
X009294Y017384D01*
X009884Y016754D02*
X009884Y016676D01*
X009884Y016124D02*
X009884Y016046D01*
X009294Y015416D02*
X008506Y015416D01*
X006770Y015071D02*
X006043Y014770D01*
X004574Y013782D02*
X004018Y013226D01*
X003030Y011757D02*
X002729Y011030D01*
X008536Y017187D02*
X008538Y017205D01*
X008544Y017223D01*
X008553Y017239D01*
X008565Y017252D01*
X008580Y017263D01*
X008597Y017271D01*
X008615Y017275D01*
X008633Y017275D01*
X008651Y017271D01*
X008668Y017263D01*
X008683Y017252D01*
X008695Y017239D01*
X008704Y017223D01*
X008710Y017205D01*
X008712Y017187D01*
X008710Y017169D01*
X008704Y017151D01*
X008695Y017135D01*
X008683Y017122D01*
X008668Y017111D01*
X008651Y017103D01*
X008633Y017099D01*
X008615Y017099D01*
X008597Y017103D01*
X008580Y017111D01*
X008565Y017122D01*
X008553Y017135D01*
X008544Y017151D01*
X008538Y017169D01*
X008536Y017187D01*
X010755Y015952D02*
X010725Y015879D01*
X010966Y016461D02*
X010996Y016534D01*
X011729Y016663D02*
X011731Y016681D01*
X011737Y016699D01*
X011746Y016715D01*
X011758Y016728D01*
X011773Y016739D01*
X011790Y016747D01*
X011808Y016751D01*
X011826Y016751D01*
X011844Y016747D01*
X011861Y016739D01*
X011876Y016728D01*
X011888Y016715D01*
X011897Y016699D01*
X011903Y016681D01*
X011905Y016663D01*
X011903Y016645D01*
X011897Y016627D01*
X011888Y016611D01*
X011876Y016598D01*
X011861Y016587D01*
X011844Y016579D01*
X011826Y016575D01*
X011808Y016575D01*
X011790Y016579D01*
X011773Y016587D01*
X011758Y016598D01*
X011746Y016611D01*
X011737Y016627D01*
X011731Y016645D01*
X011729Y016663D01*
X011783Y016890D02*
X012510Y016589D01*
X012815Y015781D02*
X012785Y015708D01*
X012574Y015199D02*
X012544Y015126D01*
X013253Y014645D02*
X013309Y014701D01*
X013699Y015091D02*
X013755Y015147D01*
X014474Y014952D02*
X014476Y014970D01*
X014482Y014988D01*
X014491Y015004D01*
X014503Y015017D01*
X014518Y015028D01*
X014535Y015036D01*
X014553Y015040D01*
X014571Y015040D01*
X014589Y015036D01*
X014606Y015028D01*
X014621Y015017D01*
X014633Y015004D01*
X014642Y014988D01*
X014648Y014970D01*
X014650Y014952D01*
X014648Y014934D01*
X014642Y014916D01*
X014633Y014900D01*
X014621Y014887D01*
X014606Y014876D01*
X014589Y014868D01*
X014571Y014864D01*
X014553Y014864D01*
X014535Y014868D01*
X014518Y014876D01*
X014503Y014887D01*
X014491Y014900D01*
X014482Y014916D01*
X014476Y014934D01*
X014474Y014952D01*
X014618Y015174D02*
X015174Y014618D01*
X015147Y013755D02*
X015091Y013699D01*
X014701Y013309D02*
X014645Y013253D01*
X015126Y012544D02*
X015199Y012574D01*
X015708Y012785D02*
X015781Y012815D01*
X016364Y012326D02*
X016366Y012344D01*
X016372Y012362D01*
X016381Y012378D01*
X016393Y012391D01*
X016408Y012402D01*
X016425Y012410D01*
X016443Y012414D01*
X016461Y012414D01*
X016479Y012410D01*
X016496Y012402D01*
X016511Y012391D01*
X016523Y012378D01*
X016532Y012362D01*
X016538Y012344D01*
X016540Y012326D01*
X016538Y012308D01*
X016532Y012290D01*
X016523Y012274D01*
X016511Y012261D01*
X016496Y012250D01*
X016479Y012242D01*
X016461Y012238D01*
X016443Y012238D01*
X016425Y012242D01*
X016408Y012250D01*
X016393Y012261D01*
X016381Y012274D01*
X016372Y012290D01*
X016366Y012308D01*
X016364Y012326D01*
X016589Y012510D02*
X016890Y011783D01*
X016534Y010996D02*
X016461Y010966D01*
X015952Y010755D02*
X015879Y010725D01*
X016046Y009884D02*
X016124Y009884D01*
X016676Y009884D02*
X016754Y009884D01*
X017384Y009294D02*
X017384Y008506D01*
X016754Y007916D02*
X016676Y007916D01*
X016124Y007916D02*
X016046Y007916D01*
X015416Y008506D02*
X015416Y009294D01*
X015071Y011030D02*
X014770Y011757D01*
X013782Y013226D02*
X013226Y013782D01*
X011757Y014770D02*
X011030Y015071D01*
X017099Y009176D02*
X017101Y009194D01*
X017107Y009212D01*
X017116Y009228D01*
X017128Y009241D01*
X017143Y009252D01*
X017160Y009260D01*
X017178Y009264D01*
X017196Y009264D01*
X017214Y009260D01*
X017231Y009252D01*
X017246Y009241D01*
X017258Y009228D01*
X017267Y009212D01*
X017273Y009194D01*
X017275Y009176D01*
X017273Y009158D01*
X017267Y009140D01*
X017258Y009124D01*
X017246Y009111D01*
X017231Y009100D01*
X017214Y009092D01*
X017196Y009088D01*
X017178Y009088D01*
X017160Y009092D01*
X017143Y009100D01*
X017128Y009111D01*
X017116Y009124D01*
X017107Y009140D01*
X017101Y009158D01*
X017099Y009176D01*
X015952Y007045D02*
X015879Y007075D01*
X016461Y006834D02*
X016534Y006804D01*
X016575Y005983D02*
X016577Y006001D01*
X016583Y006019D01*
X016592Y006035D01*
X016604Y006048D01*
X016619Y006059D01*
X016636Y006067D01*
X016654Y006071D01*
X016672Y006071D01*
X016690Y006067D01*
X016707Y006059D01*
X016722Y006048D01*
X016734Y006035D01*
X016743Y006019D01*
X016749Y006001D01*
X016751Y005983D01*
X016749Y005965D01*
X016743Y005947D01*
X016734Y005931D01*
X016722Y005918D01*
X016707Y005907D01*
X016690Y005899D01*
X016672Y005895D01*
X016654Y005895D01*
X016636Y005899D01*
X016619Y005907D01*
X016604Y005918D01*
X016592Y005931D01*
X016583Y005947D01*
X016577Y005965D01*
X016575Y005983D01*
X016890Y006017D02*
X016589Y005290D01*
X015781Y004985D02*
X015708Y005015D01*
X015199Y005226D02*
X015126Y005256D01*
X014645Y004547D02*
X014701Y004491D01*
X015091Y004101D02*
X015147Y004045D01*
X014864Y003238D02*
X014866Y003256D01*
X014872Y003274D01*
X014881Y003290D01*
X014893Y003303D01*
X014908Y003314D01*
X014925Y003322D01*
X014943Y003326D01*
X014961Y003326D01*
X014979Y003322D01*
X014996Y003314D01*
X015011Y003303D01*
X015023Y003290D01*
X015032Y003274D01*
X015038Y003256D01*
X015040Y003238D01*
X015038Y003220D01*
X015032Y003202D01*
X015023Y003186D01*
X015011Y003173D01*
X014996Y003162D01*
X014979Y003154D01*
X014961Y003150D01*
X014943Y003150D01*
X014925Y003154D01*
X014908Y003162D01*
X014893Y003173D01*
X014881Y003186D01*
X014872Y003202D01*
X014866Y003220D01*
X014864Y003238D01*
X015174Y003182D02*
X014618Y002626D01*
X013755Y002653D02*
X013699Y002709D01*
X013309Y003099D02*
X013253Y003155D01*
X012544Y002674D02*
X012574Y002601D01*
X012785Y002092D02*
X012815Y002019D01*
X012238Y001348D02*
X012240Y001366D01*
X012246Y001384D01*
X012255Y001400D01*
X012267Y001413D01*
X012282Y001424D01*
X012299Y001432D01*
X012317Y001436D01*
X012335Y001436D01*
X012353Y001432D01*
X012370Y001424D01*
X012385Y001413D01*
X012397Y001400D01*
X012406Y001384D01*
X012412Y001366D01*
X012414Y001348D01*
X012412Y001330D01*
X012406Y001312D01*
X012397Y001296D01*
X012385Y001283D01*
X012370Y001272D01*
X012353Y001264D01*
X012335Y001260D01*
X012317Y001260D01*
X012299Y001264D01*
X012282Y001272D01*
X012267Y001283D01*
X012255Y001296D01*
X012246Y001312D01*
X012240Y001330D01*
X012238Y001348D01*
X012510Y001211D02*
X011783Y000910D01*
X010996Y001266D02*
X010966Y001339D01*
X010755Y001848D02*
X010725Y001921D01*
X011030Y002729D02*
X011757Y003030D01*
X013226Y004018D02*
X013782Y004574D01*
X014770Y006043D02*
X015071Y006770D01*
X010624Y000655D02*
X010350Y000600D01*
D11*
X009884Y000455D02*
X009884Y000416D01*
X009806Y000416D01*
X011222Y000720D02*
X011237Y000684D01*
X011310Y000714D01*
X012983Y001407D02*
X013056Y001437D01*
X013041Y001474D01*
X014172Y002236D02*
X014200Y002208D01*
X014256Y002264D01*
X015536Y003544D02*
X015592Y003600D01*
X015564Y003628D01*
X016326Y004759D02*
X016363Y004744D01*
X016393Y004817D01*
X017086Y006490D02*
X017116Y006563D01*
X017080Y006578D01*
X017345Y007916D02*
X017384Y007916D01*
X017384Y007994D01*
X017384Y009806D02*
X017384Y009884D01*
X017345Y009884D01*
X017080Y011222D02*
X017116Y011237D01*
X017086Y011310D01*
X016393Y012983D02*
X016363Y013056D01*
X016326Y013041D01*
X015564Y014172D02*
X015592Y014200D01*
X015536Y014256D01*
X014256Y015536D02*
X014200Y015592D01*
X014172Y015564D01*
X013041Y016326D02*
X013056Y016363D01*
X012983Y016393D01*
X011310Y017086D02*
X011237Y017116D01*
X011222Y017080D01*
X009884Y017345D02*
X009884Y017384D01*
X009806Y017384D01*
X007994Y017384D02*
X007916Y017384D01*
X007916Y017345D01*
X006578Y017080D02*
X006563Y017116D01*
X006490Y017086D01*
X004817Y016393D02*
X004744Y016363D01*
X004759Y016326D01*
X003628Y015564D02*
X003600Y015592D01*
X003544Y015536D01*
X002264Y014256D02*
X002208Y014200D01*
X002236Y014172D01*
X001474Y013041D02*
X001437Y013056D01*
X001407Y012983D01*
X000714Y011310D02*
X000684Y011237D01*
X000720Y011222D01*
X000455Y009884D02*
X000416Y009884D01*
X000416Y009806D01*
X000416Y007994D02*
X000416Y007916D01*
X000455Y007916D01*
X000720Y006578D02*
X000684Y006563D01*
X000714Y006490D01*
X001407Y004817D02*
X001437Y004744D01*
X001474Y004759D01*
X002236Y003628D02*
X002208Y003600D01*
X002264Y003544D01*
X003544Y002264D02*
X003600Y002208D01*
X003628Y002236D01*
X004759Y001474D02*
X004744Y001437D01*
X004817Y001407D01*
X006490Y000714D02*
X006563Y000684D01*
X006578Y000720D01*
X007916Y000455D02*
X007916Y000416D01*
X007994Y000416D01*
X008034Y002345D02*
X008073Y002384D01*
X008191Y002384D01*
X007316Y002503D02*
X007301Y002466D01*
X007316Y002503D02*
X007243Y002533D01*
X005752Y003151D02*
X005643Y003196D01*
X005591Y003174D01*
X004992Y003600D02*
X004936Y003656D01*
X004992Y003600D02*
X004964Y003572D01*
X003795Y004797D02*
X003711Y004881D01*
X003656Y004881D01*
X003256Y005497D02*
X003226Y005570D01*
X003256Y005497D02*
X003220Y005482D01*
X002608Y007061D02*
X002563Y007170D01*
X002511Y007192D01*
X002384Y007916D02*
X002384Y007994D01*
X002384Y007916D02*
X002345Y007916D01*
X002384Y009609D02*
X002384Y009727D01*
X002345Y009766D01*
X002503Y010484D02*
X002466Y010499D01*
X002503Y010484D02*
X002533Y010557D01*
X003151Y012048D02*
X003196Y012157D01*
X003174Y012209D01*
X003600Y012808D02*
X003656Y012864D01*
X003600Y012808D02*
X003572Y012836D01*
X004797Y014005D02*
X004881Y014089D01*
X004881Y014144D01*
X005497Y014544D02*
X005570Y014574D01*
X005497Y014544D02*
X005482Y014580D01*
X007061Y015192D02*
X007170Y015237D01*
X007192Y015289D01*
X007916Y015416D02*
X007994Y015416D01*
X007916Y015416D02*
X007916Y015455D01*
X009609Y015416D02*
X009727Y015416D01*
X009766Y015455D01*
X010484Y015297D02*
X010557Y015267D01*
X010484Y015297D02*
X010499Y015334D01*
X012048Y014649D02*
X012157Y014604D01*
X012209Y014626D01*
X012808Y014200D02*
X012864Y014144D01*
X012808Y014200D02*
X012836Y014228D01*
X014005Y013003D02*
X014089Y012919D01*
X014144Y012919D01*
X014544Y012303D02*
X014574Y012230D01*
X014544Y012303D02*
X014580Y012318D01*
X015192Y010739D02*
X015237Y010630D01*
X015289Y010608D01*
X015416Y009884D02*
X015416Y009806D01*
X015416Y009884D02*
X015455Y009884D01*
X015416Y008191D02*
X015416Y008073D01*
X015455Y008034D01*
X015297Y007316D02*
X015267Y007243D01*
X015297Y007316D02*
X015334Y007301D01*
X014649Y005752D02*
X014604Y005643D01*
X014626Y005591D01*
X014200Y004992D02*
X014144Y004936D01*
X014200Y004992D02*
X014228Y004964D01*
X013003Y003795D02*
X012919Y003711D01*
X012919Y003656D01*
X012303Y003256D02*
X012230Y003226D01*
X012303Y003256D02*
X012318Y003220D01*
X010739Y002608D02*
X010630Y002563D01*
X010608Y002511D01*
X009884Y002384D02*
X009806Y002384D01*
X009884Y002384D02*
X009884Y002345D01*
D12*
X007352Y001048D02*
X007328Y001052D01*
X002257Y004450D02*
X002243Y004470D01*
X001048Y010448D02*
X001052Y010472D01*
X004450Y015543D02*
X004470Y015557D01*
X010448Y016752D02*
X010472Y016748D01*
X015543Y013350D02*
X015557Y013330D01*
X016752Y007352D02*
X016748Y007328D01*
X013350Y002257D02*
X013330Y002243D01*
D13*
X013724Y015554D02*
X013629Y015616D01*
X013676Y015585D02*
X013865Y015868D01*
X013818Y015900D02*
X013912Y015837D01*
X013669Y015931D02*
X013543Y015742D01*
X013464Y015726D01*
X013323Y015821D01*
X013512Y016104D01*
X013653Y016010D01*
X013669Y015931D01*
X007576Y017087D02*
X007532Y017310D01*
X007465Y017354D01*
X007354Y017332D01*
X007309Y017265D01*
X007354Y017043D01*
X007420Y016998D01*
X007532Y017021D01*
X007576Y017087D01*
X007215Y017015D02*
X007171Y017238D01*
X007104Y017282D01*
X006937Y017249D01*
X007004Y016915D01*
X007171Y016948D01*
X007215Y017015D01*
M02*
