G75*
%MOIN*%
%OFA0B0*%
%FSLAX24Y24*%
%IPPOS*%
%LPD*%
%AMOC8*
5,1,8,0,0,1.08239X$1,22.5*
%
%ADD10C,0.0640*%
%ADD11C,0.0100*%
%ADD12C,0.0350*%
D10*
X004570Y002430D03*
X010420Y001260D03*
X013230Y015370D03*
X007380Y016540D03*
D11*
X002081Y003668D02*
X002822Y002822D01*
X003668Y002081D01*
X004602Y001457D01*
X005611Y000959D01*
X006675Y000598D01*
X007778Y000379D01*
X008900Y000305D01*
X010022Y000379D01*
X011125Y000598D01*
X012189Y000959D01*
X013198Y001457D01*
X014132Y002081D01*
X014978Y002822D01*
X015719Y003668D01*
X016343Y004602D01*
X016841Y005611D01*
X017202Y006675D01*
X017421Y007778D01*
X017421Y007778D01*
X017495Y008900D01*
X017421Y010022D01*
X017202Y011125D01*
X016841Y012189D01*
X016343Y013198D01*
X015719Y014132D01*
X014978Y014978D01*
X014132Y015719D01*
X013198Y016343D01*
X012189Y016841D01*
X011125Y017202D01*
X010022Y017421D01*
X008900Y017495D01*
X007778Y017421D01*
X006675Y017202D01*
X005611Y016841D01*
X004602Y016343D01*
X003668Y015719D01*
X002822Y014978D01*
X002081Y014132D01*
X001457Y013198D01*
X000959Y012189D01*
X000598Y011125D01*
X000379Y010022D01*
X000305Y008900D01*
X000379Y007778D01*
X000598Y006675D01*
X000959Y005611D01*
X001457Y004603D01*
X002081Y003668D01*
X002062Y003696D02*
X005193Y003696D01*
X005322Y003598D02*
X002143Y003598D01*
X002229Y003499D02*
X005464Y003499D01*
X005418Y003524D02*
X006280Y003055D01*
X007203Y002724D01*
X008165Y002537D01*
X008165Y002537D01*
X009145Y002500D01*
X009145Y002500D01*
X010119Y002612D01*
X010119Y002612D01*
X011065Y002872D01*
X011960Y003273D01*
X012783Y003806D01*
X013515Y004459D01*
X014139Y005215D01*
X014640Y006058D01*
X015007Y006967D01*
X015007Y006967D01*
X015230Y007922D01*
X015230Y007922D01*
X015305Y008900D01*
X015230Y009878D01*
X015007Y010833D01*
X014640Y011742D01*
X014139Y012585D01*
X013515Y013341D01*
X013515Y013341D01*
X012783Y013994D01*
X012783Y013994D01*
X011960Y014527D01*
X011960Y014527D01*
X011065Y014928D01*
X011065Y014928D01*
X010119Y015188D01*
X009145Y015300D01*
X008165Y015263D01*
X007203Y015076D01*
X006280Y014745D01*
X005418Y014276D01*
X004639Y013682D01*
X004639Y013682D01*
X003959Y012975D01*
X003959Y012975D01*
X003394Y012173D01*
X002959Y011294D01*
X002663Y010359D01*
X002514Y009390D01*
X002514Y008410D01*
X002663Y007441D01*
X002959Y006506D01*
X002959Y006506D01*
X003394Y005627D01*
X003394Y005627D01*
X003959Y004825D01*
X004639Y004118D01*
X005418Y003524D01*
X005418Y003524D01*
X005645Y003401D02*
X003315Y003401D01*
X003276Y003440D02*
X003163Y003486D01*
X003042Y003486D01*
X002930Y003440D01*
X002844Y003354D01*
X002798Y003242D01*
X002798Y003121D01*
X002844Y003009D01*
X002930Y002923D01*
X003042Y002876D01*
X003163Y002876D01*
X003276Y002923D01*
X003311Y002958D01*
X004275Y002772D01*
X004189Y002685D01*
X004120Y002520D01*
X004120Y002340D01*
X004189Y002175D01*
X004315Y002049D01*
X004480Y001980D01*
X004660Y001980D01*
X004825Y002049D01*
X004951Y002175D01*
X005020Y002340D01*
X005020Y002520D01*
X004971Y002638D01*
X005984Y002442D01*
X006002Y002399D01*
X006088Y002314D01*
X006200Y002267D01*
X006321Y002267D01*
X006433Y002314D01*
X006519Y002399D01*
X006565Y002512D01*
X006565Y002633D01*
X006519Y002745D01*
X006433Y002831D01*
X006321Y002877D01*
X006200Y002877D01*
X006088Y002831D01*
X006053Y002796D01*
X003379Y003312D01*
X003361Y003354D01*
X003276Y003440D01*
X003428Y003302D02*
X005826Y003302D01*
X006008Y003204D02*
X003939Y003204D01*
X003570Y002908D02*
X003239Y002908D01*
X003103Y003181D02*
X006260Y002572D01*
X006066Y002810D02*
X005981Y002810D01*
X006189Y003105D02*
X004449Y003105D01*
X004215Y002711D02*
X002949Y002711D01*
X002837Y002810D02*
X004081Y002810D01*
X004159Y002613D02*
X003062Y002613D01*
X003174Y002514D02*
X004120Y002514D01*
X004120Y002416D02*
X003286Y002416D01*
X003399Y002317D02*
X004130Y002317D01*
X004171Y002219D02*
X003511Y002219D01*
X003623Y002120D02*
X004244Y002120D01*
X004380Y002022D02*
X003757Y002022D01*
X003904Y001923D02*
X007410Y001923D01*
X007273Y001529D02*
X009676Y001529D01*
X009531Y001431D02*
X006774Y001431D01*
X006911Y001825D02*
X004052Y001825D01*
X004199Y001726D02*
X006412Y001726D01*
X006275Y001332D02*
X009385Y001332D01*
X009239Y001234D02*
X005996Y001234D01*
X005999Y001237D02*
X006017Y001281D01*
X008723Y001815D01*
X008757Y001781D01*
X008869Y001735D01*
X008990Y001735D01*
X009102Y001781D01*
X009188Y001867D01*
X009235Y001979D01*
X009235Y002100D01*
X009188Y002213D01*
X009102Y002298D01*
X008990Y002345D01*
X008869Y002345D01*
X008757Y002298D01*
X008671Y002213D01*
X008653Y002169D01*
X005948Y001634D01*
X005913Y001668D01*
X005801Y001715D01*
X005680Y001715D01*
X005568Y001668D01*
X005482Y001583D01*
X005436Y001471D01*
X005436Y001349D01*
X005482Y001237D01*
X005568Y001151D01*
X005680Y001105D01*
X005801Y001105D01*
X005913Y001151D01*
X005999Y001237D01*
X005874Y001135D02*
X009094Y001135D01*
X008994Y001067D02*
X008951Y001085D01*
X008829Y001085D01*
X008717Y001038D01*
X008632Y000953D01*
X008585Y000841D01*
X008585Y000719D01*
X008632Y000607D01*
X008717Y000521D01*
X008829Y000475D01*
X008951Y000475D01*
X009063Y000521D01*
X009149Y000607D01*
X009195Y000719D01*
X009195Y000769D01*
X009950Y001280D01*
X009950Y001223D01*
X009951Y001217D01*
X010361Y001299D01*
X010381Y001201D01*
X010479Y001221D01*
X010459Y001319D01*
X010869Y001401D01*
X010856Y001440D01*
X010822Y001506D01*
X010778Y001566D01*
X010726Y001618D01*
X010666Y001662D01*
X010600Y001696D01*
X010576Y001703D01*
X011464Y002304D01*
X011507Y002286D01*
X011628Y002286D01*
X011740Y002332D01*
X011826Y002418D01*
X011872Y002530D01*
X011872Y002652D01*
X011826Y002764D01*
X011740Y002850D01*
X011628Y002896D01*
X011507Y002896D01*
X011395Y002850D01*
X011309Y002764D01*
X011262Y002652D01*
X011262Y002602D01*
X008994Y001067D01*
X008890Y000780D02*
X011567Y002591D01*
X011287Y002711D02*
X010479Y002711D01*
X010121Y002613D02*
X011262Y002613D01*
X011132Y002514D02*
X009269Y002514D01*
X009057Y002317D02*
X010841Y002317D01*
X010696Y002219D02*
X009182Y002219D01*
X009226Y002120D02*
X010550Y002120D01*
X010404Y002022D02*
X009235Y002022D01*
X009211Y001923D02*
X010259Y001923D01*
X010113Y001825D02*
X009146Y001825D01*
X008930Y002040D02*
X005741Y001410D01*
X005607Y001135D02*
X005254Y001135D01*
X005055Y001234D02*
X005486Y001234D01*
X005443Y001332D02*
X004855Y001332D01*
X004655Y001431D02*
X005436Y001431D01*
X005460Y001529D02*
X004494Y001529D01*
X004347Y001628D02*
X005527Y001628D01*
X005454Y001037D02*
X008715Y001037D01*
X008626Y000938D02*
X005673Y000938D01*
X005964Y000840D02*
X008585Y000840D01*
X008585Y000741D02*
X006254Y000741D01*
X006544Y000643D02*
X008617Y000643D01*
X008695Y000544D02*
X006946Y000544D01*
X007441Y000446D02*
X010359Y000446D01*
X010383Y000790D02*
X010310Y000802D01*
X010240Y000824D01*
X010174Y000858D01*
X010114Y000902D01*
X010062Y000954D01*
X010018Y001014D01*
X009984Y001080D01*
X009971Y001119D01*
X010381Y001201D01*
X010463Y000791D01*
X010457Y000790D01*
X010383Y000790D01*
X010453Y000840D02*
X010555Y000840D01*
X010561Y000811D02*
X010600Y000824D01*
X010666Y000858D01*
X010726Y000902D01*
X010778Y000954D01*
X010822Y001014D01*
X010856Y001080D01*
X010878Y001150D01*
X010890Y001223D01*
X010890Y001297D01*
X010889Y001303D01*
X010479Y001221D01*
X010561Y000811D01*
X010630Y000840D02*
X011836Y000840D01*
X011940Y001065D02*
X012061Y001065D01*
X012173Y001112D01*
X012259Y001198D01*
X012305Y001310D01*
X012305Y001431D01*
X012286Y001478D01*
X013748Y003703D01*
X013793Y003703D01*
X013905Y003750D01*
X013991Y003835D01*
X014038Y003948D01*
X014038Y004069D01*
X013991Y004181D01*
X013905Y004267D01*
X013793Y004313D01*
X013672Y004313D01*
X013560Y004267D01*
X013474Y004181D01*
X013428Y004069D01*
X013428Y003948D01*
X013447Y003901D01*
X011985Y001675D01*
X011940Y001675D01*
X011828Y001629D01*
X011742Y001543D01*
X011695Y001431D01*
X011695Y001310D01*
X011742Y001198D01*
X011828Y001112D01*
X011940Y001065D01*
X011805Y001135D02*
X010874Y001135D01*
X010890Y001234D02*
X011727Y001234D01*
X011695Y001332D02*
X010525Y001332D01*
X010543Y001234D02*
X010476Y001234D01*
X010496Y001135D02*
X010394Y001135D01*
X010414Y001037D02*
X010516Y001037D01*
X010535Y000938D02*
X010433Y000938D01*
X010210Y000840D02*
X009299Y000840D01*
X009195Y000741D02*
X011546Y000741D01*
X011256Y000643D02*
X009163Y000643D01*
X009086Y000544D02*
X010854Y000544D01*
X010763Y000938D02*
X012127Y000938D01*
X012196Y001135D02*
X012546Y001135D01*
X012745Y001234D02*
X012274Y001234D01*
X012305Y001332D02*
X012945Y001332D01*
X013145Y001431D02*
X012305Y001431D01*
X012320Y001529D02*
X013306Y001529D01*
X013453Y001628D02*
X012385Y001628D01*
X012449Y001726D02*
X013601Y001726D01*
X013748Y001825D02*
X012514Y001825D01*
X012579Y001923D02*
X013896Y001923D01*
X014043Y002022D02*
X012643Y002022D01*
X012708Y002120D02*
X014177Y002120D01*
X014289Y002219D02*
X012773Y002219D01*
X012837Y002317D02*
X014401Y002317D01*
X014514Y002416D02*
X012902Y002416D01*
X012967Y002514D02*
X014626Y002514D01*
X014738Y002613D02*
X013031Y002613D01*
X013096Y002711D02*
X014851Y002711D01*
X014963Y002810D02*
X013161Y002810D01*
X013225Y002908D02*
X014441Y002908D01*
X014465Y002884D02*
X014578Y002837D01*
X014699Y002837D01*
X014811Y002884D01*
X014897Y002969D01*
X014943Y003081D01*
X014943Y003203D01*
X014897Y003315D01*
X014863Y003349D01*
X015396Y006015D01*
X015441Y006033D01*
X015527Y006119D01*
X015573Y006231D01*
X015573Y006352D01*
X015527Y006465D01*
X015441Y006550D01*
X015329Y006597D01*
X015207Y006597D01*
X015095Y006550D01*
X015010Y006465D01*
X014963Y006352D01*
X014963Y006231D01*
X015010Y006119D01*
X015043Y006085D01*
X014510Y003419D01*
X014465Y003401D01*
X014380Y003315D01*
X014333Y003203D01*
X014333Y003081D01*
X014380Y002969D01*
X014465Y002884D01*
X014364Y003007D02*
X013290Y003007D01*
X013355Y003105D02*
X014333Y003105D01*
X014333Y003204D02*
X013420Y003204D01*
X013484Y003302D02*
X014374Y003302D01*
X014465Y003401D02*
X013549Y003401D01*
X013614Y003499D02*
X014526Y003499D01*
X014546Y003598D02*
X013678Y003598D01*
X013743Y003696D02*
X014565Y003696D01*
X014585Y003795D02*
X013950Y003795D01*
X014015Y003893D02*
X014605Y003893D01*
X014625Y003992D02*
X014038Y003992D01*
X014029Y004090D02*
X014644Y004090D01*
X014664Y004189D02*
X013984Y004189D01*
X013857Y004287D02*
X014684Y004287D01*
X014703Y004386D02*
X013433Y004386D01*
X013515Y004459D02*
X013515Y004459D01*
X013536Y004484D02*
X014723Y004484D01*
X014743Y004583D02*
X013617Y004583D01*
X013698Y004681D02*
X014762Y004681D01*
X014782Y004780D02*
X013780Y004780D01*
X013861Y004878D02*
X014802Y004878D01*
X014822Y004977D02*
X013942Y004977D01*
X014023Y005075D02*
X014841Y005075D01*
X014861Y005174D02*
X014105Y005174D01*
X014139Y005215D02*
X014139Y005215D01*
X014173Y005272D02*
X014881Y005272D01*
X014900Y005371D02*
X014231Y005371D01*
X014290Y005469D02*
X014920Y005469D01*
X014940Y005568D02*
X014348Y005568D01*
X014407Y005666D02*
X014959Y005666D01*
X014979Y005765D02*
X014465Y005765D01*
X014524Y005863D02*
X014999Y005863D01*
X015019Y005962D02*
X014583Y005962D01*
X014640Y006058D02*
X014640Y006058D01*
X014641Y006060D02*
X015038Y006060D01*
X014993Y006159D02*
X014680Y006159D01*
X014720Y006257D02*
X014963Y006257D01*
X014964Y006356D02*
X014760Y006356D01*
X014800Y006454D02*
X015005Y006454D01*
X015101Y006553D02*
X014839Y006553D01*
X014879Y006651D02*
X016044Y006651D01*
X016063Y006553D02*
X015436Y006553D01*
X015531Y006454D02*
X016083Y006454D01*
X016103Y006356D02*
X015572Y006356D01*
X015573Y006257D02*
X016123Y006257D01*
X016142Y006159D02*
X015543Y006159D01*
X015468Y006060D02*
X016162Y006060D01*
X016182Y005962D02*
X015386Y005962D01*
X015366Y005863D02*
X016130Y005863D01*
X016151Y005913D02*
X016105Y005801D01*
X016105Y005680D01*
X016151Y005568D01*
X016237Y005482D01*
X016349Y005436D01*
X016471Y005436D01*
X016583Y005482D01*
X016668Y005568D01*
X016715Y005680D01*
X016715Y005801D01*
X016668Y005913D01*
X016583Y005999D01*
X016538Y006018D01*
X015995Y008723D01*
X016029Y008757D01*
X016075Y008869D01*
X016075Y008990D01*
X016029Y009102D01*
X015943Y009188D01*
X015831Y009235D01*
X015709Y009235D01*
X015597Y009188D01*
X015512Y009102D01*
X015465Y008990D01*
X015465Y008869D01*
X015512Y008757D01*
X015597Y008671D01*
X015642Y008652D01*
X016185Y005947D01*
X016151Y005913D01*
X016105Y005765D02*
X015346Y005765D01*
X015327Y005666D02*
X016111Y005666D01*
X016152Y005568D02*
X015307Y005568D01*
X015287Y005469D02*
X016268Y005469D01*
X016551Y005469D02*
X016771Y005469D01*
X016819Y005568D02*
X016668Y005568D01*
X016709Y005666D02*
X016859Y005666D01*
X016893Y005765D02*
X016715Y005765D01*
X016689Y005863D02*
X016926Y005863D01*
X016960Y005962D02*
X016620Y005962D01*
X016529Y006060D02*
X016993Y006060D01*
X017027Y006159D02*
X016510Y006159D01*
X016490Y006257D02*
X017060Y006257D01*
X017094Y006356D02*
X016470Y006356D01*
X016450Y006454D02*
X017127Y006454D01*
X017160Y006553D02*
X016431Y006553D01*
X016411Y006651D02*
X017194Y006651D01*
X017217Y006750D02*
X016391Y006750D01*
X016371Y006848D02*
X017236Y006848D01*
X017256Y006947D02*
X016351Y006947D01*
X016332Y007045D02*
X017276Y007045D01*
X017295Y007144D02*
X016312Y007144D01*
X016292Y007242D02*
X017315Y007242D01*
X017334Y007341D02*
X016272Y007341D01*
X016253Y007439D02*
X017354Y007439D01*
X017374Y007538D02*
X016233Y007538D01*
X016213Y007636D02*
X017393Y007636D01*
X017413Y007735D02*
X016193Y007735D01*
X016174Y007833D02*
X017425Y007833D01*
X017432Y007932D02*
X016154Y007932D01*
X016134Y008030D02*
X017438Y008030D01*
X017444Y008129D02*
X016114Y008129D01*
X016095Y008227D02*
X017451Y008227D01*
X017457Y008326D02*
X016075Y008326D01*
X016055Y008424D02*
X017464Y008424D01*
X017470Y008523D02*
X016035Y008523D01*
X016016Y008621D02*
X016893Y008621D01*
X016867Y008632D02*
X016979Y008585D01*
X017100Y008585D01*
X017213Y008632D01*
X017298Y008717D01*
X017345Y008829D01*
X017345Y008951D01*
X017298Y009063D01*
X017213Y009149D01*
X017100Y009195D01*
X017052Y009195D01*
X015555Y011424D01*
X015573Y011467D01*
X015573Y011589D01*
X015527Y011701D01*
X015441Y011787D01*
X015329Y011833D01*
X015207Y011833D01*
X015095Y011787D01*
X015010Y011701D01*
X014963Y011589D01*
X014963Y011467D01*
X015010Y011355D01*
X015095Y011269D01*
X015207Y011223D01*
X015256Y011223D01*
X016753Y008994D01*
X016735Y008951D01*
X016735Y008829D01*
X016781Y008717D01*
X016867Y008632D01*
X016780Y008720D02*
X015996Y008720D01*
X016054Y008818D02*
X016740Y008818D01*
X016735Y008917D02*
X016075Y008917D01*
X016065Y009015D02*
X016739Y009015D01*
X016673Y009114D02*
X016017Y009114D01*
X015885Y009212D02*
X016607Y009212D01*
X016541Y009311D02*
X015273Y009311D01*
X015266Y009409D02*
X016474Y009409D01*
X016408Y009508D02*
X015258Y009508D01*
X015251Y009606D02*
X016342Y009606D01*
X016276Y009705D02*
X015243Y009705D01*
X015236Y009803D02*
X016210Y009803D01*
X016144Y009902D02*
X015224Y009902D01*
X015230Y009878D02*
X015230Y009878D01*
X015201Y010000D02*
X016078Y010000D01*
X016011Y010099D02*
X015178Y010099D01*
X015155Y010197D02*
X015945Y010197D01*
X015879Y010296D02*
X015132Y010296D01*
X015109Y010394D02*
X015813Y010394D01*
X015747Y010493D02*
X015086Y010493D01*
X015063Y010591D02*
X015681Y010591D01*
X015614Y010690D02*
X015040Y010690D01*
X015017Y010788D02*
X015548Y010788D01*
X015482Y010887D02*
X014985Y010887D01*
X015007Y010833D02*
X015007Y010833D01*
X014945Y010985D02*
X015416Y010985D01*
X015350Y011084D02*
X014905Y011084D01*
X014866Y011182D02*
X015284Y011182D01*
X015084Y011281D02*
X014826Y011281D01*
X014786Y011379D02*
X015000Y011379D01*
X014963Y011478D02*
X014747Y011478D01*
X014707Y011576D02*
X014963Y011576D01*
X014999Y011675D02*
X014667Y011675D01*
X014640Y011742D02*
X014640Y011742D01*
X014622Y011773D02*
X015082Y011773D01*
X015268Y011528D02*
X017040Y008890D01*
X017187Y008621D02*
X017477Y008621D01*
X017483Y008720D02*
X017299Y008720D01*
X017340Y008818D02*
X017490Y008818D01*
X017494Y008917D02*
X017345Y008917D01*
X017318Y009015D02*
X017487Y009015D01*
X017481Y009114D02*
X017248Y009114D01*
X017040Y009212D02*
X017475Y009212D01*
X017468Y009311D02*
X016974Y009311D01*
X016908Y009409D02*
X017462Y009409D01*
X017455Y009508D02*
X016842Y009508D01*
X016776Y009606D02*
X017449Y009606D01*
X017442Y009705D02*
X016710Y009705D01*
X016643Y009803D02*
X017436Y009803D01*
X017429Y009902D02*
X016577Y009902D01*
X016511Y010000D02*
X017423Y010000D01*
X017406Y010099D02*
X016445Y010099D01*
X016379Y010197D02*
X017387Y010197D01*
X017367Y010296D02*
X016313Y010296D01*
X016247Y010394D02*
X017347Y010394D01*
X017328Y010493D02*
X016180Y010493D01*
X016114Y010591D02*
X017308Y010591D01*
X017289Y010690D02*
X016048Y010690D01*
X015982Y010788D02*
X017269Y010788D01*
X017249Y010887D02*
X015916Y010887D01*
X015850Y010985D02*
X017230Y010985D01*
X017210Y011084D02*
X015783Y011084D01*
X015717Y011182D02*
X017183Y011182D01*
X017149Y011281D02*
X015651Y011281D01*
X015585Y011379D02*
X017116Y011379D01*
X017082Y011478D02*
X015573Y011478D01*
X015573Y011576D02*
X017049Y011576D01*
X017015Y011675D02*
X015538Y011675D01*
X015454Y011773D02*
X016206Y011773D01*
X016237Y011742D02*
X016349Y011695D01*
X016471Y011695D01*
X016583Y011742D01*
X016668Y011828D01*
X016715Y011940D01*
X016715Y012061D01*
X016668Y012173D01*
X016583Y012259D01*
X016471Y012305D01*
X016349Y012305D01*
X016304Y012287D01*
X014038Y013786D01*
X014038Y013833D01*
X013991Y013945D01*
X013905Y014031D01*
X013793Y014077D01*
X013672Y014077D01*
X013560Y014031D01*
X013474Y013945D01*
X013428Y013833D01*
X013428Y013711D01*
X013474Y013599D01*
X013560Y013513D01*
X013672Y013467D01*
X013793Y013467D01*
X013839Y013486D01*
X016105Y011986D01*
X016105Y011940D01*
X016151Y011828D01*
X016237Y011742D01*
X016133Y011872D02*
X014563Y011872D01*
X014504Y011970D02*
X016105Y011970D01*
X015981Y012069D02*
X014446Y012069D01*
X014387Y012167D02*
X015832Y012167D01*
X015683Y012266D02*
X014329Y012266D01*
X014270Y012364D02*
X015534Y012364D01*
X015385Y012463D02*
X014212Y012463D01*
X014153Y012561D02*
X015236Y012561D01*
X015088Y012660D02*
X014077Y012660D01*
X014139Y012585D02*
X014139Y012585D01*
X013996Y012758D02*
X014939Y012758D01*
X014790Y012857D02*
X013915Y012857D01*
X013834Y012955D02*
X014641Y012955D01*
X014492Y013054D02*
X013752Y013054D01*
X013671Y013152D02*
X014343Y013152D01*
X014195Y013251D02*
X013590Y013251D01*
X013515Y013341D02*
X013515Y013341D01*
X013506Y013349D02*
X014046Y013349D01*
X013897Y013448D02*
X013396Y013448D01*
X013285Y013546D02*
X013527Y013546D01*
X013455Y013645D02*
X013175Y013645D01*
X013064Y013743D02*
X013428Y013743D01*
X013431Y013842D02*
X012954Y013842D01*
X012843Y013940D02*
X013472Y013940D01*
X013579Y014039D02*
X012714Y014039D01*
X012562Y014137D02*
X015715Y014137D01*
X015782Y014039D02*
X013886Y014039D01*
X013993Y013940D02*
X015847Y013940D01*
X015913Y013842D02*
X014034Y013842D01*
X014103Y013743D02*
X015979Y013743D01*
X016045Y013645D02*
X014252Y013645D01*
X014400Y013546D02*
X016111Y013546D01*
X016176Y013448D02*
X014549Y013448D01*
X014698Y013349D02*
X016242Y013349D01*
X016308Y013251D02*
X014847Y013251D01*
X014996Y013152D02*
X016366Y013152D01*
X016414Y013054D02*
X015145Y013054D01*
X015293Y012955D02*
X016463Y012955D01*
X016512Y012857D02*
X015442Y012857D01*
X015591Y012758D02*
X016560Y012758D01*
X016609Y012660D02*
X015740Y012660D01*
X015889Y012561D02*
X016657Y012561D01*
X016706Y012463D02*
X016038Y012463D01*
X016187Y012364D02*
X016755Y012364D01*
X016803Y012266D02*
X016567Y012266D01*
X016671Y012167D02*
X016848Y012167D01*
X016882Y012069D02*
X016712Y012069D01*
X016715Y011970D02*
X016915Y011970D01*
X016949Y011872D02*
X016687Y011872D01*
X016614Y011773D02*
X016982Y011773D01*
X016410Y012000D02*
X013733Y013772D01*
X014171Y014531D02*
X011951Y014531D01*
X012105Y014433D02*
X014436Y014433D01*
X014431Y014438D02*
X014517Y014352D01*
X014629Y014306D01*
X014750Y014306D01*
X014862Y014352D01*
X014948Y014438D01*
X014994Y014550D01*
X014994Y014671D01*
X014948Y014783D01*
X014862Y014869D01*
X014750Y014916D01*
X014629Y014916D01*
X014517Y014869D01*
X014483Y014836D01*
X013524Y015028D01*
X013611Y015115D01*
X013680Y015280D01*
X013680Y015460D01*
X013611Y015625D01*
X013485Y015751D01*
X013320Y015820D01*
X013140Y015820D01*
X012975Y015751D01*
X012961Y015737D01*
X012290Y016131D01*
X012291Y016132D01*
X012377Y016217D01*
X012424Y016329D01*
X012424Y016451D01*
X012377Y016563D01*
X012291Y016649D01*
X012179Y016695D01*
X012058Y016695D01*
X011946Y016649D01*
X011860Y016563D01*
X011814Y016451D01*
X011814Y016410D01*
X010497Y017184D01*
X010460Y017220D01*
X010435Y017220D01*
X010413Y017233D01*
X010363Y017220D01*
X009215Y017213D01*
X009138Y017290D01*
X009026Y017337D01*
X008904Y017337D01*
X008792Y017290D01*
X008706Y017205D01*
X008660Y017093D01*
X008660Y016971D01*
X008706Y016859D01*
X008792Y016773D01*
X008904Y016727D01*
X009026Y016727D01*
X009138Y016773D01*
X009218Y016853D01*
X010338Y016859D01*
X010987Y016479D01*
X010922Y016452D01*
X010836Y016366D01*
X010819Y016325D01*
X009099Y016002D01*
X009063Y016038D01*
X008951Y016085D01*
X008829Y016085D01*
X008717Y016038D01*
X008632Y015953D01*
X008585Y015841D01*
X008585Y015719D01*
X008632Y015607D01*
X008717Y015521D01*
X008829Y015475D01*
X008951Y015475D01*
X009063Y015521D01*
X009149Y015607D01*
X009166Y015648D01*
X010886Y015971D01*
X010922Y015935D01*
X011034Y015888D01*
X011156Y015888D01*
X011268Y015935D01*
X011353Y016021D01*
X011400Y016133D01*
X011400Y016236D01*
X012780Y015425D01*
X012780Y015280D01*
X012827Y015168D01*
X011777Y015378D01*
X011759Y015423D01*
X011673Y015509D01*
X011561Y015555D01*
X011439Y015555D01*
X011327Y015509D01*
X011241Y015423D01*
X011195Y015311D01*
X011195Y015189D01*
X011241Y015077D01*
X011327Y014991D01*
X011439Y014945D01*
X011561Y014945D01*
X011673Y014991D01*
X011706Y015025D01*
X014412Y014483D01*
X014431Y014438D01*
X014560Y014334D02*
X012258Y014334D01*
X012410Y014236D02*
X015628Y014236D01*
X015542Y014334D02*
X014819Y014334D01*
X014943Y014433D02*
X015456Y014433D01*
X015369Y014531D02*
X014987Y014531D01*
X014994Y014630D02*
X015283Y014630D01*
X015196Y014728D02*
X014971Y014728D01*
X014905Y014827D02*
X015110Y014827D01*
X015024Y014925D02*
X014037Y014925D01*
X013679Y014630D02*
X011731Y014630D01*
X011511Y014728D02*
X013188Y014728D01*
X013545Y015024D02*
X014925Y015024D01*
X014813Y015122D02*
X013614Y015122D01*
X013655Y015221D02*
X014701Y015221D01*
X014588Y015319D02*
X013680Y015319D01*
X013680Y015418D02*
X014476Y015418D01*
X014364Y015516D02*
X013657Y015516D01*
X013616Y015615D02*
X014251Y015615D01*
X014139Y015713D02*
X013523Y015713D01*
X013340Y015812D02*
X013994Y015812D01*
X013846Y015910D02*
X012666Y015910D01*
X012834Y015812D02*
X013120Y015812D01*
X013230Y015370D02*
X010386Y017040D01*
X008965Y017032D01*
X009161Y016797D02*
X010445Y016797D01*
X010613Y016698D02*
X007802Y016698D01*
X007830Y016630D02*
X007761Y016795D01*
X007635Y016921D01*
X007470Y016990D01*
X007290Y016990D01*
X007125Y016921D01*
X006999Y016795D01*
X006930Y016630D01*
X006930Y016450D01*
X006975Y016343D01*
X006316Y015573D01*
X006231Y015573D01*
X006119Y015527D01*
X006033Y015441D01*
X005987Y015329D01*
X005987Y015207D01*
X006033Y015095D01*
X006119Y015010D01*
X006231Y014963D01*
X006352Y014963D01*
X006465Y015010D01*
X006550Y015095D01*
X006597Y015207D01*
X006597Y015329D01*
X006591Y015342D01*
X007247Y016108D01*
X007290Y016090D01*
X007470Y016090D01*
X007635Y016159D01*
X007761Y016285D01*
X007830Y016450D01*
X007830Y016630D01*
X007830Y016600D02*
X010780Y016600D01*
X010948Y016501D02*
X007830Y016501D01*
X007810Y016403D02*
X010873Y016403D01*
X010709Y016304D02*
X007769Y016304D01*
X007682Y016206D02*
X010183Y016206D01*
X010561Y015910D02*
X010982Y015910D01*
X011208Y015910D02*
X011955Y015910D01*
X012123Y015812D02*
X010036Y015812D01*
X009658Y016107D02*
X007511Y016107D01*
X007249Y016107D02*
X007246Y016107D01*
X007162Y016009D02*
X008687Y016009D01*
X008614Y015910D02*
X007078Y015910D01*
X006994Y015812D02*
X008585Y015812D01*
X008588Y015713D02*
X006909Y015713D01*
X006825Y015615D02*
X008629Y015615D01*
X008730Y015516D02*
X006741Y015516D01*
X006656Y015418D02*
X011239Y015418D01*
X011198Y015319D02*
X006597Y015319D01*
X006597Y015221D02*
X007948Y015221D01*
X007440Y015122D02*
X006561Y015122D01*
X006478Y015024D02*
X007057Y015024D01*
X006782Y014925D02*
X005073Y014925D01*
X005137Y015024D02*
X006105Y015024D01*
X006022Y015122D02*
X005200Y015122D01*
X005264Y015221D02*
X005987Y015221D01*
X005987Y015319D02*
X005328Y015319D01*
X005392Y015418D02*
X006023Y015418D01*
X006108Y015516D02*
X005455Y015516D01*
X005519Y015615D02*
X006351Y015615D01*
X006436Y015713D02*
X005583Y015713D01*
X005647Y015812D02*
X006520Y015812D01*
X006604Y015910D02*
X005710Y015910D01*
X005774Y016009D02*
X006688Y016009D01*
X006773Y016107D02*
X005885Y016107D01*
X005880Y016105D02*
X005992Y016151D01*
X006078Y016237D01*
X006124Y016349D01*
X006124Y016471D01*
X006078Y016583D01*
X005992Y016668D01*
X005880Y016715D01*
X005759Y016715D01*
X005647Y016668D01*
X005561Y016583D01*
X005514Y016471D01*
X005514Y016349D01*
X005534Y016301D01*
X004070Y014038D01*
X004026Y014038D01*
X003914Y013991D01*
X003828Y013905D01*
X003782Y013793D01*
X003782Y013672D01*
X003828Y013560D01*
X003914Y013474D01*
X004026Y013428D01*
X004148Y013428D01*
X004260Y013474D01*
X004346Y013560D01*
X004392Y013672D01*
X004392Y013793D01*
X004372Y013842D01*
X005836Y016105D01*
X005880Y016105D01*
X006046Y016206D02*
X006857Y016206D01*
X006941Y016304D02*
X006106Y016304D01*
X006124Y016403D02*
X006950Y016403D01*
X006930Y016501D02*
X006112Y016501D01*
X006061Y016600D02*
X006930Y016600D01*
X006958Y016698D02*
X005921Y016698D01*
X005718Y016698D02*
X005321Y016698D01*
X005122Y016600D02*
X005578Y016600D01*
X005527Y016501D02*
X004922Y016501D01*
X004722Y016403D02*
X005514Y016403D01*
X005533Y016304D02*
X004543Y016304D01*
X004396Y016206D02*
X005473Y016206D01*
X005409Y016107D02*
X004249Y016107D01*
X004101Y016009D02*
X005345Y016009D01*
X005281Y015910D02*
X003954Y015910D01*
X003806Y015812D02*
X005218Y015812D01*
X005154Y015713D02*
X003661Y015713D01*
X003549Y015615D02*
X005090Y015615D01*
X005027Y015516D02*
X003436Y015516D01*
X003324Y015418D02*
X004963Y015418D01*
X004899Y015319D02*
X003212Y015319D01*
X003099Y015221D02*
X004835Y015221D01*
X004772Y015122D02*
X002987Y015122D01*
X002875Y015024D02*
X004708Y015024D01*
X004644Y014925D02*
X003365Y014925D01*
X003354Y014936D02*
X003242Y014983D01*
X003121Y014983D01*
X003009Y014936D01*
X002923Y014850D01*
X002876Y014738D01*
X002876Y014617D01*
X002923Y014505D01*
X002960Y014468D01*
X002459Y011764D01*
X002418Y011747D01*
X002332Y011661D01*
X002286Y011549D01*
X002286Y011428D01*
X002332Y011316D01*
X002418Y011230D01*
X002530Y011184D01*
X002652Y011184D01*
X002764Y011230D01*
X002850Y011316D01*
X002896Y011428D01*
X002896Y011549D01*
X002850Y011661D01*
X002813Y011698D01*
X003314Y014402D01*
X003354Y014419D01*
X003440Y014505D01*
X003486Y014617D01*
X003486Y014738D01*
X003440Y014850D01*
X003354Y014936D01*
X003450Y014827D02*
X004580Y014827D01*
X004517Y014728D02*
X003486Y014728D01*
X003486Y014630D02*
X004453Y014630D01*
X004389Y014531D02*
X003451Y014531D01*
X003368Y014433D02*
X004325Y014433D01*
X004262Y014334D02*
X003301Y014334D01*
X003283Y014236D02*
X004198Y014236D01*
X004134Y014137D02*
X003264Y014137D01*
X003246Y014039D02*
X004071Y014039D01*
X003863Y013940D02*
X003228Y013940D01*
X003210Y013842D02*
X003802Y013842D01*
X003782Y013743D02*
X003191Y013743D01*
X003173Y013645D02*
X003793Y013645D01*
X003842Y013546D02*
X003155Y013546D01*
X003137Y013448D02*
X003978Y013448D01*
X004196Y013448D02*
X004413Y013448D01*
X004332Y013546D02*
X004508Y013546D01*
X004603Y013645D02*
X004381Y013645D01*
X004392Y013743D02*
X004719Y013743D01*
X004848Y013842D02*
X004372Y013842D01*
X004436Y013940D02*
X004978Y013940D01*
X005107Y014039D02*
X004499Y014039D01*
X004563Y014137D02*
X005236Y014137D01*
X005365Y014236D02*
X004627Y014236D01*
X004691Y014334D02*
X005525Y014334D01*
X005418Y014276D02*
X005418Y014276D01*
X005706Y014433D02*
X004754Y014433D01*
X004818Y014531D02*
X005887Y014531D01*
X006068Y014630D02*
X004882Y014630D01*
X004945Y014728D02*
X006249Y014728D01*
X006508Y014827D02*
X005009Y014827D01*
X004087Y013733D02*
X005819Y016410D01*
X005771Y016895D02*
X007099Y016895D01*
X007000Y016797D02*
X005521Y016797D01*
X006061Y016994D02*
X008660Y016994D01*
X008660Y017092D02*
X006351Y017092D01*
X006641Y017191D02*
X008701Y017191D01*
X008791Y017289D02*
X007112Y017289D01*
X007608Y017388D02*
X010192Y017388D01*
X010490Y017191D02*
X011159Y017191D01*
X011449Y017092D02*
X010653Y017092D01*
X010820Y016994D02*
X011739Y016994D01*
X012029Y016895D02*
X010988Y016895D01*
X011156Y016797D02*
X012279Y016797D01*
X012340Y016600D02*
X012678Y016600D01*
X012479Y016698D02*
X011324Y016698D01*
X011491Y016600D02*
X011897Y016600D01*
X011834Y016501D02*
X011659Y016501D01*
X011451Y016206D02*
X011400Y016206D01*
X011389Y016107D02*
X011619Y016107D01*
X011787Y016009D02*
X011341Y016009D01*
X011095Y016193D02*
X008890Y015780D01*
X009050Y015516D02*
X011345Y015516D01*
X011500Y015250D02*
X014689Y014611D01*
X013699Y016009D02*
X012498Y016009D01*
X012330Y016107D02*
X013551Y016107D01*
X013404Y016206D02*
X012365Y016206D01*
X012413Y016304D02*
X013257Y016304D01*
X013078Y016403D02*
X012424Y016403D01*
X012403Y016501D02*
X012878Y016501D01*
X012290Y015713D02*
X009510Y015713D01*
X009152Y015615D02*
X012458Y015615D01*
X012626Y015516D02*
X011655Y015516D01*
X011761Y015418D02*
X012780Y015418D01*
X012780Y015319D02*
X012071Y015319D01*
X011714Y015024D02*
X011705Y015024D01*
X011295Y015024D02*
X010717Y015024D01*
X011072Y014925D02*
X012205Y014925D01*
X012563Y015221D02*
X012805Y015221D01*
X012697Y014827D02*
X011291Y014827D01*
X011223Y015122D02*
X010359Y015122D01*
X010119Y015188D02*
X010119Y015188D01*
X009836Y015221D02*
X011195Y015221D01*
X009133Y016009D02*
X009093Y016009D01*
X008769Y016797D02*
X007760Y016797D01*
X007661Y016895D02*
X008692Y016895D01*
X009139Y017289D02*
X010688Y017289D01*
X009037Y017486D02*
X008763Y017486D01*
X007380Y016540D02*
X006292Y015268D01*
X004318Y013349D02*
X003119Y013349D01*
X003100Y013251D02*
X004224Y013251D01*
X004129Y013152D02*
X003082Y013152D01*
X003064Y013054D02*
X004034Y013054D01*
X003944Y012955D02*
X003046Y012955D01*
X003027Y012857D02*
X003875Y012857D01*
X003806Y012758D02*
X003009Y012758D01*
X002991Y012660D02*
X003737Y012660D01*
X003667Y012561D02*
X002973Y012561D01*
X002954Y012463D02*
X003598Y012463D01*
X003529Y012364D02*
X002936Y012364D01*
X002918Y012266D02*
X003459Y012266D01*
X003394Y012173D02*
X003394Y012173D01*
X003391Y012167D02*
X002900Y012167D01*
X002881Y012069D02*
X003343Y012069D01*
X003294Y011970D02*
X002863Y011970D01*
X002845Y011872D02*
X003245Y011872D01*
X003196Y011773D02*
X002827Y011773D01*
X002836Y011675D02*
X003148Y011675D01*
X003099Y011576D02*
X002885Y011576D01*
X002896Y011478D02*
X003050Y011478D01*
X003001Y011379D02*
X002876Y011379D01*
X002814Y011281D02*
X002955Y011281D01*
X002959Y011294D02*
X002959Y011294D01*
X002924Y011182D02*
X001771Y011182D01*
X001790Y011084D02*
X002893Y011084D01*
X002861Y010985D02*
X001809Y010985D01*
X001829Y010887D02*
X002830Y010887D01*
X002799Y010788D02*
X001848Y010788D01*
X001868Y010690D02*
X002768Y010690D01*
X002737Y010591D02*
X001887Y010591D01*
X001907Y010493D02*
X002706Y010493D01*
X002674Y010394D02*
X001926Y010394D01*
X001946Y010296D02*
X002654Y010296D01*
X002663Y010359D02*
X002663Y010359D01*
X002638Y010197D02*
X001965Y010197D01*
X001985Y010099D02*
X002623Y010099D01*
X002608Y010000D02*
X002004Y010000D01*
X002023Y009902D02*
X002593Y009902D01*
X002578Y009803D02*
X002043Y009803D01*
X002062Y009705D02*
X002562Y009705D01*
X002547Y009606D02*
X002082Y009606D01*
X002101Y009508D02*
X002532Y009508D01*
X002517Y009409D02*
X002121Y009409D01*
X002140Y009311D02*
X002514Y009311D01*
X002514Y009212D02*
X002160Y009212D01*
X002169Y009167D02*
X001634Y011872D01*
X001668Y011906D01*
X001715Y012018D01*
X001715Y012140D01*
X001668Y012252D01*
X001583Y012338D01*
X001471Y012384D01*
X001349Y012384D01*
X001237Y012338D01*
X001151Y012252D01*
X001105Y012140D01*
X001105Y012018D01*
X001151Y011906D01*
X001237Y011821D01*
X001281Y011802D01*
X001815Y009097D01*
X001781Y009063D01*
X001735Y008951D01*
X001735Y008829D01*
X001781Y008717D01*
X001867Y008632D01*
X001979Y008585D01*
X002100Y008585D01*
X002213Y008632D01*
X002298Y008717D01*
X002345Y008829D01*
X002345Y008951D01*
X002298Y009063D01*
X002213Y009149D01*
X002169Y009167D01*
X002248Y009114D02*
X002514Y009114D01*
X002514Y009015D02*
X002318Y009015D01*
X002345Y008917D02*
X002514Y008917D01*
X002514Y008818D02*
X002340Y008818D01*
X002299Y008720D02*
X002514Y008720D01*
X002514Y008621D02*
X002187Y008621D01*
X002040Y008890D02*
X001410Y012079D01*
X001125Y011970D02*
X000885Y011970D01*
X000918Y012069D02*
X001105Y012069D01*
X001116Y012167D02*
X000952Y012167D01*
X000997Y012266D02*
X001165Y012266D01*
X001045Y012364D02*
X001301Y012364D01*
X001519Y012364D02*
X002570Y012364D01*
X002552Y012266D02*
X001655Y012266D01*
X001704Y012167D02*
X002534Y012167D01*
X002515Y012069D02*
X001715Y012069D01*
X001695Y011970D02*
X002497Y011970D01*
X002479Y011872D02*
X001634Y011872D01*
X001654Y011773D02*
X002461Y011773D01*
X002346Y011675D02*
X001673Y011675D01*
X001693Y011576D02*
X002297Y011576D01*
X002286Y011478D02*
X001712Y011478D01*
X001732Y011379D02*
X002306Y011379D01*
X002368Y011281D02*
X001751Y011281D01*
X001404Y011182D02*
X000617Y011182D01*
X000590Y011084D02*
X001423Y011084D01*
X001442Y010985D02*
X000570Y010985D01*
X000551Y010887D02*
X001462Y010887D01*
X001481Y010788D02*
X000531Y010788D01*
X000511Y010690D02*
X001501Y010690D01*
X001520Y010591D02*
X000492Y010591D01*
X000472Y010493D02*
X001540Y010493D01*
X001559Y010394D02*
X000453Y010394D01*
X000433Y010296D02*
X001579Y010296D01*
X001598Y010197D02*
X000413Y010197D01*
X000394Y010099D02*
X001618Y010099D01*
X001637Y010000D02*
X000377Y010000D01*
X000371Y009902D02*
X001657Y009902D01*
X001676Y009803D02*
X000364Y009803D01*
X000358Y009705D02*
X001695Y009705D01*
X001715Y009606D02*
X000351Y009606D01*
X000345Y009508D02*
X001734Y009508D01*
X001754Y009409D02*
X000338Y009409D01*
X000332Y009311D02*
X001773Y009311D01*
X001793Y009212D02*
X000968Y009212D01*
X000953Y009227D02*
X000841Y009274D01*
X000719Y009274D01*
X000607Y009227D01*
X000521Y009142D01*
X000475Y009030D01*
X000475Y008908D01*
X000521Y008796D01*
X000607Y008710D01*
X000719Y008664D01*
X000765Y008664D01*
X002305Y006320D01*
X002286Y006274D01*
X002286Y006152D01*
X002332Y006040D01*
X002418Y005954D01*
X002530Y005908D01*
X002652Y005908D01*
X002764Y005954D01*
X002850Y006040D01*
X002896Y006152D01*
X002896Y006274D01*
X002850Y006386D01*
X002764Y006472D01*
X002652Y006518D01*
X002606Y006518D01*
X001066Y008862D01*
X001085Y008908D01*
X001085Y009030D01*
X001038Y009142D01*
X000953Y009227D01*
X001050Y009114D02*
X001812Y009114D01*
X001761Y009015D02*
X001085Y009015D01*
X001085Y008917D02*
X001735Y008917D01*
X001740Y008818D02*
X001094Y008818D01*
X001159Y008720D02*
X001780Y008720D01*
X001893Y008621D02*
X001224Y008621D01*
X001289Y008523D02*
X002514Y008523D01*
X002514Y008424D02*
X001353Y008424D01*
X001418Y008326D02*
X002527Y008326D01*
X002542Y008227D02*
X001483Y008227D01*
X001548Y008129D02*
X002557Y008129D01*
X002572Y008030D02*
X001612Y008030D01*
X001677Y007932D02*
X002588Y007932D01*
X002603Y007833D02*
X001742Y007833D01*
X001806Y007735D02*
X002618Y007735D01*
X002633Y007636D02*
X001871Y007636D01*
X001936Y007538D02*
X002649Y007538D01*
X002663Y007441D02*
X002663Y007441D01*
X002664Y007439D02*
X002001Y007439D01*
X002065Y007341D02*
X002695Y007341D01*
X002726Y007242D02*
X002130Y007242D01*
X002195Y007144D02*
X002757Y007144D01*
X002789Y007045D02*
X002260Y007045D01*
X002324Y006947D02*
X002820Y006947D01*
X002851Y006848D02*
X002389Y006848D01*
X002454Y006750D02*
X002882Y006750D01*
X002913Y006651D02*
X002518Y006651D01*
X002583Y006553D02*
X002945Y006553D01*
X002985Y006454D02*
X002781Y006454D01*
X002862Y006356D02*
X003034Y006356D01*
X003082Y006257D02*
X002896Y006257D01*
X002896Y006159D02*
X003131Y006159D01*
X003180Y006060D02*
X002858Y006060D01*
X002771Y005962D02*
X003229Y005962D01*
X003278Y005863D02*
X001675Y005863D01*
X001675Y005880D02*
X001675Y005834D01*
X004019Y004294D01*
X004066Y004313D01*
X004187Y004313D01*
X004299Y004267D01*
X004385Y004181D01*
X004431Y004069D01*
X004431Y003948D01*
X004385Y003835D01*
X004299Y003750D01*
X004187Y003703D01*
X004066Y003703D01*
X003954Y003750D01*
X003868Y003835D01*
X003821Y003948D01*
X003821Y003993D01*
X001478Y005534D01*
X001431Y005514D01*
X001310Y005514D01*
X001198Y005561D01*
X001112Y005647D01*
X001065Y005759D01*
X001065Y005880D01*
X001112Y005992D01*
X001198Y006078D01*
X001310Y006124D01*
X001431Y006124D01*
X001543Y006078D01*
X001629Y005992D01*
X001675Y005880D01*
X001642Y005962D02*
X002411Y005962D01*
X002324Y006060D02*
X001561Y006060D01*
X001370Y005819D02*
X004126Y004008D01*
X004344Y003795D02*
X005063Y003795D01*
X004934Y003893D02*
X004409Y003893D01*
X004431Y003992D02*
X004805Y003992D01*
X004676Y004090D02*
X004423Y004090D01*
X004377Y004189D02*
X004571Y004189D01*
X004639Y004118D02*
X004639Y004118D01*
X004476Y004287D02*
X004250Y004287D01*
X004381Y004386D02*
X003880Y004386D01*
X003730Y004484D02*
X004287Y004484D01*
X004192Y004583D02*
X003580Y004583D01*
X003430Y004681D02*
X004097Y004681D01*
X004002Y004780D02*
X003281Y004780D01*
X003131Y004878D02*
X003921Y004878D01*
X003959Y004825D02*
X003959Y004825D01*
X003852Y004977D02*
X002981Y004977D01*
X002831Y005075D02*
X003783Y005075D01*
X003713Y005174D02*
X002681Y005174D01*
X002531Y005272D02*
X003644Y005272D01*
X003575Y005371D02*
X002381Y005371D01*
X002231Y005469D02*
X003506Y005469D01*
X003436Y005568D02*
X002081Y005568D01*
X001931Y005666D02*
X003375Y005666D01*
X003326Y005765D02*
X001782Y005765D01*
X001576Y005469D02*
X001029Y005469D01*
X000981Y005568D02*
X001191Y005568D01*
X001104Y005666D02*
X000941Y005666D01*
X000907Y005765D02*
X001065Y005765D01*
X001065Y005863D02*
X000874Y005863D01*
X000840Y005962D02*
X001099Y005962D01*
X001180Y006060D02*
X000807Y006060D01*
X000773Y006159D02*
X002286Y006159D01*
X002286Y006257D02*
X000740Y006257D01*
X000706Y006356D02*
X002282Y006356D01*
X002217Y006454D02*
X000673Y006454D01*
X000640Y006553D02*
X002152Y006553D01*
X002088Y006651D02*
X000606Y006651D01*
X000583Y006750D02*
X002023Y006750D01*
X001958Y006848D02*
X000564Y006848D01*
X000544Y006947D02*
X001894Y006947D01*
X001829Y007045D02*
X000524Y007045D01*
X000505Y007144D02*
X001764Y007144D01*
X001699Y007242D02*
X000485Y007242D01*
X000466Y007341D02*
X001635Y007341D01*
X001570Y007439D02*
X000446Y007439D01*
X000426Y007538D02*
X001505Y007538D01*
X001440Y007636D02*
X000407Y007636D01*
X000387Y007735D02*
X001376Y007735D01*
X001311Y007833D02*
X000375Y007833D01*
X000368Y007932D02*
X001246Y007932D01*
X001182Y008030D02*
X000362Y008030D01*
X000356Y008129D02*
X001117Y008129D01*
X001052Y008227D02*
X000349Y008227D01*
X000343Y008326D02*
X000987Y008326D01*
X000923Y008424D02*
X000336Y008424D01*
X000330Y008523D02*
X000858Y008523D01*
X000793Y008621D02*
X000323Y008621D01*
X000317Y008720D02*
X000598Y008720D01*
X000512Y008818D02*
X000310Y008818D01*
X000306Y008917D02*
X000475Y008917D01*
X000475Y009015D02*
X000313Y009015D01*
X000319Y009114D02*
X000510Y009114D01*
X000592Y009212D02*
X000325Y009212D01*
X000780Y008969D02*
X002591Y006213D01*
X001876Y005272D02*
X001126Y005272D01*
X001078Y005371D02*
X001726Y005371D01*
X002025Y005174D02*
X001175Y005174D01*
X001223Y005075D02*
X002175Y005075D01*
X002325Y004977D02*
X001272Y004977D01*
X001321Y004878D02*
X002475Y004878D01*
X002625Y004780D02*
X001369Y004780D01*
X001418Y004681D02*
X002775Y004681D01*
X002925Y004583D02*
X001470Y004583D01*
X001536Y004484D02*
X003075Y004484D01*
X003225Y004386D02*
X001601Y004386D01*
X001667Y004287D02*
X003374Y004287D01*
X003524Y004189D02*
X001733Y004189D01*
X001799Y004090D02*
X003674Y004090D01*
X003821Y003992D02*
X001865Y003992D01*
X001931Y003893D02*
X003844Y003893D01*
X003909Y003795D02*
X001996Y003795D01*
X002315Y003401D02*
X002890Y003401D01*
X002823Y003302D02*
X002402Y003302D01*
X002488Y003204D02*
X002798Y003204D01*
X002804Y003105D02*
X002575Y003105D01*
X002661Y003007D02*
X002846Y003007D01*
X002747Y002908D02*
X002966Y002908D01*
X004760Y002022D02*
X007908Y002022D01*
X007771Y001628D02*
X009822Y001628D01*
X009967Y001726D02*
X008270Y001726D01*
X008407Y002120D02*
X004896Y002120D01*
X004969Y002219D02*
X008677Y002219D01*
X008802Y002317D02*
X006437Y002317D01*
X006526Y002416D02*
X010987Y002416D01*
X011192Y002120D02*
X012277Y002120D01*
X012213Y002022D02*
X011047Y002022D01*
X010901Y001923D02*
X012148Y001923D01*
X012083Y001825D02*
X010756Y001825D01*
X010610Y001726D02*
X012019Y001726D01*
X011826Y001628D02*
X010714Y001628D01*
X010806Y001529D02*
X011736Y001529D01*
X011695Y001431D02*
X010859Y001431D01*
X010834Y001037D02*
X012346Y001037D01*
X012000Y001370D02*
X013733Y004008D01*
X013609Y004287D02*
X013322Y004287D01*
X013212Y004189D02*
X013482Y004189D01*
X013436Y004090D02*
X013101Y004090D01*
X012991Y003992D02*
X013428Y003992D01*
X013442Y003893D02*
X012880Y003893D01*
X012783Y003806D02*
X012783Y003806D01*
X012765Y003795D02*
X013377Y003795D01*
X013312Y003696D02*
X012613Y003696D01*
X012461Y003598D02*
X013248Y003598D01*
X013183Y003499D02*
X012309Y003499D01*
X012156Y003401D02*
X013118Y003401D01*
X013054Y003302D02*
X012004Y003302D01*
X011960Y003273D02*
X011960Y003273D01*
X011804Y003204D02*
X012989Y003204D01*
X012924Y003105D02*
X011585Y003105D01*
X011365Y003007D02*
X012859Y003007D01*
X012795Y002908D02*
X011145Y002908D01*
X011065Y002872D02*
X011065Y002872D01*
X010838Y002810D02*
X011355Y002810D01*
X011703Y002317D02*
X012407Y002317D01*
X012471Y002416D02*
X011823Y002416D01*
X011866Y002514D02*
X012536Y002514D01*
X012601Y002613D02*
X011872Y002613D01*
X011848Y002711D02*
X012665Y002711D01*
X012730Y002810D02*
X011780Y002810D01*
X011338Y002219D02*
X012342Y002219D01*
X010374Y001234D02*
X010032Y001234D01*
X009950Y001234D02*
X009882Y001234D01*
X009736Y001135D02*
X010050Y001135D01*
X010006Y001037D02*
X009591Y001037D01*
X009445Y000938D02*
X010077Y000938D01*
X009541Y000347D02*
X008259Y000347D01*
X006084Y002317D02*
X005010Y002317D01*
X005020Y002416D02*
X005995Y002416D01*
X005612Y002514D02*
X005020Y002514D01*
X004981Y002613D02*
X005102Y002613D01*
X004960Y003007D02*
X006416Y003007D01*
X006280Y003055D02*
X006280Y003055D01*
X006455Y002810D02*
X006965Y002810D01*
X007203Y002724D02*
X007203Y002724D01*
X007270Y002711D02*
X006533Y002711D01*
X006565Y002613D02*
X007777Y002613D01*
X008772Y002514D02*
X006565Y002514D01*
X006690Y002908D02*
X005470Y002908D01*
X001384Y011281D02*
X000651Y011281D01*
X000684Y011379D02*
X001365Y011379D01*
X001345Y011478D02*
X000718Y011478D01*
X000751Y011576D02*
X001326Y011576D01*
X001306Y011675D02*
X000785Y011675D01*
X000818Y011773D02*
X001287Y011773D01*
X001186Y011872D02*
X000851Y011872D01*
X001094Y012463D02*
X002588Y012463D01*
X002606Y012561D02*
X001143Y012561D01*
X001191Y012660D02*
X002625Y012660D01*
X002643Y012758D02*
X001240Y012758D01*
X001288Y012857D02*
X002661Y012857D01*
X002679Y012955D02*
X001337Y012955D01*
X001386Y013054D02*
X002698Y013054D01*
X002716Y013152D02*
X001434Y013152D01*
X001492Y013251D02*
X002734Y013251D01*
X002752Y013349D02*
X001558Y013349D01*
X001624Y013448D02*
X002771Y013448D01*
X002789Y013546D02*
X001689Y013546D01*
X001755Y013645D02*
X002807Y013645D01*
X002825Y013743D02*
X001821Y013743D01*
X001887Y013842D02*
X002844Y013842D01*
X002862Y013940D02*
X001953Y013940D01*
X002018Y014039D02*
X002880Y014039D01*
X002898Y014137D02*
X002085Y014137D01*
X002172Y014236D02*
X002917Y014236D01*
X002935Y014334D02*
X002258Y014334D01*
X002344Y014433D02*
X002953Y014433D01*
X002912Y014531D02*
X002431Y014531D01*
X002517Y014630D02*
X002876Y014630D01*
X002876Y014728D02*
X002604Y014728D01*
X002690Y014827D02*
X002913Y014827D01*
X002998Y014925D02*
X002776Y014925D01*
X003181Y014678D02*
X002591Y011489D01*
X015268Y006292D02*
X014638Y003142D01*
X014912Y003007D02*
X015139Y003007D01*
X015225Y003105D02*
X014943Y003105D01*
X014943Y003204D02*
X015312Y003204D01*
X015398Y003302D02*
X014902Y003302D01*
X014873Y003401D02*
X015485Y003401D01*
X015571Y003499D02*
X014893Y003499D01*
X014913Y003598D02*
X015657Y003598D01*
X015738Y003696D02*
X014933Y003696D01*
X014952Y003795D02*
X015804Y003795D01*
X015869Y003893D02*
X014972Y003893D01*
X014992Y003992D02*
X015935Y003992D01*
X016001Y004090D02*
X015011Y004090D01*
X015031Y004189D02*
X016067Y004189D01*
X016133Y004287D02*
X015051Y004287D01*
X015070Y004386D02*
X016199Y004386D01*
X016264Y004484D02*
X015090Y004484D01*
X015110Y004583D02*
X016330Y004583D01*
X016382Y004681D02*
X015130Y004681D01*
X015149Y004780D02*
X016431Y004780D01*
X016479Y004878D02*
X015169Y004878D01*
X015189Y004977D02*
X016528Y004977D01*
X016577Y005075D02*
X015208Y005075D01*
X015228Y005174D02*
X016625Y005174D01*
X016674Y005272D02*
X015248Y005272D01*
X015267Y005371D02*
X016722Y005371D01*
X016410Y005741D02*
X015770Y008930D01*
X015655Y009212D02*
X015281Y009212D01*
X015289Y009114D02*
X015523Y009114D01*
X015475Y009015D02*
X015296Y009015D01*
X015304Y008917D02*
X015465Y008917D01*
X015486Y008818D02*
X015299Y008818D01*
X015291Y008720D02*
X015549Y008720D01*
X015648Y008621D02*
X015284Y008621D01*
X015276Y008523D02*
X015668Y008523D01*
X015688Y008424D02*
X015268Y008424D01*
X015261Y008326D02*
X015708Y008326D01*
X015727Y008227D02*
X015253Y008227D01*
X015246Y008129D02*
X015747Y008129D01*
X015767Y008030D02*
X015238Y008030D01*
X015231Y007932D02*
X015787Y007932D01*
X015806Y007833D02*
X015209Y007833D01*
X015186Y007735D02*
X015826Y007735D01*
X015846Y007636D02*
X015163Y007636D01*
X015140Y007538D02*
X015866Y007538D01*
X015886Y007439D02*
X015117Y007439D01*
X015094Y007341D02*
X015905Y007341D01*
X015925Y007242D02*
X015071Y007242D01*
X015048Y007144D02*
X015945Y007144D01*
X015965Y007045D02*
X015025Y007045D01*
X014998Y006947D02*
X015984Y006947D01*
X016004Y006848D02*
X014958Y006848D01*
X014919Y006750D02*
X016024Y006750D01*
X015053Y002908D02*
X014835Y002908D01*
D12*
X014638Y003142D03*
X013733Y004008D03*
X011567Y002591D03*
X012000Y001370D03*
X008930Y002040D03*
X008890Y000780D03*
X006320Y001980D03*
X006260Y002572D03*
X005741Y001410D03*
X004126Y004008D03*
X003103Y003181D03*
X001370Y005819D03*
X002591Y006213D03*
X002040Y008890D03*
X000780Y008969D03*
X002591Y011489D03*
X001410Y012079D03*
X003181Y014678D03*
X004087Y013733D03*
X006292Y015268D03*
X005819Y016410D03*
X008890Y015780D03*
X008965Y017032D03*
X011095Y016193D03*
X011500Y015250D03*
X012119Y016390D03*
X014689Y014611D03*
X013733Y013772D03*
X015268Y011528D03*
X016410Y012000D03*
X015770Y008930D03*
X017040Y008890D03*
X015268Y006292D03*
X016410Y005741D03*
M02*
