%
M48
M72
T01C0.0150
T02C0.0400
%
T01
X3103Y3181
X4126Y4008
X6260Y2572
X6320Y1980
X5741Y1410
X8890Y780
X8930Y2040
X11567Y2591
X12000Y1370
X13733Y4008
X14638Y3142
X16410Y5741
X15268Y6292
X17040Y8890
X15770Y8930
X15268Y11528
X16410Y12000
X14689Y14611
X13733Y13772
X11500Y15250
X11095Y16193
X12119Y16390
X8965Y17032
X8890Y15780
X6292Y15268
X5819Y16410
X3181Y14678
X4087Y13733
X2591Y11489
X1410Y12079
X780Y8969
X2040Y8890
X2591Y6213
X1370Y5819
T02
X4570Y2430
X10420Y1260
X13230Y15370
X7380Y16540
M30
