G75*
%MOIN*%
%OFA0B0*%
%FSLAX24Y24*%
%IPPOS*%
%LPD*%
%AMOC8*
5,1,8,0,0,1.08239X$1,22.5*
%
%ADD10C,0.0080*%
%ADD11C,0.0079*%
%ADD12C,0.0160*%
%ADD13C,0.0040*%
%ADD14C,0.0050*%
%ADD15R,0.0160X0.0280*%
D10*
X003182Y002691D02*
X002626Y003248D01*
X003150Y002913D02*
X003152Y002931D01*
X003158Y002949D01*
X003167Y002965D01*
X003179Y002978D01*
X003194Y002989D01*
X003211Y002997D01*
X003229Y003001D01*
X003247Y003001D01*
X003265Y002997D01*
X003282Y002989D01*
X003297Y002978D01*
X003309Y002965D01*
X003318Y002949D01*
X003324Y002931D01*
X003326Y002913D01*
X003324Y002895D01*
X003318Y002877D01*
X003309Y002861D01*
X003297Y002848D01*
X003282Y002837D01*
X003265Y002829D01*
X003247Y002825D01*
X003229Y002825D01*
X003211Y002829D01*
X003194Y002837D01*
X003179Y002848D01*
X003167Y002861D01*
X003158Y002877D01*
X003152Y002895D01*
X003150Y002913D01*
X004045Y002719D02*
X004101Y002774D01*
X004491Y003164D02*
X004547Y003220D01*
X005256Y002739D02*
X005226Y002666D01*
X005015Y002157D02*
X004985Y002084D01*
X005290Y001276D02*
X006017Y000975D01*
X005895Y001202D02*
X005897Y001220D01*
X005903Y001238D01*
X005912Y001254D01*
X005924Y001267D01*
X005939Y001278D01*
X005956Y001286D01*
X005974Y001290D01*
X005992Y001290D01*
X006010Y001286D01*
X006027Y001278D01*
X006042Y001267D01*
X006054Y001254D01*
X006063Y001238D01*
X006069Y001220D01*
X006071Y001202D01*
X006069Y001184D01*
X006063Y001166D01*
X006054Y001150D01*
X006042Y001137D01*
X006027Y001126D01*
X006010Y001118D01*
X005992Y001114D01*
X005974Y001114D01*
X005956Y001118D01*
X005939Y001126D01*
X005924Y001137D01*
X005912Y001150D01*
X005903Y001166D01*
X005897Y001184D01*
X005895Y001202D01*
X006804Y001331D02*
X006834Y001404D01*
X007045Y001913D02*
X007075Y001986D01*
X006770Y002794D02*
X006043Y003095D01*
X004574Y004083D02*
X004018Y004639D01*
X003155Y004612D02*
X003099Y004556D01*
X002709Y004166D02*
X002653Y004111D01*
X002092Y005080D02*
X002019Y005050D01*
X002601Y005291D02*
X002674Y005321D01*
X003030Y006108D02*
X002729Y006836D01*
X001921Y007140D02*
X001848Y007110D01*
X001339Y006899D02*
X001266Y006869D01*
X000910Y006082D02*
X001211Y005355D01*
X001260Y005539D02*
X001262Y005557D01*
X001268Y005575D01*
X001277Y005591D01*
X001289Y005604D01*
X001304Y005615D01*
X001321Y005623D01*
X001339Y005627D01*
X001357Y005627D01*
X001375Y005623D01*
X001392Y005615D01*
X001407Y005604D01*
X001419Y005591D01*
X001428Y005575D01*
X001434Y005557D01*
X001436Y005539D01*
X001434Y005521D01*
X001428Y005503D01*
X001419Y005487D01*
X001407Y005474D01*
X001392Y005463D01*
X001375Y005455D01*
X001357Y005451D01*
X001339Y005451D01*
X001321Y005455D01*
X001304Y005463D01*
X001289Y005474D01*
X001277Y005487D01*
X001268Y005503D01*
X001262Y005521D01*
X001260Y005539D01*
X001124Y007981D02*
X001046Y007981D01*
X000416Y008571D02*
X000416Y009359D01*
X001046Y009949D02*
X001124Y009949D01*
X001676Y009949D02*
X001754Y009949D01*
X002384Y009359D02*
X002384Y008571D01*
X001754Y007981D02*
X001676Y007981D01*
X000525Y008690D02*
X000527Y008708D01*
X000533Y008726D01*
X000542Y008742D01*
X000554Y008755D01*
X000569Y008766D01*
X000586Y008774D01*
X000604Y008778D01*
X000622Y008778D01*
X000640Y008774D01*
X000657Y008766D01*
X000672Y008755D01*
X000684Y008742D01*
X000693Y008726D01*
X000699Y008708D01*
X000701Y008690D01*
X000699Y008672D01*
X000693Y008654D01*
X000684Y008638D01*
X000672Y008625D01*
X000657Y008614D01*
X000640Y008606D01*
X000622Y008602D01*
X000604Y008602D01*
X000586Y008606D01*
X000569Y008614D01*
X000554Y008625D01*
X000542Y008638D01*
X000533Y008654D01*
X000527Y008672D01*
X000525Y008690D01*
X001848Y010820D02*
X001921Y010790D01*
X001339Y011031D02*
X001266Y011061D01*
X001049Y011882D02*
X001051Y011900D01*
X001057Y011918D01*
X001066Y011934D01*
X001078Y011947D01*
X001093Y011958D01*
X001110Y011966D01*
X001128Y011970D01*
X001146Y011970D01*
X001164Y011966D01*
X001181Y011958D01*
X001196Y011947D01*
X001208Y011934D01*
X001217Y011918D01*
X001223Y011900D01*
X001225Y011882D01*
X001223Y011864D01*
X001217Y011846D01*
X001208Y011830D01*
X001196Y011817D01*
X001181Y011806D01*
X001164Y011798D01*
X001146Y011794D01*
X001128Y011794D01*
X001110Y011798D01*
X001093Y011806D01*
X001078Y011817D01*
X001066Y011830D01*
X001057Y011846D01*
X001051Y011864D01*
X001049Y011882D01*
X000910Y011848D02*
X001211Y012576D01*
X002019Y012880D02*
X002092Y012850D01*
X002601Y012639D02*
X002674Y012609D01*
X003155Y013319D02*
X003099Y013374D01*
X002709Y013764D02*
X002653Y013820D01*
X002760Y014627D02*
X002762Y014645D01*
X002768Y014663D01*
X002777Y014679D01*
X002789Y014692D01*
X002804Y014703D01*
X002821Y014711D01*
X002839Y014715D01*
X002857Y014715D01*
X002875Y014711D01*
X002892Y014703D01*
X002907Y014692D01*
X002919Y014679D01*
X002928Y014663D01*
X002934Y014645D01*
X002936Y014627D01*
X002934Y014609D01*
X002928Y014591D01*
X002919Y014575D01*
X002907Y014562D01*
X002892Y014551D01*
X002875Y014543D01*
X002857Y014539D01*
X002839Y014539D01*
X002821Y014543D01*
X002804Y014551D01*
X002789Y014562D01*
X002777Y014575D01*
X002768Y014591D01*
X002762Y014609D01*
X002760Y014627D01*
X002626Y014683D02*
X003182Y015239D01*
X004045Y015212D02*
X004101Y015156D01*
X004491Y014766D02*
X004547Y014711D01*
X005256Y015191D02*
X005226Y015264D01*
X005015Y015773D02*
X004985Y015846D01*
X005386Y016517D02*
X005388Y016535D01*
X005394Y016553D01*
X005403Y016569D01*
X005415Y016582D01*
X005430Y016593D01*
X005447Y016601D01*
X005465Y016605D01*
X005483Y016605D01*
X005501Y016601D01*
X005518Y016593D01*
X005533Y016582D01*
X005545Y016569D01*
X005554Y016553D01*
X005560Y016535D01*
X005562Y016517D01*
X005560Y016499D01*
X005554Y016481D01*
X005545Y016465D01*
X005533Y016452D01*
X005518Y016441D01*
X005501Y016433D01*
X005483Y016429D01*
X005465Y016429D01*
X005447Y016433D01*
X005430Y016441D01*
X005415Y016452D01*
X005403Y016465D01*
X005394Y016481D01*
X005388Y016499D01*
X005386Y016517D01*
X005290Y016654D02*
X006017Y016955D01*
X006804Y016599D02*
X006834Y016526D01*
X007045Y016017D02*
X007075Y015944D01*
X007916Y016111D02*
X007916Y016190D01*
X007916Y016741D02*
X007916Y016819D01*
X008506Y017449D02*
X009294Y017449D01*
X009884Y016819D02*
X009884Y016741D01*
X009884Y016190D02*
X009884Y016111D01*
X009294Y015481D02*
X008506Y015481D01*
X006770Y015136D02*
X006043Y014835D01*
X004574Y013848D02*
X004018Y013291D01*
X003030Y011822D02*
X002729Y011095D01*
X008536Y017253D02*
X008538Y017271D01*
X008544Y017289D01*
X008553Y017305D01*
X008565Y017318D01*
X008580Y017329D01*
X008597Y017337D01*
X008615Y017341D01*
X008633Y017341D01*
X008651Y017337D01*
X008668Y017329D01*
X008683Y017318D01*
X008695Y017305D01*
X008704Y017289D01*
X008710Y017271D01*
X008712Y017253D01*
X008710Y017235D01*
X008704Y017217D01*
X008695Y017201D01*
X008683Y017188D01*
X008668Y017177D01*
X008651Y017169D01*
X008633Y017165D01*
X008615Y017165D01*
X008597Y017169D01*
X008580Y017177D01*
X008565Y017188D01*
X008553Y017201D01*
X008544Y017217D01*
X008538Y017235D01*
X008536Y017253D01*
X010755Y016017D02*
X010725Y015944D01*
X010966Y016526D02*
X010996Y016599D01*
X011729Y016728D02*
X011731Y016746D01*
X011737Y016764D01*
X011746Y016780D01*
X011758Y016793D01*
X011773Y016804D01*
X011790Y016812D01*
X011808Y016816D01*
X011826Y016816D01*
X011844Y016812D01*
X011861Y016804D01*
X011876Y016793D01*
X011888Y016780D01*
X011897Y016764D01*
X011903Y016746D01*
X011905Y016728D01*
X011903Y016710D01*
X011897Y016692D01*
X011888Y016676D01*
X011876Y016663D01*
X011861Y016652D01*
X011844Y016644D01*
X011826Y016640D01*
X011808Y016640D01*
X011790Y016644D01*
X011773Y016652D01*
X011758Y016663D01*
X011746Y016676D01*
X011737Y016692D01*
X011731Y016710D01*
X011729Y016728D01*
X011783Y016955D02*
X012510Y016654D01*
X012815Y015846D02*
X012785Y015773D01*
X012574Y015264D02*
X012544Y015191D01*
X013253Y014711D02*
X013309Y014766D01*
X013699Y015156D02*
X013755Y015212D01*
X014474Y015017D02*
X014476Y015035D01*
X014482Y015053D01*
X014491Y015069D01*
X014503Y015082D01*
X014518Y015093D01*
X014535Y015101D01*
X014553Y015105D01*
X014571Y015105D01*
X014589Y015101D01*
X014606Y015093D01*
X014621Y015082D01*
X014633Y015069D01*
X014642Y015053D01*
X014648Y015035D01*
X014650Y015017D01*
X014648Y014999D01*
X014642Y014981D01*
X014633Y014965D01*
X014621Y014952D01*
X014606Y014941D01*
X014589Y014933D01*
X014571Y014929D01*
X014553Y014929D01*
X014535Y014933D01*
X014518Y014941D01*
X014503Y014952D01*
X014491Y014965D01*
X014482Y014981D01*
X014476Y014999D01*
X014474Y015017D01*
X014618Y015239D02*
X015174Y014683D01*
X015147Y013820D02*
X015091Y013764D01*
X014701Y013374D02*
X014645Y013319D01*
X015126Y012609D02*
X015199Y012639D01*
X015708Y012850D02*
X015781Y012880D01*
X016364Y012391D02*
X016366Y012409D01*
X016372Y012427D01*
X016381Y012443D01*
X016393Y012456D01*
X016408Y012467D01*
X016425Y012475D01*
X016443Y012479D01*
X016461Y012479D01*
X016479Y012475D01*
X016496Y012467D01*
X016511Y012456D01*
X016523Y012443D01*
X016532Y012427D01*
X016538Y012409D01*
X016540Y012391D01*
X016538Y012373D01*
X016532Y012355D01*
X016523Y012339D01*
X016511Y012326D01*
X016496Y012315D01*
X016479Y012307D01*
X016461Y012303D01*
X016443Y012303D01*
X016425Y012307D01*
X016408Y012315D01*
X016393Y012326D01*
X016381Y012339D01*
X016372Y012355D01*
X016366Y012373D01*
X016364Y012391D01*
X016589Y012576D02*
X016890Y011848D01*
X016534Y011061D02*
X016461Y011031D01*
X015952Y010820D02*
X015879Y010790D01*
X016046Y009949D02*
X016124Y009949D01*
X016676Y009949D02*
X016754Y009949D01*
X017384Y009359D02*
X017384Y008571D01*
X016754Y007981D02*
X016676Y007981D01*
X016124Y007981D02*
X016046Y007981D01*
X015416Y008571D02*
X015416Y009359D01*
X015071Y011095D02*
X014770Y011822D01*
X013782Y013291D02*
X013226Y013848D01*
X011757Y014835D02*
X011030Y015136D01*
X017099Y009241D02*
X017101Y009259D01*
X017107Y009277D01*
X017116Y009293D01*
X017128Y009306D01*
X017143Y009317D01*
X017160Y009325D01*
X017178Y009329D01*
X017196Y009329D01*
X017214Y009325D01*
X017231Y009317D01*
X017246Y009306D01*
X017258Y009293D01*
X017267Y009277D01*
X017273Y009259D01*
X017275Y009241D01*
X017273Y009223D01*
X017267Y009205D01*
X017258Y009189D01*
X017246Y009176D01*
X017231Y009165D01*
X017214Y009157D01*
X017196Y009153D01*
X017178Y009153D01*
X017160Y009157D01*
X017143Y009165D01*
X017128Y009176D01*
X017116Y009189D01*
X017107Y009205D01*
X017101Y009223D01*
X017099Y009241D01*
X015952Y007110D02*
X015879Y007140D01*
X016461Y006899D02*
X016534Y006869D01*
X016890Y006082D02*
X016589Y005355D01*
X016575Y006048D02*
X016577Y006066D01*
X016583Y006084D01*
X016592Y006100D01*
X016604Y006113D01*
X016619Y006124D01*
X016636Y006132D01*
X016654Y006136D01*
X016672Y006136D01*
X016690Y006132D01*
X016707Y006124D01*
X016722Y006113D01*
X016734Y006100D01*
X016743Y006084D01*
X016749Y006066D01*
X016751Y006048D01*
X016749Y006030D01*
X016743Y006012D01*
X016734Y005996D01*
X016722Y005983D01*
X016707Y005972D01*
X016690Y005964D01*
X016672Y005960D01*
X016654Y005960D01*
X016636Y005964D01*
X016619Y005972D01*
X016604Y005983D01*
X016592Y005996D01*
X016583Y006012D01*
X016577Y006030D01*
X016575Y006048D01*
X015781Y005050D02*
X015708Y005080D01*
X015199Y005291D02*
X015126Y005321D01*
X014645Y004612D02*
X014701Y004556D01*
X015091Y004166D02*
X015147Y004111D01*
X014864Y003303D02*
X014866Y003321D01*
X014872Y003339D01*
X014881Y003355D01*
X014893Y003368D01*
X014908Y003379D01*
X014925Y003387D01*
X014943Y003391D01*
X014961Y003391D01*
X014979Y003387D01*
X014996Y003379D01*
X015011Y003368D01*
X015023Y003355D01*
X015032Y003339D01*
X015038Y003321D01*
X015040Y003303D01*
X015038Y003285D01*
X015032Y003267D01*
X015023Y003251D01*
X015011Y003238D01*
X014996Y003227D01*
X014979Y003219D01*
X014961Y003215D01*
X014943Y003215D01*
X014925Y003219D01*
X014908Y003227D01*
X014893Y003238D01*
X014881Y003251D01*
X014872Y003267D01*
X014866Y003285D01*
X014864Y003303D01*
X015174Y003248D02*
X014618Y002691D01*
X013755Y002719D02*
X013699Y002774D01*
X013309Y003164D02*
X013253Y003220D01*
X012544Y002739D02*
X012574Y002666D01*
X012785Y002157D02*
X012815Y002084D01*
X012238Y001413D02*
X012240Y001431D01*
X012246Y001449D01*
X012255Y001465D01*
X012267Y001478D01*
X012282Y001489D01*
X012299Y001497D01*
X012317Y001501D01*
X012335Y001501D01*
X012353Y001497D01*
X012370Y001489D01*
X012385Y001478D01*
X012397Y001465D01*
X012406Y001449D01*
X012412Y001431D01*
X012414Y001413D01*
X012412Y001395D01*
X012406Y001377D01*
X012397Y001361D01*
X012385Y001348D01*
X012370Y001337D01*
X012353Y001329D01*
X012335Y001325D01*
X012317Y001325D01*
X012299Y001329D01*
X012282Y001337D01*
X012267Y001348D01*
X012255Y001361D01*
X012246Y001377D01*
X012240Y001395D01*
X012238Y001413D01*
X012510Y001276D02*
X011783Y000975D01*
X010996Y001331D02*
X010966Y001404D01*
X010755Y001913D02*
X010725Y001986D01*
X011030Y002794D02*
X011757Y003095D01*
X013226Y004083D02*
X013782Y004639D01*
X014770Y006108D02*
X015071Y006836D01*
X009884Y001819D02*
X009884Y001741D01*
X009884Y001190D02*
X009884Y001111D01*
X009088Y000678D02*
X009090Y000696D01*
X009096Y000714D01*
X009105Y000730D01*
X009117Y000743D01*
X009132Y000754D01*
X009149Y000762D01*
X009167Y000766D01*
X009185Y000766D01*
X009203Y000762D01*
X009220Y000754D01*
X009235Y000743D01*
X009247Y000730D01*
X009256Y000714D01*
X009262Y000696D01*
X009264Y000678D01*
X009262Y000660D01*
X009256Y000642D01*
X009247Y000626D01*
X009235Y000613D01*
X009220Y000602D01*
X009203Y000594D01*
X009185Y000590D01*
X009167Y000590D01*
X009149Y000594D01*
X009132Y000602D01*
X009117Y000613D01*
X009105Y000626D01*
X009096Y000642D01*
X009090Y000660D01*
X009088Y000678D01*
X009294Y000481D02*
X008506Y000481D01*
X007916Y001111D02*
X007916Y001190D01*
X007916Y001741D02*
X007916Y001819D01*
X008506Y002449D02*
X009294Y002449D01*
D11*
X009806Y002449D02*
X009884Y002449D01*
X009884Y002410D01*
X010608Y002577D02*
X010630Y002628D01*
X010739Y002673D01*
X012230Y003291D02*
X012303Y003321D01*
X012318Y003285D01*
X012919Y003721D02*
X012919Y003776D01*
X013003Y003860D01*
X014144Y005001D02*
X014200Y005057D01*
X014228Y005029D01*
X014626Y005656D02*
X014604Y005708D01*
X014649Y005817D01*
X015267Y007308D02*
X015297Y007381D01*
X015334Y007366D01*
X015455Y008099D02*
X015416Y008138D01*
X015416Y008256D01*
X015416Y009871D02*
X015416Y009949D01*
X015455Y009949D01*
X015289Y010673D02*
X015237Y010695D01*
X015192Y010804D01*
X014574Y012295D02*
X014544Y012368D01*
X014580Y012383D01*
X014144Y012985D02*
X014089Y012985D01*
X014005Y013068D01*
X012864Y014209D02*
X012808Y014265D01*
X012836Y014293D01*
X012209Y014691D02*
X012157Y014669D01*
X012048Y014715D01*
X010557Y015332D02*
X010484Y015362D01*
X010499Y015399D01*
X009766Y015520D02*
X009727Y015481D01*
X009609Y015481D01*
X007994Y015481D02*
X007916Y015481D01*
X007916Y015520D01*
X007192Y015354D02*
X007170Y015302D01*
X007061Y015257D01*
X005570Y014639D02*
X005497Y014609D01*
X005482Y014646D01*
X004881Y014209D02*
X004881Y014154D01*
X004797Y014070D01*
X003656Y012929D02*
X003600Y012873D01*
X003572Y012901D01*
X003174Y012274D02*
X003196Y012222D01*
X003151Y012113D01*
X002533Y010622D02*
X002503Y010549D01*
X002466Y010564D01*
X002345Y009831D02*
X002384Y009792D01*
X002384Y009674D01*
X002384Y008060D02*
X002384Y007981D01*
X002345Y007981D01*
X002511Y007257D02*
X002563Y007236D01*
X002608Y007126D01*
X003226Y005635D02*
X003256Y005562D01*
X003220Y005547D01*
X003656Y004946D02*
X003711Y004946D01*
X003795Y004862D01*
X004936Y003721D02*
X004992Y003665D01*
X004964Y003637D01*
X005591Y003240D02*
X005643Y003261D01*
X005752Y003216D01*
X007243Y002598D02*
X007316Y002568D01*
X007301Y002531D01*
X008034Y002410D02*
X008073Y002449D01*
X008191Y002449D01*
X006578Y000786D02*
X006563Y000749D01*
X006490Y000779D01*
X007916Y000520D02*
X007916Y000481D01*
X007994Y000481D01*
X009806Y000481D02*
X009884Y000481D01*
X009884Y000520D01*
X011222Y000786D02*
X011237Y000749D01*
X011310Y000779D01*
X012983Y001472D02*
X013056Y001502D01*
X013041Y001539D01*
X014172Y002301D02*
X014200Y002273D01*
X014256Y002329D01*
X015536Y003609D02*
X015592Y003665D01*
X015564Y003693D01*
X016326Y004824D02*
X016363Y004809D01*
X016393Y004882D01*
X017086Y006555D02*
X017116Y006628D01*
X017080Y006643D01*
X017345Y007981D02*
X017384Y007981D01*
X017384Y008060D01*
X017384Y009871D02*
X017384Y009949D01*
X017345Y009949D01*
X017080Y011287D02*
X017116Y011302D01*
X017086Y011375D01*
X016393Y013048D02*
X016363Y013121D01*
X016326Y013106D01*
X015564Y014237D02*
X015592Y014265D01*
X015536Y014321D01*
X014256Y015601D02*
X014200Y015657D01*
X014172Y015629D01*
X013041Y016391D02*
X013056Y016428D01*
X012983Y016458D01*
X011310Y017151D02*
X011237Y017181D01*
X011222Y017145D01*
X009884Y017410D02*
X009884Y017449D01*
X009806Y017449D01*
X007994Y017449D02*
X007916Y017449D01*
X007916Y017410D01*
X006578Y017145D02*
X006563Y017181D01*
X006490Y017151D01*
X004817Y016458D02*
X004744Y016428D01*
X004759Y016391D01*
X003628Y015629D02*
X003600Y015657D01*
X003544Y015601D01*
X002264Y014321D02*
X002208Y014265D01*
X002236Y014237D01*
X001474Y013106D02*
X001437Y013121D01*
X001407Y013048D01*
X000714Y011375D02*
X000684Y011302D01*
X000720Y011287D01*
X000455Y009949D02*
X000416Y009949D01*
X000416Y009871D01*
X000416Y008060D02*
X000416Y007981D01*
X000455Y007981D01*
X000720Y006643D02*
X000684Y006628D01*
X000714Y006555D01*
X001407Y004882D02*
X001437Y004809D01*
X001474Y004824D01*
X002236Y003693D02*
X002208Y003665D01*
X002264Y003609D01*
X003544Y002329D02*
X003600Y002273D01*
X003628Y002301D01*
X004759Y001539D02*
X004744Y001502D01*
X004817Y001472D01*
D12*
X007328Y001117D02*
X007352Y001113D01*
X002257Y004515D02*
X002243Y004535D01*
X001048Y010513D02*
X001052Y010537D01*
X004450Y015608D02*
X004470Y015622D01*
X010448Y016817D02*
X010472Y016813D01*
X015543Y013415D02*
X015557Y013395D01*
X016752Y007417D02*
X016748Y007393D01*
X013350Y002322D02*
X013330Y002308D01*
D13*
X001919Y013269D02*
X002019Y013419D01*
X002002Y013502D01*
X001802Y013636D01*
X001719Y013619D01*
X001619Y013469D01*
X001919Y013269D01*
X002073Y013609D02*
X001873Y013742D01*
X001856Y013826D01*
X001923Y013925D01*
X002006Y013942D01*
X002206Y013809D01*
X002223Y013726D01*
X002156Y013626D01*
X002073Y013609D01*
X013309Y015883D02*
X013459Y015783D01*
X013542Y015800D01*
X013675Y016000D01*
X013659Y016083D01*
X013509Y016183D01*
X013309Y015883D01*
X013615Y015679D02*
X013715Y015612D01*
X013665Y015646D02*
X013865Y015945D01*
X013915Y015912D02*
X013815Y015979D01*
D14*
X004318Y002087D02*
X004151Y001837D01*
X004110Y002046D02*
X004360Y001879D01*
X010335Y000662D02*
X010629Y000721D01*
D15*
G36*
X007219Y016710D02*
X007188Y016866D01*
X007461Y016920D01*
X007492Y016764D01*
X007219Y016710D01*
G37*
M02*
